<svg id="レイヤー_1" data-name="レイヤー 1" xmlns="http://www.w3.org/2000/svg" width="16.3mm" height="24.03mm" viewBox="0 0 46.2 68.12">
  <defs>
    <style>
      .cls-1 {
        fill: #040000;
      }

      .cls-2 {
        fill: #fff;
        opacity: 0;
      }
    </style>
  </defs>
  <path id="パス_4" data-name="パス 4" class="cls-1" d="M37.6,18.64c-4.52-4.07-8.41-4.34-10.13-4.34-1.9,0-4.25.27-5.88,2.08a5.45,5.45,0,0,0-1.54,3.8,4.25,4.25,0,0,0,1.36,3.35c1.45,1.36,3.53,1.9,7.6,3.44l4.52,1.71c2.63,1,5.88,2.35,8.23,4.61a15.05,15.05,0,0,1,4.43,11.22c0,6.24-2.17,11.66-5.33,14.92C35.52,65,27.75,65.58,23.77,65.58A25.59,25.59,0,0,1,11.82,63,38.37,38.37,0,0,1,3,56.44L10.2,46.5a37.51,37.51,0,0,0,5.6,4.61,14,14,0,0,0,7.6,2.17,9.66,9.66,0,0,0,6.33-2.08,6.22,6.22,0,0,0,2.17-4.89A5.32,5.32,0,0,0,29.82,42c-1.62-1.35-5.33-2.71-7-3.34l-5-1.72c-2.8-1-6.06-2.26-8.41-4.79-3.17-3.35-3.63-7.6-3.63-10.49A18.53,18.53,0,0,1,11,8.06c4.25-4.34,9.31-5.52,14.92-5.52a29.18,29.18,0,0,1,17.91,6Z" transform="translate(0 0)"/>
  <rect class="cls-2" width="46.2" height="68.12"/>
</svg>
