<svg id="グループ_4541" data-name="グループ 4541" xmlns="http://www.w3.org/2000/svg" xmlns:xlink="http://www.w3.org/1999/xlink" width="20" height="16.254" viewBox="0 0 20 16.254">
  <defs>
    <clipPath id="clip-path">
      <rect id="長方形_1338" data-name="長方形 1338" width="20" height="16.254" fill="none"/>
    </clipPath>
  </defs>
  <g id="グループ_4540" data-name="グループ 4540" clip-path="url(#clip-path)">
    <path id="パス_1592" data-name="パス 1592" d="M6.29,16.254A11.6,11.6,0,0,0,17.965,4.579c0-.178,0-.355-.012-.53A8.352,8.352,0,0,0,20,1.924a8.191,8.191,0,0,1-2.356.646A4.117,4.117,0,0,0,19.448.3a8.223,8.223,0,0,1-2.605,1A4.107,4.107,0,0,0,9.85,5.039,11.649,11.649,0,0,1,1.392.751a4.106,4.106,0,0,0,1.27,5.478A4.073,4.073,0,0,1,.8,5.716c0,.017,0,.034,0,.052A4.1,4.1,0,0,0,4.095,9.791a4.1,4.1,0,0,1-1.853.07,4.108,4.108,0,0,0,3.833,2.85,8.235,8.235,0,0,1-5.1,1.756A8.378,8.378,0,0,1,0,14.411a11.617,11.617,0,0,0,6.29,1.843" fill="#1da1f2"/>
  </g>
</svg>
