<svg xmlns="http://www.w3.org/2000/svg" width="112.777" height="515.065" viewBox="0 0 112.777 515.065"><defs><style>.a{fill:#000}</style></defs><path class="a" d="M110.348 26.86L41.258 54.2l69.09 27.35v26.858L2.425 62.619V45.79L110.348 0z"/><path class="a" d="M2.425 120.348h107.923v21.68l-69.575 58.573h69.575v24.918H2.425v-21.681l69.9-58.572h-69.9z"/><path class="a" d="M46.435 423.336c-10.355 0-23.137-1.293-34.14-11.972-10.678-10.355-12.3-22.328-12.3-33.655s1.618-23.3 12.3-33.655c11.003-10.678 23.785-11.973 34.14-11.973h63.913v24.918H47.082c-4.692 0-12.62.322-18.122 5.662-4.69 4.368-5.663 10.355-5.663 15.047s.973 10.681 5.663 15.048c5.5 5.34 13.43 5.665 18.122 5.665h63.266v24.915z"/><path class="a" d="M83.977 499.695c7.282-8.09 7.767-15.047 7.767-18.123 0-3.4-.485-7.6-3.722-10.515a9.646 9.646 0 0 0-6.8-2.752 7.568 7.568 0 0 0-5.985 2.427c-2.428 2.59-3.4 6.31-6.15 13.59l-3.073 8.09c-1.78 4.695-4.208 10.519-8.252 14.725-5.988 6.31-13.755 7.928-20.063 7.928-11.165 0-20.875-3.883-26.7-9.546-10.033-9.547-11-23.462-11-30.58 0-7.767 1.13-14.562 4.53-21.357a68.679 68.679 0 0 1 11.812-15.86l17.8 12.947a65.874 65.874 0 0 0-8.252 10.033 25.051 25.051 0 0 0-3.885 13.59c0 3.235.647 7.765 3.722 11.325a11.164 11.164 0 0 0 8.738 3.882 9.52 9.52 0 0 0 7.767-3.72c2.425-2.913 4.853-9.548 5.985-12.623l3.075-8.9c1.78-5.011 4.046-10.834 8.576-15.044 5.987-5.662 13.592-6.472 18.77-6.472 9.54 0 17.635 2.912 24.27 9.382 7.77 7.608 9.87 16.668 9.87 26.7a52.163 52.163 0 0 1-10.68 32.036z"/><path class="a" d="M89.313 291.876H2.425v-26.152h86.888v-24.621h21.035v75.393H89.313z"/></svg>