<?xml version="1.0" encoding="utf-8"?>
<!-- Generator: Adobe Illustrator 24.3.0, SVG Export Plug-In . SVG Version: 6.00 Build 0)  -->
<svg version="1.1" id="レイヤー_1" xmlns="http://www.w3.org/2000/svg" xmlns:xlink="http://www.w3.org/1999/xlink" x="0px"
	 y="0px" width="233.6px" height="826.3px" viewBox="0 0 233.6 826.3" style="enable-background:new 0 0 233.6 826.3;"
	 xml:space="preserve">
<style type="text/css">
	.st0{fill:#FFFFFF;}
</style>
<path class="st0" d="M139.9,23.1c9.2,0.4,12.9,0.5,18.2,0.5h51.3l6.2-6.3l6.5,5.7c0.6,0.5,0.9,1.3,0.9,1.9c0,0.8-0.6,1.3-1.6,1.3
	h-63.4c-5,0-7.8,0.1-14.6,0.5L139.9,23.1z M146.1,143c0,1.2-0.3,1.6-1.2,2.2c-0.6,0.4-1.8,0.9-2,0.9c-0.5,0-0.7-0.5-0.7-1.4v-75
	l5.2,3.2h8.8l1.8-2.3l4.2,3c0.8,0.6,1.5,1.6,1.5,2.1c0,0.4-0.6,0.9-1,1.1l-1.7,0.5v60.8c0,1-0.2,1.4-1,2.1c-0.9,0.7-1.8,1.2-2.3,1.2
	c-0.6,0-0.9-0.7-0.9-1.6v-7.7h-10.7V143z M146.1,92.4h10.7V75.6h-10.7V92.4z M146.1,110.7h10.7V94.9h-10.7V110.7z M146.1,129.6h10.7
	v-16.3h-10.7V129.6z M179.7,101c0.9,0.3,1.5,0.9,1.5,1.5s-0.6,1.2-1.3,1.4l-2.1,0.6l-2.4,5.9h8.1l1.8-1.9l4.7,4.3
	c0.4,0.4,0.6,1,0.6,1.5c0,0.6-0.4,0.9-1.1,1l-1.9,0.4c-8.5,18.3-13.9,26-23.3,33.1c-3.3,2.5-7.7,5.1-8.6,5.1c-0.6,0-1-0.4-1-0.8
	c0-0.5,0.5-1,1.7-1.8c9-6,13.9-11.3,20-21.8c-1.3,0-1.4-0.1-2.2-1.9c-1.3-2.6-2.9-4.8-4.5-5.9c-2.7,4.1-5.7,7.8-6.4,7.8
	c-0.3,0-0.4-0.1-0.4-0.4c0-0.6,0.2-1,2-4.3c3.7-6.8,7.1-15.7,9.4-25.4L179.7,101z M169.4,89.5c0.8,2,0.9,2.4,1.1,4.1h32.3
	c2.4-4,5.6-10.9,8.8-18.8l4.9,2.6c1.5,0.8,1.9,1.4,1.9,2.3c0,0.4-0.2,0.7-0.6,0.8l-3.4,0.7l-2.5,3.4l-4.7,6.2l-2,2.8h10.2l2-2.8
	l6,5.2c1,0.9,1.2,1.3,1.2,1.6c0,0.7-0.4,1-1.7,1.1L220,99c-4.1,4.4-4.5,4.9-6.7,7.2l-0.9-0.8c1.9-5.2,2.2-5.9,3.4-9.2h-45.2
	c-0.6,6.3-2.6,10.8-5,10.8c-1.1,0-1.9-1.2-1.9-2.6c0-1,0.2-1.4,2.2-4.8c1.7-2.7,2.4-5.3,2.4-8.8c0-0.1,0-0.6-0.1-1.1L169.4,89.5z
	 M214.4,69.3c0.6,0.5,0.8,1,0.8,1.3c0,0.4-0.5,0.6-1.2,0.6c-0.4,0-0.8-0.1-1.3-0.2l-3-0.6c-2,0.4-3.7,0.7-3.8,0.7
	c-2.7,0.6-5.3,1.1-8,1.6c-6.9,1.4-27.5,4.2-29.9,4.2c-0.9,0-1.5-0.3-1.5-0.8c0-0.7,0.3-0.8,3.5-1.4l2.8-0.7
	c17.9-3.8,25.4-5.7,36.1-9.4L214.4,69.3z M174.3,112.9c-1.7,3.3-1.9,3.8-3.7,6.9c5,2,6.2,3,7.6,6c1.7-3,2.3-4.5,5.5-12.9H174.3z
	 M174.1,78.3c6.4,5.2,7.8,7.2,7.8,10.3c0,2.1-1.1,3.9-2.3,3.9c-1.2,0-1.8-1.1-2.3-4.5c-0.5-3-1.5-5-4.1-8.8L174.1,78.3z
	 M193.3,113.2h-2.2v-2.6h14V99.9l4.8,1c1.1,0.2,1.7,0.6,1.7,1.3c0,0.4-0.2,0.6-0.8,1l-1.5,1v6.5h5.3l3.8-4.7l4.5,4.4
	c0.6,0.5,1,1.4,1,1.9s-0.6,1-1.6,1h-13V128h6l4.1-4.7l5.1,4.4c0.6,0.6,1.2,1.6,1.2,2.1c0,0.5-0.6,0.8-1.8,0.8h-14.7v18.3
	c0,1.6,0,1.6-1.2,2.3c-1.2,0.8-1.5,1-2.2,1c-0.5,0-0.7-0.5-0.7-1.3v-20.4h-9.6c-1.3,0-3,0-5.2,0.1l-5.1,0.2l-2.4-3.3
	c5.5,0.3,6.7,0.4,10.4,0.4V113.2z M187.8,76.1c5.4,3.9,8.8,8.2,8.8,11.4c0,1.9-1.1,3.4-2.5,3.4c-1.5,0-2.1-1-2.7-4
	c-0.4-2.6-2.5-7.2-4.7-10L187.8,76.1z M197.4,128h7.6v-14.7h-7.6V128z M196.1,167c3.6-0.8,6.1-1.5,6.6-1.7c1.5-0.4,2.9-0.7,3.7-0.7
	c1.7,0,3.6,1,5.1,2.8c1.2,1.5,1.8,2.5,1.8,3.3c0,0.9-0.9,1.9-1.8,1.9c-0.4,0-1-0.1-1.7-0.4c-1.9-0.7-4.7-1-7.1-1
	c-7.7,0-13.3,2.9-17.9,9.2c-2.8,3.9-4.3,7.5-5.6,13.7c-1,4.9-1.5,9.6-1.5,13.6c0,5.5,1.2,9.6,3.4,12.1c2.3,2.7,5.9,3.9,12.1,3.9
	c1.5,0,2.9-0.1,4.1-0.2c1.8-0.3,3-0.4,3.5-0.4c2.4,0.1,4.3,2.2,4.3,4.8c0,1.7-2.4,2.5-7.6,2.5c-15.4,0-24.7-7.5-24.7-20.1
	c0-9.4,2.1-18,6.4-26.1c2.2-4.4,5.4-8.8,7.7-10.7c0.6-0.6,0.8-0.8,0.8-1c0-0.3-0.2-0.5-0.4-0.5c-0.8,0-4.7,0.8-6.1,1.2
	c-3.8,1.3-10.3,3.8-12.4,4.7c-2,0.9-8.8,4.6-10,5.5c-2.3,1.5-2.9,1.8-4.2,1.8c-3,0-6.2-1.9-7.3-4.3c-0.7-1.4-1.2-3.7-1.2-5.1
	c0-0.3,0.3-0.6,0.6-0.6c0.2,0,0.3,0.1,0.6,0.8c0.6,1.7,2.7,2.7,5.3,2.7c2.2,0,3.5-0.3,8.4-1.9c18.4-5.5,18.7-5.6,29.5-8.4L196.1,167
	z M208,193.9c0,1.5-1.3,2.9-2.7,2.9c-0.9,0-1.3-0.5-2-1.7c-1.4-3.5-4.6-6.2-8.4-7.6c-0.3-0.1-0.4-0.2-0.4-0.4c0-0.2,0.6-0.4,1.8-0.4
	C202.2,186.8,208,190.4,208,193.9z M215.4,187.7c0,1.6-1.3,3.1-2.7,3.1c-1,0-1.3-0.4-2.3-2.2c-1.5-3.1-5.1-5.9-8.3-6.8
	c-0.4-0.1-0.6-0.2-0.6-0.4c0-0.3,1.2-0.6,2.8-0.6C209.6,181,215.4,184.5,215.4,187.7z M158.2,297.1c-0.4,0.8-0.7,1.4-1.2,2.2
	c-2.3,4.7-2.5,5.2-3.5,8.5c-0.5,2.5-0.7,2.9-1.6,2.9c-1.9,0-4.1-3.3-4.1-6.1c0-1.5,0.2-1.9,3.1-5c2.1-2.3,5.4-6,6.5-7.5
	c-1.2-3-2.7-6.7-3-7.6c-1.6-3.5-1.9-4.2-1.9-5.9c0-2.5,0.8-4,3.7-6.7c2.4-2.3,2.4-2.3,8.6-5.8v-2.1l0.1-3.9
	c0.1-11.5-0.4-12.7-5-13.5c-0.4,0-0.6-0.2-0.6-0.5c0-0.8,2.9-2,4.7-2c3,0,7,3.4,7,6c0,0.6-0.1,1.1-0.5,2.8c-1,3.9-1,4.4-1.6,10.5
	l-0.2,1.9c1.5-0.6,2.1-0.7,2.6-0.7c0.7,0,1,0.2,1.9,1.3c0.7,0.9,0.9,1.3,0.9,1.7c0,0.7-0.1,0.8-1.5,2.6c-2.3,3-2.9,4.1-4.6,9.4
	c9.3-8.9,18.2-13.5,26.1-13.5c10.6,0,17.9,7.9,17.9,19.6c0,11.2-6.3,20.4-17.8,26.1c-3.1,1.5-9.1,3.5-10.8,3.5
	c-0.5,0-1.1-0.5-1.1-0.9c0-0.4,0.4-0.6,1.7-1c3.5-1.1,7.5-3.2,10.9-5.6c7.4-5.4,10.8-12,10.8-21.1c0-11.4-4.6-17.4-13.4-17.4
	c-5.4,0-10.3,2.2-17.5,7.6c-3.6,2.6-5.1,4.1-6.7,6.8c0,1.7,0,2.8,0.1,3.4l0.1,6.9l0.2,5.2l0.2,4.9c0.5,6.6,0.6,7,0.8,8.3
	c0.1,1,0.2,1.8,0.2,2.3c0,1.2-0.7,2.5-1.7,3.3s-2.3,1.4-2.8,1.4c-1.3,0-2-1-2.1-3.4c-0.1-6.2-1.7-14.3-4-20L158.2,297.1z
	 M164.7,272.3c0-1.1-0.2-1.7-0.6-1.7c-0.9,0-2.8,1-4.6,2.4c-2.7,2-3.7,3.7-3.7,5.8c0,1.3,0.6,3.4,3.2,11.2c1-1.4,1.6-2.4,2-2.9
	c0.8-1,1.7-2.2,2.5-3.4l1.2-1.5V272.3z M163.9,287.6l-2.2,3.8l-1.4,2.3c1.2,3.1,2.6,7.9,3.5,11.2c0.3,1.3,0.5,1.9,0.9,1.9
	c0.4,0,0.7-0.8,0.7-1.8v-1.4l-0.1-4.3l-0.1-5.5l-0.1-5.5v-2.4L163.9,287.6z M184.2,346.7c0.9,0.2,1.3,0.7,1.3,1.5
	c0,2.6-4.4,5.6-13.8,9.4c-1.7,8.4-6,25.1-9.3,36.4c-3.2,11.3-4.2,13-6.8,13c-1.6,0-3.6-2.3-3.6-4.2c0-0.7,0.2-1.2,1.3-3.3
	c5.1-8.8,10.5-24.8,13.8-40.4c-5.2,2.3-9.4,3.5-11.7,3.5c-3.6,0-6.3-1.8-7.8-5.2c-0.5-1.3-1-2.9-1-3.8c0-0.5,0.2-0.7,0.4-0.7
	c0.2,0,0.3,0.1,0.4,0.5c1.2,2.7,3.8,4.2,7.3,4.2c3.1,0,8-1.1,13.3-3.1c0.6-3.8,1.4-10.4,1.4-12.4c0-2.1-0.3-3.6-0.9-4.3
	s-1.5-1.2-2.5-1.1c-2.3,0.1-2.3,0.1-2.4,0.2c-0.2,0.1-0.4,0.2-0.4,0.2c-0.1,0-0.4-0.3-0.4-0.4l0.2-0.2c0-0.1,0.1-0.2,0.3-0.3
	c0.9-1.1,4.3-2.7,5.7-2.7c1,0,3,0.7,4.5,1.4c1.3,0.7,2.1,1.4,2.1,2.2c0,0.1-0.1,0.3-0.2,0.6c-0.3,0.8-0.4,0.9-0.4,1.7
	c-0.4,1.8-0.5,2.4-0.7,3.2c4.6,2.9,7.7,4.4,9.2,4.4c0.1,0,0.2,0,0.3-0.1c0.2-0.1,0.3-0.1,0.3-0.1H184.2z M172.9,353.3
	c6-3.4,6.6-3.9,6.6-4.7c0-0.8,0-0.8-4.2-3.9l-1.2-0.9c-0.2,0.8-0.4,1.6-0.4,1.9c-0.1,0.5-0.3,1.6-0.6,3.2c-0.3,1.4-0.4,1.9-1,5
	L172.9,353.3z M213.9,399.4c0,2.8-3.5,4.2-10.6,4.2c-14.2,0-21.2-4.6-21.2-13.8c0-4,1.7-10.2,2.8-10.2c0.3,0,0.5,0.3,0.5,0.6
	c0,0,0,0.2-0.1,0.4c-0.4,1.2-0.8,4.5-0.8,6.2c0,7.9,4.3,10.9,15.7,10.9c3.4,0,7-0.4,9.1-0.9c1.5-0.4,1.5-0.4,1.7-0.4
	C212.7,396.3,213.9,397.7,213.9,399.4z M196.8,366.3c2-1.1,2.5-1.4,5-2.7c0.9-0.5,1.5-1.1,1.5-1.6c0-1.1-3.8-2.3-7.3-2.3
	c-2.8,0-6,0.8-7.6,2.1c-0.3,0.3-0.4,0.3-0.4,0.3c-0.2,0-0.4-0.3-0.4-0.5c0-0.4,1.4-1.7,2.6-2.3c2.5-1.6,5.9-2.5,9.2-2.5
	c7.1,0,13,3.7,13,8.1c0,1.3-0.6,2.3-1.5,2.3c-0.4,0-0.5,0-1.7-0.5c-1.2-0.6-2.9-0.8-4.5-0.8c-2.2,0-6.3,1-8.6,2.3l-0.4,0.1
	c-0.3,0-0.5-0.3-0.5-0.5c0-0.3,0.1-0.3,0.9-0.8L196.8,366.3z M172.3,429.9c0,1.2-0.2,2.4-1,5.6c-1.8,7.4-4.1,26.8-4.1,34.1
	c0,5.2,1.4,9.9,3.8,12.9c2.4,3.1,6.4,4.7,12,4.7c6.4,0,12-1.9,17.4-5.9c2.9-2.2,7.4-6.4,9-8.5c1.1-1.4,1.1-1.4,1.2-1.4
	s0.4,0.3,0.4,0.7c0,1.7-1.1,3.7-3.8,7.1c-7.3,9-14.8,13-24.7,13c-6.3,0-11.3-2.2-14.6-6.4c-3.1-3.9-4.5-9-4.5-16.7
	c0-4.1,1.1-22.1,1.9-31.7c0.3-3.3,0.4-6.1,0.4-7.8c0-5.2-1.4-8.1-4.1-8.1c-0.6,0-0.8-0.1-0.8-0.4c0-0.8,1.5-1.6,3.3-1.6
	C168,419.5,172.3,424.8,172.3,429.9z M181,555c0.4,4.5,0.5,6.9,0.5,9.1c0,3.6-1.1,4.9-4,4.9c-1,0-1.4-0.3-1.4-1c0-0.1,0-0.4,0.1-0.7
	c0.2-1.6,0.4-5.3,0.4-10.2c-8.2,5.5-11.1,8.8-11.1,13.2c0,2.4,1.9,4.7,4.7,5.6c2.3,0.8,5,1,9.3,1c4.7,0,7.6-0.4,13-1.8
	c0.8-0.2,1.5-0.3,2.1-0.3c1.8,0,3.8,1.6,3.8,3c0,1.6-1.9,3-4.3,3.4c-3.4,0.6-10,1.1-12.7,1.1c-12.1,0-19.5-4.2-19.5-11.2
	c0-3.9,2-7.3,5.7-10.2c2.3-1.8,3.8-2.7,8.9-5.8v-0.7c0-2.2-0.4-5.8-0.7-8.4c-0.7-3.9-2.3-6-4.8-6c-3.8,0-9.2,5.2-14,13.4
	c-1,1.7-1.5,2.2-2.5,2.2c-0.7,0-1.2-0.4-1.8-1.6c-0.8-1.4-1.2-2.6-1.2-3.3c0-0.9,0.3-1.4,1.3-2.3c9.7-8.6,15.9-18.1,17.6-27.2
	c-2.4,0.8-6.3,1.7-7.9,1.7c-1.6,0-3.5-1.4-4.6-3.6c-0.5-0.9-1.2-2.4-1.2-2.9c0-0.1,0.2-0.3,0.3-0.3c0.2,0,0.4,0.2,0.6,0.6
	c1.1,1.6,2.6,2.2,5.4,2.2c2.4,0,5.3-0.6,7.9-1.5c0.2-1.4,0.2-2,0.2-2.8c0-2.8-1.8-5-4.2-5c-0.2,0-0.3-0.1-0.3-0.2
	c0-0.9,2.3-2.2,3.9-2.2c2.9,0,5.8,2.6,5.8,5.5c0,1-0.2,2.2-0.7,3.6c2.7-0.8,4.9-2.1,6-3.2c0.9,0.6,1.2,0.8,1.7,0.9
	c1.4,0.8,1.8,1.1,1.8,1.7c0,0.8-1,1.3-3.7,2.3c-0.3,0.1-1.2,0.4-2.4,0.8c-1.5,0.5-2.2,0.8-4,1.3c-2.3,6.4-6.4,14.6-10.1,19.9
	c3.8-1.6,4.7-1.9,6.5-1.9c2.4,0,5.2,1.6,6.7,4c1,1.3,1.3,2.4,1.6,5.1c5.4-12.6,13-19.7,21.4-19.7c5.9,0,10.9,3.9,10.9,8.4
	c0,1.8-0.8,3.6-2.1,4.7c-1.1,0.9-1.1,0.9-7.1,3.7c-7.1,3.2-11.1,5-11.9,5.4c-1.7,0.8-2.5,1.2-7.3,3.9L181,555z M182.3,551
	c22.1-12.4,23.5-13.3,23.5-16c0-2.5-2.9-4.7-6.2-4.7c-4.4,0-9.8,4-13.6,10.1c-1.9,2.9-4.5,8.5-5.2,10.9c-0.1,0.4-0.2,0.7-0.2,0.7
	L182.3,551z M151.5,617.9c-4.7,0-5.8,0-10.7,0.3l-2.4-3.6c6.4,0.6,7.4,0.6,13.1,0.7v-21.4l7.6,1c0.8,0.1,1.4,0.7,1.4,1.4
	c0,0.5-0.3,0.9-0.8,1.2l-2.9,1.3v16.7h2.9l4.4-4.8l4.8,4.2c0.6,0.6,1,1.3,1,1.9c0,0.8-0.5,1.4-1,1.4h-12.2v19.9
	c3.8-1.6,6.5-2.8,12.7-5.9l0.6,1.5c-5.7,3.7-7.2,4.6-13.3,8.3v31.4c0,2.7-0.7,4.2-3.2,5.8c-1.4,1-3.3,1.6-4.5,1.6
	c-0.9,0-1-0.2-1.3-2.7c-0.1-0.8-0.5-1.1-2-1.6l-5.5-1.8l0.2-1.2l5.3,0.5c0.6,0.1,0.9,0.1,2,0.1c3.1,0,3.8-0.4,3.8-2.2v-26.7
	c-3.3,1.8-3.8,2.1-6.7,3.9l-0.9,2.3c-0.5,1.2-0.8,1.6-1.3,1.6s-0.9-0.6-1.6-1.9l-2.7-5.5c6.2-2.2,8.9-3.3,13.2-5.1V617.9z
	 M185.6,627c0,1-0.2,1.4-1,1.9c-0.9,0.7-2,1.1-2.7,1.1c-0.6,0-0.9-0.5-0.9-1.3v-12.6c-3.9,0-4.4,0-8.2,0.2l-2.3-3.5
	c5.3,0.4,6.1,0.4,10.5,0.5v-17.4l6.7,1.3c1,0.1,1.6,0.6,1.6,1.3c0,0.5-0.4,0.9-0.9,1.2l-2.8,1.4v12.3h14.7v-17.8l6.6,1
	c0.8,0.1,1.4,0.6,1.4,1.2c0,0.5-0.3,1.1-0.6,1.3l-2.8,1.6v12.7h7.6l4.5-5.1l5.7,4.6c0.6,0.6,1.2,1.5,1.2,2.1s-0.5,1.1-1.2,1.1h-17.9
	v10.9c0,0.9-0.2,1.3-0.6,1.6c-0.6,0.5-2.4,1.2-3.2,1.2c-0.6,0-0.8-0.4-0.8-1.1v-12.6h-14.7V627z M176.6,678.7c0,1.4-1.8,2.8-3.6,2.8
	c-0.6,0-0.8-0.5-0.8-1.5v-50.2l5.3,3h34.4l2-3l4.9,3.1c0.8,0.6,1.3,1.1,1.3,1.6c0,0.4-0.3,0.8-0.9,1.1l-2,0.9v40.1
	c0,1-0.2,1.3-1,1.8c-1,0.6-1.9,1-2.6,1c-0.6,0-1-0.5-1-1.3v-3.7h-35.8V678.7z M176.6,651.9h15v-16.5h-15V651.9z M176.6,671.8h15
	v-17.3h-15V671.8z M196,651.9h16.4v-16.5H196V651.9z M196,671.8h16.4v-17.3H196V671.8z M190.8,699.5c0,1.1-0.4,1.6-1.4,2.5
	c-2.2,1.7-5.8,5.5-12.4,13.4c-7.1,8.2-7.8,9.5-7.8,13.9c0,3,0.4,4,3.5,8.1c3.6,4.7,10,13.8,12.3,17.7c3.4,5.3,5,9.3,5,12.3
	c0,3.3-1.7,5.7-3.8,5.7c-1.8,0-2.9-1.3-3.3-4.1c-1.8-9.2-5.2-16.3-14.3-31c-2.6-4-3.4-6.1-3.4-8.9c0-1.9,0.8-4.8,1.9-6.8
	c1.3-2.3,1.3-2.3,8.8-12.5c5.5-7.5,7.3-10.4,7.3-12.1c0-2.2-2.3-4.2-4.8-4.3c-0.4,0-0.6-0.2-0.6-0.6c0-0.6,1.8-1.2,3.5-1.2
	C185.5,691.7,190.8,695.9,190.8,699.5z M224.3,794.9c0,6.2-4.7,11.2-10.6,11.2c-5.8,0-10.5-4.9-10.5-11.2s4.8-11.1,10.7-11.1
	C219.6,783.8,224.3,788.9,224.3,794.9z M206.2,794.9c0,4.5,3.4,8.1,7.6,8.1c4.2,0,7.6-3.6,7.6-8.1s-3.4-8-7.7-8
	C209.6,786.9,206.2,790.6,206.2,794.9z M28.2,48c-5,0-7.8,0.1-15.5,0.5l-3.1-3.6c10.5,0.4,14.5,0.5,18.5,0.5h11.1
	c3-5.5,3.5-6.5,6.3-12.9l6.3,3.4c0.7,0.4,1.1,0.8,1.1,1.2c0,0.5-0.8,1-1.8,1.2l-2.8,0.3c-1.8,3.4-2.1,3.9-3.9,6.9h35.6l4.9-5.5
	l5,3.8c1.7,1.3,2.6,2.4,2.6,3.3c0,0.8-0.5,1.1-1.5,1.1H43c-2.1,3.4-2.5,3.9-4.7,6.9l2.1,1.3h28.8l2-2.6l4.7,3.1
	c0.6,0.5,0.9,0.9,0.9,1.4c0,0.6-0.3,0.9-1.1,1.3l-1.5,0.8v14.8c0,1.2-0.1,1.4-0.9,1.8c-0.8,0.5-2.2,1.2-2.6,1.2
	c-0.5,0-0.8-0.5-0.8-1.2v-3.9H39.4v2.2c0,1.2-0.2,1.5-1.3,2.2c-0.8,0.7-1.8,1.1-2.4,1.1c-0.5,0-0.6-0.2-0.6-1.1V59.1
	c-6.3,7.2-11,11.2-19.4,16.4c-4.6,2.9-5.9,3.6-6.7,3.6c-0.5,0-0.8-0.3-0.8-0.8c0-0.8,0.1-0.9,4.2-3.7C22.6,67.7,31.6,58.3,37.8,48
	H28.2z M27.7,29.6c-3.3,0-6.5,0.1-15.6,0.5l-2.7-3.6C19,26.9,21.9,27,28.1,27h6.6V15.9l5,0.6c1.7,0.3,2.6,0.7,2.6,1.4
	c0,0.4-0.4,0.9-0.9,1.2L39,20.4V27h19.4V15.9l5.8,0.7c1.4,0.1,1.8,0.4,1.8,1.1c0,0.5-0.3,0.9-1,1.4l-2.4,1.6V27h14.8l5.2-5.3
	l5.8,4.4c1,0.8,1.5,1.5,1.5,2.2c0,1.1-0.4,1.4-1.8,1.4H62.6v7.5c0,1.6-1.8,3.5-3.3,3.5c-0.6,0-0.9-0.7-0.9-1.5v-9.5H39V38
	c0,1.6-1.8,3.2-3.5,3.2c-0.5,0-0.7-0.5-0.7-1.4V29.6H27.7z M24.5,79.3c0.6,3.7,0.8,5,0.8,6.8c0,6.4-4.2,14.1-7.8,14.1
	c-1.6,0-2.9-1.5-2.9-3.1c0-1.4,0.6-2.5,2.6-4.5c4.7-4.8,5.5-6.7,5.8-13L24.5,79.3z M42,81c1.1,0.1,1.7,0.6,1.7,1.4
	c0,0.7-0.3,1.1-1.3,1.6l-1.5,1v10.3c0,2.3,0.3,2.4,8.2,2.4c6.7,0,12.8-0.3,15.5-0.7c3.5-0.5,4.2-1.2,4.9-4.8l1.8-9.3l1.6-0.1
	l-0.2,8.9l-0.1,0.9c-0.1,1.5,0.1,1.8,0.7,2.8c1.4,1.6,1.6,2,1.6,2.8c0,3.2-5.3,4.4-20.2,4.4c-4.8,0-11.9-0.3-14.1-0.5
	c-2.9-0.4-3.8-1.2-3.8-3.3V80.4L42,81z M39.4,70.3H70V58.8H39.4V70.3z M47.9,76.2c4,1.1,5.8,1.8,7.9,3.3c3.3,2.1,5.2,4.8,5.2,7.3
	c0,1.8-1.2,3.5-2.5,3.5c-1,0-1.6-0.8-2.9-3.5c-2.2-4.4-3.4-5.7-8.1-9.2L47.9,76.2z M77.6,77.8c7,2.8,9.4,4.1,11.6,6.3
	c2.6,2.6,4.3,6.2,4.3,8.8c0,1.6-1,2.9-2.4,2.9c-1.5,0-2.2-0.9-3.6-4.3c-2-4.9-6-9.6-10.6-12.6L77.6,77.8z M32.5,122.1
	c-0.2,0-0.4-0.3-0.4-0.5c0-0.2,0.6-0.8,1.5-1.6c1.7-1.5,3-2.2,4.4-2.2c3.4,0,7.3,2.4,7.4,4.7c0.8,3.8,2.7,8.1,5,11.8
	c1.6-0.8,2.2-1.2,2.9-1.8c0,0,1.3-1.1,2.6-2.3c1-0.9,1.4-1.1,2.4-1.1c1.5,0,3.8,1.8,3.8,2.9c0,1.5-3.5,3.8-9.6,6.4
	c0.8,1.5,3.8,6.6,5.5,9.4c3.6-1.3,10.6-5.7,11.9-7.4c1-1,1.2-1.2,1.7-1.2c2.6,0,5.8,1.5,5.8,2.8c0,2-7.4,6.2-17,9.8
	c2.1,3.5,5.7,8.6,8.4,12.1c2.4,3.3,3.2,5.2,3.2,7.8c0,3.5-2.1,6.4-4.5,6.4c-0.4,0-0.9-0.3-1.7-1c-4.2-4.4-12.7-8-18.8-8
	c-7.7,0-13.1,4-13.1,9.8c0,5.5,4.8,8.3,14.8,8.3c2.9,0,3.2,0,5.4-0.4c0.7-0.1,1.2-0.1,1.6-0.1c2.1,0,3.3,0.9,3.3,2.6
	c0,2.6-2.8,3.9-8.3,3.9c-6.4,0-12-1.1-15.1-3.1c-3.8-2.3-6-6.3-6-10.4c0-7.6,6.9-12.6,17.5-12.6c4,0,7.7,0.8,12.4,2.8
	c2.4,0.9,2.9,1.1,3.9,1.1c1.2,0,2-0.7,2-1.8c0-1.7-4.5-11-7.8-16.3c-7.3,2.5-17,4.2-23.8,4.2c-6.7,0-9.9-2.6-10.4-8.4v-0.2
	c0-0.4,0.4-0.7,0.7-0.7c0.2,0,0.2,0.1,0.4,0.8c1.5,3.3,4.6,4.8,9.7,4.8c6.7,0,14.6-1.7,20.9-4.4c-1.2-2.5-1.8-3.4-5.6-10.1
	c-4.6,1.3-9.6,2.2-13.3,2.2c-3.7,0-6.1-0.8-7.5-2.6c-0.8-0.9-1.5-2.6-1.5-3.5c0-0.5,0.2-0.8,0.5-0.8c0.4,0,0.5,0.1,0.6,0.7
	c0.5,2.2,2.8,3.4,6,3.4c3.6,0,9.4-1.3,12.9-2.9c-0.4-0.8-0.7-1.2-0.8-1.4c-0.7-1-1.5-2.2-2.2-3.3c-5.1-7.5-6.7-9-9.9-9
	C33.9,121.8,33.1,121.9,32.5,122.1L32.5,122.1z M47.6,262.6c8.9-2.2,11.8-3.1,16.7-5.9c9.7-5.4,14.9-13.3,14.9-22.7
	c0-10.6-6.3-16.9-16.8-16.9c-6.7,0-16.5,3.3-23.7,8c-2.2,1.4-7.1,5.2-11.7,8.7c-1.8,1.5-3,2.2-3.9,2.2c-2.4,0-7.1-2.5-8.2-4.5
	c-0.7-1.1-1.5-4.7-1.5-6.7c0-0.5,0.3-0.8,0.7-0.8c0.4,0,0.4,0.2,0.6,0.9c0.7,2.5,2.9,4.3,5.4,4.3c2.3,0,4.4-0.9,13.4-6.1
	c10.5-6,20.7-9.1,30.1-9.1c12.6,0,22.1,8.7,22.1,20.4c0,11.3-6.8,19.9-19.9,25.4c-4.5,1.8-7.9,2.8-14.3,3.9
	c-3.5,0.7-4.9,0.8-5.7,0.8c-1,0-1.6-0.4-1.6-0.8s0.3-0.6,1.2-0.7c0.3-0.1,0.5-0.1,0.9-0.2L47.6,262.6z M28,285
	c2.5,1.8,3.8,4.3,3.8,7.2c0,1.6-0.3,2.6-1.5,6.1c-3.6,9.6-5.4,17.9-5.4,25.2c0,6,1.3,10.8,3.1,10.8c0.6,0,1.1-0.5,1.5-1.9
	c0.1-0.5,0.3-1,0.5-1.7c0.4-0.9,0.7-2,1.2-2.9c4.7-12.6,5.1-13.5,5.7-13.5c0.4,0,1,0.5,1,0.8c0,0.2,0,0.2-0.7,2.3
	c-3.6,10.1-4.9,15.2-4.9,19.3c0,1.5,0.4,4,0.9,5.5c0.2,0.5,0.3,0.8,0.3,0.9c0,1-1.4,2.3-2.7,2.3c-1.5,0-4-2.1-5.4-4.4
	c-2.5-4.3-4-10.2-4-15.8c0-5.5,0.7-10.7,3.1-23.8c1-4.9,1.4-8.6,1.4-10.8c0-3.3-1.2-5.8-3.6-7c-0.2-0.1-0.2-0.1-0.2-0.3
	c0-0.3,0.2-0.6,0.4-0.6C23.4,282.6,26.5,284,28,285z M69.9,294.8c0,3,0,3.6,0.2,5.6c2.8-0.7,8-3.9,8.8-5.5c0.4-0.6,0.5-0.8,0.9-0.8
	c0.5,0,2.9,0.7,3.7,0.9c1.2,0.6,1.6,1,1.6,1.7c0,2.2-6.6,5.8-14.6,8c0.4,6.3,0.5,10,0.5,13.1c0,16.8-4,25.8-14.6,32.3
	c-4,2.4-8.8,4.6-10.6,4.6c-0.4,0-0.8-0.4-0.8-0.8c0-0.5,0.3-0.8,1.1-1c1.7-0.6,6-2.9,7.8-4.2c5-3.7,8.6-9.1,10.4-16
	c1.4-5.5,2-10.9,2-21.3c0-1.5,0-2.9-0.1-5.5c-3.4,0.9-6.5,1.4-8.8,1.4c-2.9,0-6.6-1.8-8.5-4.1c-0.9-1.1-1.5-2.2-1.5-2.5
	c0-0.4,0.4-0.8,0.7-0.8c0.1,0,0.3,0.1,0.4,0.4c1.9,2.4,3.7,3.3,7.1,3.3c2.9,0,6.6-0.7,10.1-1.9c-0.5-15.9-1.2-17.5-7.2-17.5
	c-0.4,0-0.7-0.2-0.7-0.4c0-1,3.3-2.7,5.3-2.7c2.6,0,7.9,3,7.9,4.5c0,0.2-0.1,0.5-0.3,0.9c-0.6,1.6-0.7,2.3-0.7,6.8V294.8z
	 M31.2,372.9c0.1,0,0.2,0.2,0.3,0.5c0.3,1.7,1.7,2.7,3.5,2.7c3,0,11.6-3.3,15.7-6c2.1-1.5,2.9-1.8,3.9-1.8c3.1,0,9.3,4.3,9.3,6.6
	c0,1-0.7,1.9-3,3.4c-2.9,2-6.5,5.7-14.7,15.5c-3.3,3.9-3.8,4.6-3.8,5.5c0,0.3,0.5,1,0.8,1c0.1,0,0.2-0.1,0.4-0.3
	c0.1,0,0.1,0,3.1-1.3c3-1.2,7.7-2.2,11.1-2.2c5.3,0,10.5,2.5,13.6,6.5c2.1,2.8,3.5,7.3,3.5,11.5c0,7.6-4.5,14.5-11.8,18
	c-3.8,1.9-8.8,3.2-12.5,3.2c-8,0-13.2-3.4-13.2-8.5c0-4.1,3.4-7,8.4-7c5.7,0,10.2,3.4,12.5,9.5c0.1,0.2,0.1,0.2,0.2,0.5
	c7.1-3.2,10.4-8.6,10.4-16.6c0-8.7-5.1-14.2-13.3-14.2c-4.6,0-9.2,1.2-13.7,3.9c-2.9,1.6-8.3,8.5-11.2,14.2c-2.5,5-3,5.6-4.5,5.6
	c-0.8,0-1.7-0.6-2.2-1.4c-0.4-0.8-1.2-2.7-1.2-3.4c0-0.8,0.6-1.9,2.2-3.5c7.8-8.1,14-15.9,23.8-29.9c1.2-1.7,2.3-3.2,3-4.1
	c2.4-3,3.4-4.6,3.4-5.6c0-1.1-1.2-2.1-2.6-2.1c-1.3,0-3.6,0.8-5.2,1.7c-1.7,0.9-2.2,1.4-6.2,4.2c-4.7,3.3-4.7,3.3-5.4,3.3
	c-1.2,0-3.6-1.7-4.5-3.2c-0.7-1.2-1.2-2.8-1.2-3.8C30.2,374.1,30.6,373.3,31.2,372.9L31.2,372.9z M45.5,422.7c-2.6,0-4.4,1.7-4.4,4
	c0,2.8,3.8,5.1,8.7,5.1c1.2,0,2.6-0.2,3.5-0.4c0.2-0.1,0.2-0.1,0.4-0.1C52.2,425.3,49.7,422.7,45.5,422.7z M17.6,457.6h9.9l2.3-2.8
	l4.9,3.8c0.5,0.4,0.8,0.9,0.8,1.4c0,0.4-0.3,0.7-0.8,1l-1.7,0.9v60.4c0,1.2-2,2.5-3.8,2.5c-0.6,0-0.7-0.3-0.7-1.1v-4.5H16.8v8.7
	c0,0.6-0.3,1-1,1.4c-1.2,0.8-2,1.2-2.5,1.2c-0.6,0-0.7-0.4-0.7-1.3v-74.9L17.6,457.6z M16.8,495.5h11.6v-15.7H16.8V495.5z
	 M16.8,498.1v18.4h11.6v-18.4H16.8z M28.5,460.2H17v17h11.4V460.2z M60.4,521.1H50.1c-2.9,0-5.2,0.1-10.4,0.3l-2.1-3.3
	c6.3,0.3,8.8,0.4,12.3,0.4h10.5v-8.3H45.1v2.6c0,1.4-1.4,2.6-2.9,2.6c-0.6,0-0.8-0.3-0.8-1v-29.9l4.3,2.1h32.6l1.4-2.4l5,3.3
	c0.6,0.5,0.9,0.9,0.9,1.2s-0.3,0.7-0.8,1l-1.5,1v20c0,1.1-2,2.3-3.7,2.3c-0.4,0-0.6-0.2-0.6-0.6v-2.2H64.2v8.3h13.1l4.1-4.2l5.4,3.9
	c0.6,0.6,1.1,1.2,1.1,1.6c0,0.7-0.6,1.1-1.5,1.1H64.2v9.6h18l4.9-4.8l5.7,4.6c0.9,0.8,1.4,1.4,1.4,1.9s-0.6,1-1.5,1H46.3
	c-1.1,0-3.4,0-6,0.1l-6.4,0.3l-3.4-3.4c8.1,0.3,11.4,0.4,15.8,0.4h14.1V521.1z M34.9,477.7c4.3,0.1,8.2,0.2,9.6,0.2
	c2.9,0.1,4.9,0.2,5.8,0.2h1.3c-0.2-0.8-0.4-1.5-0.5-1.7c-0.2-1.4-0.5-2.7-0.7-4.1c-1.2-4-2.6-6.6-4.4-8.7c-1.8,0-2.9,0.1-6.1,0.2
	l-2.1-3.2c7.1,0.3,9.5,0.4,12.1,0.4h10.3v-13.7l6.4,1.1c0.9,0.1,1.4,0.5,1.4,1c0,0.4-0.3,0.7-0.8,1l-2.3,1.2v9.5h13.5l4.5-5.1
	l5.7,4.9c0.6,0.5,0.9,1.1,0.9,1.6c0,0.9-0.6,1.3-1.7,1.3H73.1l2.6,1.5c0.6,0.4,0.8,0.8,0.8,1.2c0,0.6-0.3,0.9-1.3,1.4l-1.8,0.8
	c-2.4,5.1-3,6.5-4.8,9.8h14.1l4.6-4.9l5.8,4.7c0.6,0.5,0.8,1.1,0.8,1.6c0,0.9-0.5,1.3-1.3,1.3H50.3c-0.7,0-2.8,0-5.7,0.1
	c-1,0.1-4,0.1-7.4,0.2L34.9,477.7z M60.4,497v-7.8H45.1v7.8H60.4z M45.1,507.5h15.3v-7.9H45.1V507.5z M66.5,478.1
	c1.6-4.1,2.6-8.3,3.5-14.5H48.4l3,3.2c3,3,4.4,5.5,4.4,8.1c0,1.4-0.3,1.9-1.3,3.3H66.5z M79.1,497v-7.8H64.2v7.8H79.1z M64.2,507.5
	h14.9v-7.9H64.2V507.5z M75.9,546.3c9.3,1.3,17,8.1,17,15.2c0,3-1.8,5.3-4.1,5.3c-0.6,0-1.4-0.4-1.8-0.9c-1-1.2-1-1.2-2.9-8.3
	c-1.8-4.8-3.7-7-8.7-10L75.9,546.3z M32.6,606.6l4.8,4c0.8,0.8,1.2,1.4,1.2,1.9c0,0.5-0.5,1-1,1H20.3c-1.4,0-1.6,0-10.4,0.2L8,610.5
	c2.7,0,6.5,0.1,12.3,0.3h8.3L32.6,606.6z M33.8,598.9c0.6,0.4,0.8,0.9,0.8,1.3c0,0.7-0.5,1.2-1,1.2H13.2v-2.6h12.1l3.9-4L33.8,598.9
	z M29.2,629.5l4.5,3.8c0.6,0.5,0.8,1,0.8,1.5c0,0.7-0.4,1.2-0.8,1.2H13.2v-2.6H25L29.2,629.5z M30.1,617.9l4.3,3.9
	c0.8,0.8,1.1,1.3,1.1,1.8s-0.5,1.1-1.2,1.1h-21v-2.6H26L30.1,617.9z M17,675.5c0,0.8-1.6,1.7-3,1.7c-0.4,0-0.6-0.3-0.6-0.6v-32.9
	l4.9,3.1h8.8l1.2-2.4l4.8,3.1c0.7,0.5,1,0.9,1,1.5c0,0.5-0.3,0.7-1,1l-2,0.8v19.8c0,1-1.2,1.6-2.9,1.6c-0.8,0-1.1-0.2-1.1-0.8v-2H17
	V675.5z M17,666.8h10v-17.3H17V666.8z M52,623.7l4.2,2.7c0.9,0.6,1.6,1.4,1.6,1.8s-0.5,1-1.2,1.3l-1.5,0.5
	c-1.8,9.9-4.3,18.8-7.5,25.6c3.6,5.7,6.6,8.5,11.3,10.4c4.3,1.7,11.8,2.8,19.7,2.8c4.1,0,7.4-0.2,14.8-1.1c-3.2,2.6-3.9,3.5-5.6,7.5
	c-24.3-1.1-34.1-4.9-41.7-16.4c-3.1,5.3-6,9.1-11.3,14.3c-3.5,3.4-6.6,5.8-7.6,5.8c-0.4,0-0.6-0.3-0.6-0.7c0-0.5,0.2-0.7,2-2.3
	c7.6-7.1,11.9-12.9,15.5-21c-2.3-5.1-3.1-7.8-5.5-16.5l3.6-2.2c0.7,7.4,1,8.4,3.1,15.3c2.9-8.3,3.6-11.2,5.2-22.6h-7.8l-1.5,3.2
	c-0.3,0.7-0.6,0.9-1.3,0.9c-1.6,0-2.8-0.6-2.8-1.3c0-0.2,0.1-0.5,0.3-0.8c5-11.3,7.8-19.3,10.1-27.5h-9.8v-2.6h10l1.8-2.7l4.3,3.2
	c0.7,0.5,1,1,1,1.5c0,0.5-0.3,0.7-0.9,1l-2.1,0.7c-1.1,3.1-1.5,4.1-2.4,6.6c-0.5,1.3-2,5.4-4.9,12.8l-1,2.4h6.8L52,623.7z
	 M60.3,616.3l5.6,1.2c1,0.2,1.6,0.7,1.6,1.2c0,0.4-0.4,1-0.9,1.2l-2.1,1.2v33.6h7.6v-51.3l-2,0.4l-6.2,1.2c-8.1,1.5-8.1,1.5-8.5,1.5
	c-0.6,0-0.9-0.3-0.9-0.9c0-0.4,0.3-0.7,0.9-0.9c10.9-2.6,22.4-6.7,29.4-10.4l4.1,3.6c1.4,1.3,1.4,1.3,1.4,1.6c0,0.4-0.3,0.5-1.7,0.6
	l-2.9,0.1c-0.8,0.2-1.5,0.4-1.9,0.5c-2.7,0.7-4.5,1.2-5.2,1.3c-0.2,0.1-1,0.3-1.8,0.4v23.9h4.8l4.6-5.9l4.8,5.2c0.6,0.8,1,1.5,1,1.9
	c0,0.9-0.6,1.4-1.4,1.4H76.7v26h5.7l5-6l4.7,5.6c0.7,0.9,1,1.5,1,1.8c0,0.8-0.6,1.2-1.6,1.2H63c-0.6,0-1.9,0.1-4,0.2
	c-0.7,0-3,0.1-5.5,0.2l-2.1-3.4l7.6,0.4h1.4V616.3z M49.1,715H28.8c-4.8,9.7-7.6,14.4-11.8,20.1c-2.5,3.3-4.8,5.6-5.6,5.6
	c-0.6,0-0.9-0.4-0.9-1c0-0.4,0.2-0.8,0.7-1.5c9-12,15.8-28.1,19-45.2l8.3,3c0.6,0.2,1,0.8,1,1.3c0,0.5-0.4,0.9-0.9,1.1l-3.5,1.2
	c-2.1,5.8-2.9,8-5.2,12.8h19.2V688l8.4,1.1c0.7,0.1,1.3,0.9,1.3,1.6c0,0.7-0.4,1.3-0.8,1.5l-3.8,1.7v18.4h20.1l5.7-6.1l6.7,6.1
	c0.4,0.3,0.6,1,0.6,1.5c0,0.7-0.4,1.2-0.9,1.2H54.2v21.8h15.8l5.3-5.8l6.6,5.8c0.6,0.5,0.8,1.1,0.8,1.6s-0.6,1-1.2,1H54.2v26.3h24.4
	l5.7-5.8l6.6,5.5c0.6,0.6,1,1.2,1,1.6c0,0.8-0.6,1.3-1.4,1.3H26.7c-3.5,0-6.6,0.1-15.1,0.4l-2.3-3.5c8.9,0.4,12.5,0.5,17.4,0.5h22.4
	v-26.3H36.6c-3,0.1-3.8,0.1-9.6,0.3l-2.9-3.3l7.7,0.3c2.2,0.1,4.4,0.1,4.7,0.1h12.5V715z M94,795.2c0,6.2-4.7,11.2-10.6,11.2
	c-5.8,0-10.5-4.9-10.5-11.2s4.8-11.1,10.7-11.1C89.3,784.2,94,789.2,94,795.2z M75.8,795.2c0,4.5,3.4,8.1,7.6,8.1
	c4.2,0,7.6-3.6,7.6-8.1s-3.4-8-7.7-8C79.3,787.3,75.8,791,75.8,795.2z M233.4,0.2H0.4v826h233V0.2z"/>
</svg>
