<svg id="レイヤー_1" data-name="レイヤー 1" xmlns="http://www.w3.org/2000/svg" width="203.15mm" height="142.34mm" viewBox="0 0 575.87 403.48">
  <defs>
    <style>
      .cls-1 {
        fill: #fff;
      }
    </style>
  </defs>
  <path class="cls-1" d="M88.05,60c0,1.6-1,2.78-2.23,2.78s-2.08-.76-3.36-3.11A43.74,43.74,0,0,0,76,50.7,76.1,76.1,0,0,1,51.84,72.41C47.12,75.1,40.41,78,38.81,78a.81.81,0,0,1-.8-.67c0-.42.16-.51,1.6-1.18,12.07-5.39,25.82-17.25,33.1-28.53a57.19,57.19,0,0,0-15.35-10c-1-.42-1-.42-1-.76a.46.46,0,0,1,.48-.42A35.77,35.77,0,0,1,62,37.65a48.33,48.33,0,0,1,12.95,6.48c4-6.65,6.4-12.62,6.4-15.9,0-1.86-.88-3.45-2.8-5.22-.16-.17-.24-.25-.24-.42,0-.34.48-.68,1-.68,2.24,0,8.79,5.39,8.79,7.24a1.71,1.71,0,0,1-.56,1.26,8.39,8.39,0,0,0-.8,1.52A121.23,121.23,0,0,1,78.54,47C84.62,52.29,88.05,57.09,88.05,60ZM136.34,78c0,1.86-.64,2.95-1.76,2.95a9.54,9.54,0,0,1-3.11-.84c-1.12-.51-1.52-1.1-1.52-2a20.83,20.83,0,0,1,.32-2.69,262.71,262.71,0,0,0,1.84-28.53c0-2.69-.16-3.37-1.44-5.13-7.6,8.16-14.87,14.13-21.59,17.84-2.64,1.43-7.11,3.45-7.75,3.45-.24,0-.64-.26-.64-.42s.16-.34.48-.51c12.71-5.89,37.09-32.31,37.09-40.14,0-1-1.52-2.36-3.12-2.69a.37.37,0,0,1-.4-.34c0-.42,1.84-1.09,2.8-1.09,3,0,8.64,4.12,8.64,6.31,0,.5-.17.67-.88.92-1.2.68-1.36.76-2.8,2.78-3.52,4.46-7.84,9.68-10.63,12.71,3.83,1.85,5.19,2.69,5.19,3.36a2.54,2.54,0,0,1-.32.93c-.56,1.18-.8,3.45-.8,7,0,12,.08,21,.32,23.48ZM191,31.09a50.19,50.19,0,0,0,9.27-1.35A11.43,11.43,0,0,0,204,28.06c.64-.51.87-.59,1.28-.59.63,0,.63,0,3.35,2.19,1.76,1.43,2.64,2.35,2.64,2.69s-.16.51-.56.76a5.56,5.56,0,0,0-1.6,1.26c-.56.59-.72.93-2.72,4.63C197.9,55.07,186.87,66.6,173,73.92,169,76.11,161,79.39,159.77,79.39a1.23,1.23,0,0,1-1.12-1.09c0-.17,0-.17,1.44-.76,8.07-3,19.82-11.19,27.5-19.27a70.07,70.07,0,0,0,14.07-20.62,18.36,18.36,0,0,0,1.6-4.71c0-.67-.48-1-1.36-1a19.34,19.34,0,0,0-3.68.59c-2.88.59-6.71,1.26-7.27,1.26-.8,0-1.76-.5-3.36-1.93C182.63,40,176.32,47.08,170,51.7c-2.48,1.77-5.59,3.62-6.07,3.62a.8.8,0,0,1-.8-.67c0-.25.24-.5,1-1,4.15-2.86,8-6.82,12.63-13.13,5.35-7.07,7.91-12.28,7.91-16a5.2,5.2,0,0,0-2.88-4.88c-.16-.08-.4-.25-.4-.33,0-.26.64-.42,1.84-.42,1.92,0,3.2.5,5.52,2.27,2.08,1.51,2.8,2.44,2.8,3.45a1.49,1.49,0,0,1-.4,1,7.32,7.32,0,0,0-.64.92c-.32.59-.64,1.1-2.08,3.87A3.88,3.88,0,0,0,191,31.09ZM251.28,36c0,6.89-2.54,14.92-7.09,22.21-4.7,7.54-9.7,11.92-13.86,11.92-5,0-9.4-7.21-9.4-15.56a30.87,30.87,0,0,1,8.63-21.16,30.48,30.48,0,0,1,22.64-9.81c14.41,0,25,10.21,25,24,0,12.65-7.17,23-19.26,27.81-3.31,1.38-8.86,2.92-10.24,2.92a.9.9,0,0,1-.85-1c0-.41.31-.57,1.15-.73a44.49,44.49,0,0,0,11.48-4.87c8-5.27,12.17-13.94,12.17-25.21,0-7.54-2.23-12.81-6.93-16.54a19.94,19.94,0,0,0-12.63-4.29,8.87,8.87,0,0,0-2,.16C251.05,31.58,251.28,33.61,251.28,36Zm-3.93-10c-7.16,1.86-11.94,4.86-16,10.13A31.42,31.42,0,0,0,225,55.34c0,5.43,2.31,10.13,5.09,10.13,3.69,0,9.63-6.32,13.55-14.59,2.93-6,4.93-13.54,4.93-18.24a15.31,15.31,0,0,0-1-6.16Zm62.39,10.62a8.42,8.42,0,0,0,1.15.08c3.93,0,9.71-1.62,12.33-3.4a7.88,7.88,0,0,0,1.15.64l.77.49c2.16,1.3,2.7,1.78,2.7,2.84,0,1.62-2.93,2.27-9.71,2.27a31.84,31.84,0,0,1-8.31-.89l.07,1.29c.46,10.62.54,11.6,2.24,23.92,10,3.32,16.94,8,16.94,11.59a2.73,2.73,0,0,1-2.69,2.76c-1.16,0-1.93-.49-3.39-2.27-3.55-4.38-6.7-6.81-10.32-8-.39,3.33-1,5.27-2.39,7.14-1.85,2.59-6.16,4.29-10.86,4.29-8.24,0-14.95-4.13-14.95-9.24,0-4.62,5.7-7.94,13.79-7.94a62.39,62.39,0,0,1,9.86,1.21,202.71,202.71,0,0,1-2.39-29.59c0-1.54,0-2.67.08-4.62V27.77c0-3.08-.62-4.86-2.08-6a6.1,6.1,0,0,0-2.85-1.13l-1.31.08c-.15,0-.31-.24-.31-.4,0-.74,4-2.68,5.55-2.68,2.39,0,6.78,3.16,6.78,4.86a8.25,8.25,0,0,1-.39,1.87,36.34,36.34,0,0,0-1.46,10.46Zm-1.47,29.83c-5.08-1.46-7.16-1.78-10.62-1.78-6.09,0-9.79,2-9.79,5.35s4.55,5.76,10.86,5.76c6.55,0,9.55-2.76,9.55-8.84ZM345.4,39.37A9.58,9.58,0,0,0,346,42.2a3.06,3.06,0,0,0,3,1.87c1.31,0,2.08-.33,5.7-2.43,5.93-3.41,9.47-4.71,12.86-4.71,6.16,0,11.09,6.57,11.09,14.84,0,9.57-3.77,18.16-10.55,23.83a45.07,45.07,0,0,1-16.87,8.6l-1.15.24a3.31,3.31,0,0,1-.77.16.71.71,0,0,1-.7-.73c0-.4.23-.56.7-.64a40.9,40.9,0,0,0,11.63-6A29.86,29.86,0,0,0,370.66,66a36.37,36.37,0,0,0,3-14c0-7.45-3.08-12.89-7.24-12.89s-9.09,3.17-14.41,8.92a4.36,4.36,0,0,1-3,1.54c-2.54,0-5.47-3.65-5.47-6.81,0-1.86.92-4.46,1.62-4.46a.29.29,0,0,1,.3.33.54.54,0,0,1-.07.32Zm14.25-13.79c-3.55,0-7.09-4-7.09-7.86,0-1.86.16-2.35.62-2.35.15,0,.23.08.23.57a5.73,5.73,0,0,0,1.92,3.81c1.85,1.86,4.39,2.67,8.32,2.67.93,0,2.39-.08,3.32-.16a4.59,4.59,0,0,1,.92-.08c1.77,0,3.54,2.11,3.54,4.22a1.92,1.92,0,0,1-2,1.7,3.1,3.1,0,0,1-.77-.08,22.65,22.65,0,0,0-13.4,1.78c-.16.16-.23.16-.31.16a.43.43,0,0,1-.39-.4c0-.33,1.78-1.62,4.93-3.57l.31-.16c.08-.08.16-.08.39-.25Zm39.89-2.83a8.73,8.73,0,0,1,2.7,6.32c0,2.84-.39,4.46-2.23,8.84a51.28,51.28,0,0,0-4.24,19.78c0,4.54,1,8.67,2.08,8.67.46,0,.77-.57,1.39-2.51.77-2.43,2.31-6.89,3.31-9.57.08-.24.23-.56.31-.89.15-.57.3-.65.61-.65s.77.25.77.65a2.75,2.75,0,0,1-.23,1c-1.38,3.49-2.77,12-2.77,17a8.73,8.73,0,0,0,.54,3.48,3.75,3.75,0,0,1,.46,1.46,2.07,2.07,0,0,1-2,2c-3.7,0-7.71-10.3-7.71-19.78,0-5.92.85-12.08,2.93-20.92,1.23-5.19,1.54-7.13,1.54-10.13,0-3.57-.46-5.11-2-6.81a.94.94,0,0,1-.31-.49c0-.16.23-.32.46-.32C396,19.75,398.16,21.21,399.54,22.75ZM416.34,55a.65.65,0,0,1-.08.33,14.1,14.1,0,0,0-.31,2.92,8.89,8.89,0,0,0,2,5c2.24,2.68,5.93,3.89,11.4,3.89A36.89,36.89,0,0,0,439,65.79a12.57,12.57,0,0,1,3-.48,3.45,3.45,0,0,1,3.15,3.08c0,2.27-4.23,3.73-10.63,3.73a58.72,58.72,0,0,1-11.63-1.22c-5.16-1.62-8.39-5.83-8.39-10.86,0-3.41.54-5.51,1.38-5.51A.52.52,0,0,1,416.34,55Zm0-25c1.38,2,2.92,2.6,6.47,2.6,3.92,0,7.08-.65,11.94-2.35a7.05,7.05,0,0,1,2.15-.57c1.31,0,3.54,2.11,3.54,3.32s-1.07,1.71-4.23,2.27a72.54,72.54,0,0,1-10.25,1,11.9,11.9,0,0,1-8.32-2.76c-1-.89-2.15-2.59-2.15-3.33a.42.42,0,0,1,.38-.4A.57.57,0,0,1,416.34,30ZM49,111.77h8.44l2-2.41,4.18,3.24a1.67,1.67,0,0,1,.71,1.16c0,.33-.23.58-.71.83l-1.42.75v51.79c0,1-1.73,2.16-3.24,2.16-.47,0-.63-.25-.63-.91v-3.83h-10V172c0,.5-.23.83-.86,1.16a5.14,5.14,0,0,1-2.14,1c-.47,0-.63-.33-.63-1.08V108.94Zm-.64,32.5h10V130.8h-10Zm0,2.25v15.79h10V146.52Zm10-32.51H48.53v14.55h9.79Zm27.4,52.21H76.88c-2.53,0-4.42.08-8.92.25l-1.82-2.83c5.37.25,7.5.33,10.58.33h9v-7.15H72.62v2.25a2.47,2.47,0,0,1-2.45,2.24c-.56,0-.71-.25-.71-.83v-25.6l3.71,1.83h28l1.19-2.08,4.26,2.82c.47.42.79.75.79,1s-.24.58-.71.83l-1.26.83v17.13c0,.91-1.74,2-3.16,2a.43.43,0,0,1-.48-.49v-1.92H89V164h11.21l3.56-3.57,4.66,3.32a2.35,2.35,0,0,1,.94,1.42c0,.58-.47.91-1.26.91H89v8.23h15.4l4.18-4.16,4.9,3.91c.79.67,1.18,1.17,1.18,1.66s-.55.84-1.26.84H73.64c-1,0-2.92,0-5.13.08l-5.45.25L60.14,174c7,.25,9.79.33,13.5.33H85.72ZM63.85,129.06c3.71.08,7,.16,8.21.16,2.45.09,4.19.17,5,.17h1.1c-.16-.66-.31-1.25-.39-1.5-.16-1.16-.4-2.32-.63-3.49a19.55,19.55,0,0,0-3.79-7.48c-1.58,0-2.45.08-5.22.17l-1.81-2.75c6.08.25,8.13.34,10.34.34h8.85V103l5.44.92c.79.08,1.19.42,1.19.83s-.24.58-.71.83l-2,1v8.15H101l3.87-4.41,4.9,4.24a1.75,1.75,0,0,1,.79,1.33c0,.75-.48,1.08-1.42,1.08H96.62l2.21,1.25c.48.33.71.66.71,1s-.23.74-1.1,1.16l-1.58.67c-2.06,4.4-2.61,5.56-4.11,8.39h12.08l4-4.24,5,4a1.92,1.92,0,0,1,.71,1.41,1,1,0,0,1-1.11,1.09H77c-.63,0-2.37,0-4.9.08-.87.08-3.39.08-6.32.16ZM85.72,145.6V139H72.62v6.65Zm-13.1,9h13.1v-6.73H72.62Zm18.31-25.19a56,56,0,0,0,3-12.47H75.38l2.6,2.74c2.61,2.58,3.8,4.74,3.8,6.9a3.92,3.92,0,0,1-1.11,2.83Zm10.82,16.21V139H89v6.65Zm-12.79,9h12.79v-6.73H89ZM148.3,150c.31,3.89.47,5.91.47,7.86,0,3.08-.93,4.21-3.47,4.21-.85,0-1.23-.24-1.23-.89a2,2,0,0,1,.07-.56c.16-1.38.31-4.54.39-8.76-7.09,4.78-9.55,7.62-9.55,11.35,0,2.11,1.62,4.05,4.08,4.86a25.54,25.54,0,0,0,8,.89,38.33,38.33,0,0,0,11.25-1.54,8.26,8.26,0,0,1,1.77-.24c1.54,0,3.23,1.38,3.23,2.6,0,1.37-1.61,2.59-3.69,2.91a92.82,92.82,0,0,1-10.94,1c-10.4,0-16.79-3.65-16.79-9.65,0-3.32,1.69-6.32,4.93-8.84a75,75,0,0,1,7.7-5v-.57a62.16,62.16,0,0,0-.62-7.22c-.61-3.4-2-5.18-4.16-5.18-3.31,0-7.93,4.45-12.09,11.59-.85,1.46-1.31,1.86-2.16,1.86-.61,0-1-.32-1.54-1.37a7.13,7.13,0,0,1-1.07-2.84c0-.81.23-1.22,1.15-2,8.4-7.38,13.71-15.65,15.18-23.43a28.9,28.9,0,0,1-6.78,1.46c-1.39,0-3-1.22-4-3.08a8.68,8.68,0,0,1-1-2.51c0-.08.15-.25.23-.25s.31.17.54.49c.92,1.38,2.23,1.87,4.62,1.87a20.83,20.83,0,0,0,6.78-1.3,16.16,16.16,0,0,0,.15-2.43c0-2.44-1.54-4.3-3.62-4.3-.15,0-.23-.08-.23-.16,0-.81,2-1.87,3.39-1.87a5.14,5.14,0,0,1,5,4.7,8.44,8.44,0,0,1-.62,3.08,12.94,12.94,0,0,0,5.16-2.75,8.48,8.48,0,0,0,1.47.81c1.23.65,1.54,1,1.54,1.46,0,.65-.85,1.13-3.16,1.94-.23.09-1,.33-2.08.73-1.31.41-1.93.65-3.47,1.14a86.64,86.64,0,0,1-8.7,17.19c3.23-1.38,4.08-1.63,5.62-1.63a7.29,7.29,0,0,1,5.78,3.49c.85,1.14,1.15,2.11,1.39,4.38,4.62-10.87,11.24-17,18.48-17,5.09,0,9.4,3.33,9.4,7.22a5.57,5.57,0,0,1-1.77,4.05c-.93.81-.93.81-6.16,3.16-6.17,2.76-9.56,4.3-10.25,4.63-1.46.72-2.16,1.05-6.32,3.32Zm1.16-3.41c19-10.7,20.26-11.51,20.26-13.78s-2.47-4.06-5.32-4.06c-3.77,0-8.47,3.49-11.71,8.68a49.56,49.56,0,0,0-4.46,9.4c-.08.33-.16.57-.16.57ZM181.92,149c8.68.41,12.08.5,15.79.5h17.37v-9.06l6.32.83a1.06,1.06,0,0,1,1,1c0,.41-.16.66-.64.91l-2.21,1.16v5.16H242.8l3.79-4.16,5.21,3.83a1.74,1.74,0,0,1,.87,1.41,1.17,1.17,0,0,1-1.19,1.16H222.11a33.11,33.11,0,0,0,8,10.14l1.11-1c5.76-5.24,5.76-5.24,7.82-7.82l4.1,3.41c.63.58.79.83.79,1.17,0,.58-.23.83-.79.83l-2.84.08c-3.63,1.75-5.61,2.58-9.4,4.16,4.5,4.15,14.45,8.89,22.51,10.72-3.24,1.5-4.27,2.49-5.29,4.82-12.64-5.15-21.8-13.88-28-26.52H216.9a12.36,12.36,0,0,1-1.27,1l-3.55,2.83a11.84,11.84,0,0,0-1.34,1.16v15c3.08-.41,11.92-2,16.11-2.91l.31,1.5c-3.31.91-4,1.16-9.47,2.5-1.34.41-2.69.74-4.11,1.08l-2.68.66c-4.74,1.25-8.3,2.08-10,2.49-.95.25-2,.5-2.93.67l-1.18,1.75c-.55.74-.87,1-1.34,1s-.87-.25-1.19-.91l-2.76-5.82c3-.08,10.34-.75,15.24-1.41V159.73c-5.69,4-12.87,7.73-22.66,11.64-1.74.75-1.74.75-2.13.75a.65.65,0,0,1-.72-.58c0-.58.48-1,2.29-1.83,8.93-3.91,23.14-13.38,26.93-18H197.71c-4,0-6.79.09-13.5.42Zm19.18-45.14,5.29.91c1,.17,1.35.5,1.35,1.09,0,.33-.24.58-1,1l-1.74,1V144.1c0,.92-1.66,1.83-3.16,1.83-.47,0-.79-.41-.79-1.08V125.9c-2.21,1.58-2.68,1.91-4.73,3.24l-6,4-1.66,1.08-.79,3.16c-.08.58-.4.92-.79.92a1.78,1.78,0,0,1-1.11-.67l-3.87-5.15a171.62,171.62,0,0,0,18.95-8.4Zm-16.42,4c6.4,3.24,9.55,6.73,9.55,10.64,0,1.66-.79,2.74-2,2.74s-1.34-.08-2.68-4.15c-1.27-3.49-2.29-5.07-5.45-8.4Zm40.82-4L231,105c.56.17.87.34.87.75s-.16.58-.63.83l-1.5.92v8.56h12.87l3.63-4.07,4.9,3.65c1,.75,1.1.84,1.1,1.42a1.14,1.14,0,0,1-1.18,1.24H229.77v16.46h10.34l4.11-4.07,5.53,4.07a1.63,1.63,0,0,1,.71,1.25c0,.67-.48,1-1.19,1H220.85c-2.06,0-3.95.08-8.85.25l-1.81-2.83c6,.25,8.29.33,10.81.33h4.5V118.33h-8c-2.84,0-4.74.09-9,.25l-1.74-2.82c5.45.25,7.74.33,10.74.33h8Zm40.35,27.35a9.64,9.64,0,0,0,.61,2.84,3.07,3.07,0,0,0,3,1.86c1.31,0,2.08-.32,5.7-2.43,5.93-3.41,9.47-4.7,12.86-4.7,6.16,0,11.09,6.56,11.09,14.83,0,9.57-3.77,18.16-10.55,23.84a45.06,45.06,0,0,1-16.87,8.59l-1.15.24a3.31,3.31,0,0,1-.77.16.71.71,0,0,1-.7-.72c0-.41.23-.57.7-.65a40.65,40.65,0,0,0,11.63-6,29.78,29.78,0,0,0,9.7-11.19,36.14,36.14,0,0,0,3-13.94c0-7.46-3.08-12.89-7.24-12.89-4,0-9.09,3.16-14.41,8.91a4.32,4.32,0,0,1-3,1.54c-2.54,0-5.47-3.64-5.47-6.81,0-1.86.92-4.45,1.62-4.45a.29.29,0,0,1,.31.32.48.48,0,0,1-.08.32Zm14.25-13.78c-3.54,0-7.09-4-7.09-7.87,0-1.86.16-2.35.62-2.35.15,0,.23.08.23.57a5.73,5.73,0,0,0,1.92,3.81c1.85,1.86,4.4,2.67,8.32,2.67.93,0,2.39-.08,3.32-.16a4.59,4.59,0,0,1,.92-.08c1.77,0,3.54,2.11,3.54,4.22a1.92,1.92,0,0,1-2,1.7,3.1,3.1,0,0,1-.77-.08,22.65,22.65,0,0,0-13.4,1.78c-.16.16-.23.16-.31.16a.43.43,0,0,1-.39-.4c0-.33,1.78-1.62,4.93-3.57l.31-.16c.08-.08.16-.08.39-.24Zm46.6,47.67a8.71,8.71,0,1,1-8.55-9.17C322.77,155.94,326.7,160.16,326.7,165.11Zm-15.1,0a6.32,6.32,0,1,0,6.24-6.65A6.52,6.52,0,0,0,311.6,165.11Zm-269.15,77,6.32.25c2,.08,4.18.08,4.26.08h6.48V232.24H51.85c-2.61,0-4.42.08-8.85.25l-1.73-2.83c5.84.25,8,.33,10.58.33H65.59a75,75,0,0,0,4.1-13.8l4.5,2.08c.72.33,1,.58,1,1.08a.74.74,0,0,1-.55.83l-1.66.58L67.4,230h6l4-4,4.11,3.83a1.59,1.59,0,0,1,.71,1.24c0,.75-.32,1.17-1,1.17H63.22v10.22h9.63l3.71-3.91,4.19,3.58a2.31,2.31,0,0,1,1,1.74.79.79,0,0,1-.87.83H63.22v4.49c11.13,3.33,15,5.57,15,8.65,0,1.33-.87,2.41-1.81,2.41-.56,0-1.27-.5-2.37-1.75-2.85-3.32-5.14-5-10.82-7.89V273.8a2,2,0,0,1-1,1.91,4.43,4.43,0,0,1-2,.75c-.48,0-.71-.33-.71-1V250.77A54.13,54.13,0,0,1,47,266.15c-2.76,2.5-5.6,4.58-6.16,4.58a.71.71,0,0,1-.55-.67c0-.25.24-.5.79-1A81.59,81.59,0,0,0,59.35,244.7H53c-1.73,0-3.47.09-8.53.25Zm17.29-41.65,5.29,1c1.19.25,1.66.58,1.66,1.24a1,1,0,0,1-.71,1l-2.29,1v7.57h7l3.87-3.91,4.82,3.82a1.81,1.81,0,0,1,.79,1.5c0,.58-.24.83-.64.83H53.74c-.55,0-2.13.08-4.34.17-.63,0-2.45.08-4.5.16L43.08,212c3.71.17,6.48.25,10.66.34h6Zm-9.08,15.71a28.92,28.92,0,0,1,4.66,4.24,10,10,0,0,1,2.13,5.49c0,1.58-1.1,3-2.36,3s-1.43-.58-2.14-4.57a24.21,24.21,0,0,0-2.84-7.73Zm38.7-5.49A51.71,51.71,0,0,0,106.49,204l5,3.83c.47.33.71.66.71.91s-.24.5-.71.5l-2.45.08c-9.24,1.91-10,2.08-20.38,3.58V230h16.67l3.71-4,4.82,4a1.61,1.61,0,0,1,.78,1.25c0,.66-.39,1-1.1,1H103.18v42c0,1-1.9,2.49-3.16,2.49-.56,0-.87-.33-.87-1V232.24H88.64c-.71,16.12-1.65,21.61-4.81,27.59a34.72,34.72,0,0,1-10.11,11.81q-3.8,2.75-4.5,2.74a.78.78,0,0,1-.63-.75c0-.33,0-.33,1.89-1.91,10.82-9.56,14.14-18.78,14.14-39.57,0-3.41,0-4.15-.32-19.53l-.16-4.74Zm44.36,6.07a19.31,19.31,0,0,1-.84,4.86c-1.54,6.41-3.55,23.11-3.55,29.43,0,4.46,1.24,8.51,3.24,11.11s5.55,4.05,10.32,4.05a24.12,24.12,0,0,0,15-5.11,52,52,0,0,0,7.78-7.29c.93-1.22.93-1.22,1.08-1.22s.31.25.31.57c0,1.46-.93,3.16-3.32,6.16-6.31,7.78-12.78,11.19-21.33,11.19-5.47,0-9.71-1.87-12.63-5.51-2.7-3.41-3.85-7.79-3.85-14.43,0-3.57.92-19.06,1.61-27.33.23-2.83.39-5.26.39-6.72,0-4.46-1.23-7-3.55-7-.53,0-.69-.08-.69-.32,0-.73,1.31-1.38,2.85-1.38C130,207.85,133.72,212.39,133.72,216.77Zm49.61,4.86a25,25,0,0,1-.7,5.19A60.78,60.78,0,0,0,181,240.28c0,5.67,1.24,10.62,3.39,13.62,1.54,2.11,3.32,3.57,4.47,3.57s1.23,0,5.62-10.54c2.08-5,2.32-5.43,2.78-5.43a.85.85,0,0,1,.61.64c0,.17,0,.17-.38,1.38-2.24,6.41-3.39,11.19-3.39,14.35a7.09,7.09,0,0,0,1.69,4.62c.31.33.39.49.39.73,0,.81-1.23,1.79-2.31,1.79-3.47,0-8.24-2.84-10.71-6.41-4-5.67-5.7-12.16-5.7-22.05,0-3.08.16-7.46.46-10.21.16-1.87.24-3.25.24-4.22,0-3.57-2-6.57-4.47-6.65-.46,0-.62-.08-.62-.32,0-.41,1.08-.73,2.39-.73C179.63,214.42,183.33,217.82,183.33,221.63Zm27.42,8.11a2.41,2.41,0,0,1-.62.08.37.37,0,0,1-.38-.4c0-.65,1.23-1,3.62-1a17.69,17.69,0,0,1,12.17,4.79c3.23,3.08,5.62,7.94,5.62,11.51,0,2.92-1.7,5.11-3.93,5.11-1.39,0-1.77-.65-1.77-2.76-.08-9.49-6.47-17.35-14.25-17.35Zm38.82,44.64c0,1.08-.16,1.33-1.26,2.16-1.66,1.17-1.66,1.17-2.21,1.17s-.71-.33-.71-.83v-64l5,2.66h10.9a124.34,124.34,0,0,0,1.66-13.64l6.55,1.75a1.3,1.3,0,0,1,.95,1.16c0,.42-.32.67-1,.92l-2.05.66-3.55,9.15h18.47l1.5-2.75,5.77,2.75a1.43,1.43,0,0,1,.87,1.16c0,.33-.4.75-.95,1L287,218.85V272c0,.83-.16,1.08-.95,1.58a6.74,6.74,0,0,1-2.6,1.08c-.48,0-.71-.33-.71-1v-3.82H249.57Zm33.17-41V217.77H249.57V233.4Zm-33.17,16.88h33.17V235.64H249.57Zm0,17.29h33.17v-15H249.57Zm69.65-54.37c-5.21,11.72-9.55,18.2-16.82,25-3.23,2.91-5.76,4.91-6.31,4.91-.32,0-.55-.34-.55-.75,0-.25.07-.34,1-1.25,9.16-8.73,14.14-17.37,19.35-33.25l4.74,2.91c.86.5,1.26,1,1.26,1.5s-.32.74-1.34.83Zm8.61,24.61c-2.29,20.28-10,31.59-26.06,38.07a9.55,9.55,0,0,0-1.18.41.55.55,0,0,1-.32.09.79.79,0,0,1-.79-.67c-.08-.5.32-.83,1.5-1.33,14-7.4,20.69-18.37,22.35-36.57H321c-5,0-6.63,0-12.55.24l-1.11-2.9c6.63.41,7.19.41,13.66.41h26.22l1.58-1.41,3.87,3.16c.86.66,1.34,1.24,1.34,1.66s-.55.75-1.5.91l-1.42.25c-1.19,14.88-3,26-4.9,30.1-1.1,2.41-2.92,3.9-6.39,5.15a11.2,11.2,0,0,1-3.56.83c-.63,0-.87-.33-.87-1.25-.23-3.24-.23-3.32-3.47-4.65l-4-1.75.32-1.33,5.13,1.33a26.59,26.59,0,0,0,5.53.84c3.16,0,4.74-2.08,5.84-7.65a205.31,205.31,0,0,0,3-23.94Zm-6.16-31.51c5.14.25,6.4.33,10.5.33H340l2.13-3.24,3.56,3.08c.95.83,1.42,1.41,1.42,1.74,0,.5-.55.92-1.58,1.16l-3,.92c4.26,12.3,12.16,21.7,22.74,27.1a13.22,13.22,0,0,0-5.45,4.16c-8.45-6.82-16.5-20.12-19.82-32.67h-7.82c-3.39,0-4.89.08-9.23.25Zm58.3,6.82a8.75,8.75,0,0,1,2.7,6.32c0,2.84-.38,4.46-2.23,8.84a51.31,51.31,0,0,0-4.24,19.78c0,4.54,1,8.68,2.08,8.68.46,0,.77-.57,1.39-2.52.77-2.43,2.31-6.89,3.31-9.56.08-.25.23-.57.31-.89.15-.57.31-.65.61-.65.46,0,.77.24.77.65a2.8,2.8,0,0,1-.23,1c-1.38,3.48-2.77,12-2.77,16.94a8.82,8.82,0,0,0,.54,3.49,3.66,3.66,0,0,1,.46,1.46,2.07,2.07,0,0,1-2,2c-3.7,0-7.7-10.29-7.7-19.78,0-5.92.84-12.08,2.92-20.91,1.23-5.19,1.54-7.14,1.54-10.14,0-3.56-.46-5.1-2-6.81-.23-.24-.31-.4-.31-.48s.23-.33.46-.33C376.43,210.12,378.59,211.58,380,213.12Zm16.8,32.27a.6.6,0,0,1-.08.32,14.91,14.91,0,0,0-.31,2.92,9,9,0,0,0,2,5c2.24,2.67,5.93,3.89,11.4,3.89a37.32,37.32,0,0,0,9.63-1.38,12.17,12.17,0,0,1,3-.49,3.45,3.45,0,0,1,3.15,3.08c0,2.27-4.23,3.73-10.63,3.73a59.6,59.6,0,0,1-11.63-1.21c-5.16-1.62-8.39-5.84-8.39-10.87,0-3.4.54-5.51,1.38-5.51A.51.51,0,0,1,396.77,245.39Zm0-25c1.38,2,2.92,2.59,6.47,2.59,3.93,0,7.08-.65,11.94-2.35a7.05,7.05,0,0,1,2.15-.57c1.31,0,3.55,2.11,3.55,3.33,0,1.05-1.08,1.7-4.24,2.27a74,74,0,0,1-10.25,1,11.81,11.81,0,0,1-8.31-2.76c-1-.89-2.16-2.59-2.16-3.32a.43.43,0,0,1,.38-.41C396.54,220.17,396.61,220.25,396.77,220.42ZM51.37,372.82a1.12,1.12,0,0,1-.79,1.25,15.9,15.9,0,0,1-2.76.5c-.63,0-1-.42-1-1.33V339.57l5.37,1.5c1.42.33,1.9.66,1.9,1.41,0,.33-.24.66-.87,1l-1.9,1.08V365H75V332H55.24v3c0,1-.31,1.33-1.34,1.83a5.1,5.1,0,0,1-1.74.41c-.94,0-1.18-.25-1.18-1.16V306.57l4.66,1.08c1.5.41,2.13.83,2.13,1.49a1.18,1.18,0,0,1-.47.92l-2.06,1.41v18.29H75V302l5.69,1.49c.79.25,1.34.67,1.34,1.08s-.23.67-.71,1l-2,1.16v23H99.86V306.24l5.92,1.57c.87.25,1.5.75,1.5,1.17s-.31.66-.71.91l-2.45,1.17v23.69c0,1,0,1.08-.71,1.5-2,1-2,1-2.76,1-.55,0-.79-.33-.79-1.16V332H79.25v33h24.24V340.15l4.9,1c1.18.17,1.73.58,1.73,1.16a1,1,0,0,1-.39.83l-2,1.25v27.19c0,1.16-.15,1.57-.78,2a5.88,5.88,0,0,1-2.61.83.94.94,0,0,1-.87-.83v-6.32H51.37ZM154,301.25a1.14,1.14,0,0,1,.72.91.8.8,0,0,1-.72.83l-2.05.17c8.14,11.14,18.87,19.12,34.27,25.52-3.16,1-3.55,1.33-6.16,4.49-3.39-1.5-14.13-9.73-18.32-14.05a94.3,94.3,0,0,1-11.68-14.88c-6.79,10.06-12.64,16.29-21.09,22.53-6.31,4.74-12.08,8.06-13.82,8.06-.39,0-.63-.16-.63-.5,0-.58.63-1.24,2-2.16,13.26-8.56,23.13-19.37,31.11-33.92Zm23.06,38.32,5.45,4.82a1.9,1.9,0,0,1,.71,1.33,1,1,0,0,1-1,1H146.3c-4.35,9.06-5.45,11.22-9.08,18.12,10.66-.41,23.29-1.25,29.92-2-3.08-3.41-4.5-4.58-9.71-8.32l.79-1.08A52,52,0,0,1,172,361.52c4,3.32,5.68,5.9,5.68,9,0,1.75-.86,2.91-2.21,2.91-1.1,0-2-.83-3.08-2.91a33.48,33.48,0,0,0-3.71-5.73c-11.92,1.83-33,4.49-41.93,5.32l-.55,1.58a1.86,1.86,0,0,1-1.5,1.41c-.55,0-1.18-.58-1.74-1.49l-3.47-6.32c8.13-.09,9.79-.17,15.32-.34,2.13-6.31,3.79-11.72,5.45-18.2H128.13c-2.6,0-2.68,0-11.84.33l-1.74-3c6.48.33,9.16.41,13.58.41h44.7Zm-15.87-14.46,5.45,4.48a2.07,2.07,0,0,1,.55,1.33.9.9,0,0,1-.87.92H139.74c-2.29,0-4.26.08-8.92.25l-1.58-3c6,.25,8.13.33,10.5.33H157.9Zm35.69,3.15a9.33,9.33,0,0,0,.61,2.84,3,3,0,0,0,3,1.86c1.31,0,2.07-.32,5.69-2.43,5.94-3.4,9.48-4.7,12.87-4.7,6.16,0,11.09,6.57,11.09,14.84,0,9.56-3.77,18.16-10.55,23.83a45.06,45.06,0,0,1-16.87,8.59l-1.16.25a3.21,3.21,0,0,1-.77.16.71.71,0,0,1-.69-.73c0-.4.23-.57.69-.65a40.27,40.27,0,0,0,11.63-6,29.9,29.9,0,0,0,9.71-11.19,36.28,36.28,0,0,0,3-13.94c0-7.46-3.08-12.89-7.24-12.89-4,0-9.09,3.16-14.4,8.92a4.38,4.38,0,0,1-3,1.54c-2.55,0-5.47-3.65-5.47-6.81,0-1.87.92-4.46,1.61-4.46a.29.29,0,0,1,.31.32.55.55,0,0,1-.07.33Zm14.24-13.78c-3.54,0-7.08-4-7.08-7.86,0-1.87.15-2.35.61-2.35.16,0,.24.08.24.56a5.68,5.68,0,0,0,1.92,3.81c1.85,1.87,4.39,2.68,8.32,2.68.92,0,2.39-.08,3.31-.16a4.68,4.68,0,0,1,.93-.08c1.77,0,3.54,2.1,3.54,4.21a1.92,1.92,0,0,1-2,1.7,3,3,0,0,1-.77-.08,21.27,21.27,0,0,0-3.78-.32,20.34,20.34,0,0,0-9.63,2.11c-.15.16-.23.16-.3.16a.42.42,0,0,1-.39-.41c0-.32,1.77-1.62,4.93-3.56l.31-.17c.08-.08.15-.08.38-.24ZM274,317.72a1.24,1.24,0,0,1,1.15,1.3c0,2.27-3.77,4.86-11.94,8.11-1.46,7.21-5.16,21.64-8,31.37s-3.62,11.19-5.85,11.19c-1.39,0-3.09-1.95-3.09-3.65,0-.57.16-1.05,1.16-2.84,4.39-7.62,9.09-21.4,11.86-34.86-4.46,2-8.09,3-10.09,3a7,7,0,0,1-6.7-4.46,10.82,10.82,0,0,1-.85-3.24c0-.4.16-.57.39-.57s.23.09.31.41c1,2.35,3.31,3.65,6.31,3.65,2.7,0,6.94-1,11.48-2.68a106,106,0,0,0,1.23-10.7c0-1.78-.23-3.08-.77-3.73a2.5,2.5,0,0,0-2.15-1c-2,.08-2,.08-2.08.16a1.32,1.32,0,0,1-.39.16c-.08,0-.31-.24-.31-.32l.16-.16c0-.08.07-.17.23-.25a9.46,9.46,0,0,1,4.93-2.35,10.81,10.81,0,0,1,3.85,1.22c1.15.57,1.77,1.21,1.77,1.86a4.08,4.08,0,0,1-.15.49,5,5,0,0,0-.39,1.46c-.38,1.54-.46,2.11-.62,2.76,3.93,2.51,6.63,3.81,7.94,3.81a.26.26,0,0,0,.23-.09.56.56,0,0,1,.23-.08Zm-9.79,5.68c5.16-2.92,5.7-3.32,5.7-4.06s0-.64-3.62-3.4l-1.08-.81c-.15.73-.3,1.38-.38,1.62-.08.41-.23,1.38-.54,2.76-.23,1.21-.31,1.62-.85,4.29Zm35.43,39.8c0,2.44-3,3.65-9.16,3.65-12.25,0-18.26-4-18.26-11.92,0-3.48,1.47-8.83,2.39-8.83a.51.51,0,0,1,.46.48.93.93,0,0,1-.07.33,26.91,26.91,0,0,0-.7,5.35c0,6.81,3.7,9.4,13.56,9.4a34.58,34.58,0,0,0,7.86-.81,7.4,7.4,0,0,1,1.46-.32A2.57,2.57,0,0,1,299.65,363.2Zm-14.78-28.53c1.69-1,2.15-1.22,4.31-2.35.77-.41,1.31-1,1.31-1.38,0-1-3.24-2-6.32-2a12.06,12.06,0,0,0-6.54,1.79c-.24.24-.31.24-.39.24a.51.51,0,0,1-.39-.41c0-.32,1.24-1.46,2.24-2a15.18,15.18,0,0,1,7.93-2.19c6.09,0,11.25,3.16,11.25,7,0,1.13-.54,1.95-1.31,1.95-.39,0-.46,0-1.46-.41a9.63,9.63,0,0,0-3.86-.73,19.55,19.55,0,0,0-7.39,1.95l-.31.08a.51.51,0,0,1-.46-.41c0-.24.08-.24.77-.65Zm25.64-19.54s-.31-.32-.31-.41c0-.56,2.39-1.54,3.62-1.54a6.2,6.2,0,0,1,4.62,1.87c1.08,1.05,1.16,1.3,1.39,4.86a32.86,32.86,0,0,0,2.08,9.16c3.7-3.48,11.09-6.4,17.56-7a35,35,0,0,0,.46-5.67c0-4.87-1.84-7.22-5.69-7.3-.39,0-.62-.16-.62-.49s1.62-.73,3.85-.73c4,0,7.09,2.44,7.09,5.6a50.38,50.38,0,0,1-1.31,8.51c5.47.65,8.86,1.7,12.09,3.73,5,3.24,7.93,9.32,7.93,16.38,0,10.13-6.23,18.48-17.33,23.18-5.08,2.19-11.63,3.73-15.63,3.73a.75.75,0,0,1-.85-.73c0-.48.23-.73,1-.81a51,51,0,0,0,13.71-4.7c9.09-4.78,13.4-12,13.4-22.3,0-9.48-5.62-15.72-14.94-16.7A110.24,110.24,0,0,1,335.08,344a6.28,6.28,0,0,0,1,.32,2.75,2.75,0,0,1,1.62,2.76c0,.81-.31,1.22-.92,1.22a8.87,8.87,0,0,1-3.31-1.22,32.78,32.78,0,0,1-6.47,8.84c-3.24,3.08-7.25,5.11-10.1,5.11-3.54,0-6.23-4.63-6.23-10.46,0-6.81,2.77-12.89,8.7-19.05a45,45,0,0,1-3.77-11.68,10.72,10.72,0,0,0-1.31-3.65,5.91,5.91,0,0,0-2.47-1.21ZM320.68,334c-4.39,5.11-6.55,10.05-6.55,15.4,0,4.06,1.77,6.65,4.62,6.65,3.32,0,8.25-4.13,12.33-10.46C326,342.61,323.91,340.26,320.68,334Zm2.16-2.43c2.38,5.75,5.62,9.4,9.85,11.27,2.39-4.3,4.63-10.95,6.48-19C333.54,324.45,328.07,327,322.84,331.59ZM382,311.64a8.8,8.8,0,0,1,2.69,6.33c0,2.83-.38,4.46-2.23,8.83a51.5,51.5,0,0,0-4.24,19.78c0,4.54,1,8.68,2.08,8.68.47,0,.77-.57,1.39-2.51.77-2.44,2.31-6.89,3.31-9.57.08-.24.23-.57.31-.89.15-.57.31-.65.62-.65s.77.24.77.65a2.81,2.81,0,0,1-.24,1c-1.38,3.49-2.77,12-2.77,16.94a8.94,8.94,0,0,0,.54,3.49,3.53,3.53,0,0,1,.46,1.46,2.08,2.08,0,0,1-2,2c-3.7,0-7.7-10.3-7.7-19.78,0-5.92.85-12.08,2.92-20.92,1.24-5.19,1.55-7.14,1.55-10.13,0-3.57-.47-5.11-2-6.81-.23-.25-.31-.41-.31-.49s.24-.33.47-.33C378.44,308.64,380.6,310.1,382,311.64Zm16.79,32.27a.6.6,0,0,1-.08.32,14.91,14.91,0,0,0-.31,2.92,8.93,8.93,0,0,0,2,5c2.23,2.67,5.93,3.89,11.4,3.89a37.38,37.38,0,0,0,9.63-1.38,12.59,12.59,0,0,1,3-.49,3.47,3.47,0,0,1,3.16,3.09c0,2.27-4.24,3.73-10.63,3.73a58.64,58.64,0,0,1-11.63-1.22c-5.16-1.62-8.4-5.84-8.4-10.86,0-3.41.54-5.52,1.39-5.52A.52.52,0,0,1,398.78,343.91Zm0-25c1.39,2,2.93,2.59,6.47,2.59a33,33,0,0,0,11.94-2.35,7.21,7.21,0,0,1,2.16-.56c1.3,0,3.54,2.1,3.54,3.32,0,1.05-1.08,1.7-4.24,2.27a72.38,72.38,0,0,1-10.24,1,11.86,11.86,0,0,1-8.32-2.75c-1-.9-2.16-2.6-2.16-3.33a.42.42,0,0,1,.39-.4A.54.54,0,0,1,398.78,318.94Zm56.92,43.21a8.71,8.71,0,1,1-8.55-9.16C451.77,353,455.7,357.2,455.7,362.15Zm-15.1,0a6.32,6.32,0,1,0,6.24-6.65A6.52,6.52,0,0,0,440.6,362.15ZM575.87,0H0V403.48H575.87Z" transform="translate(0 0)"/>
</svg>
