<?xml version="1.0" encoding="utf-8"?>
<!-- Generator: Adobe Illustrator 24.3.0, SVG Export Plug-In . SVG Version: 6.00 Build 0)  -->
<svg version="1.1" id="レイヤー_1" xmlns="http://www.w3.org/2000/svg" xmlns:xlink="http://www.w3.org/1999/xlink" x="0px"
	 y="0px" width="113.7px" height="372.8px" viewBox="0 0 113.7 372.8" style="enable-background:new 0 0 113.7 372.8;"
	 xml:space="preserve">
<style type="text/css">
	.st0{fill:#FFFFFF;}
</style>
<path class="st0" d="M63.3,40.1c3-0.9,3.5-1.1,6.7-2.2V26c-2.2,0-2.6,0-4.7,0.1l-1.4-1.5c3.1,0.2,3.5,0.2,6.1,0.2v-9.9h-0.6
	c-1.4,0-2.4,0-4.6,0.1l-1.1-1.5c3,0.1,4.3,0.2,5.7,0.2h5l2.3-2.2l2.2,2c0.4,0.4,0.6,0.6,0.6,0.9c0,0.4-0.2,0.5-0.5,0.5h-6.8v9.9h1.6
	l2.2-2.2l2.3,2c0.3,0.2,0.4,0.6,0.4,0.9c0,0.3-0.2,0.5-0.4,0.5h-6.1v11.1c4.7-1.8,5.6-2.2,8.7-3.5l0.3,0.7c-2.6,1.5-3.3,1.8-5.5,3
	c-2.1,1.1-4.2,2.2-6.4,3.3L67,41.7l-0.3,0.8c-0.3,0.9-0.4,1-0.7,1c-0.2,0-0.3-0.1-0.8-0.7L63.3,40.1z M73.6,45
	c3.9,0.2,5.5,0.2,7.4,0.2h7.7v-8.4h-3.4c-2,0-2.5,0-4.6,0.1l-1.1-1.5c3,0.1,4.2,0.2,5.7,0.2h3.4v-6.9h-6.1v2c0,0.4,0,0.4-0.3,0.6
	c-0.5,0.3-1.1,0.5-1.4,0.5c-0.3,0-0.4-0.2-0.4-0.5V10.3l2.8,1.4h14.1l0.8-1.3l2.2,1.5c0.3,0.2,0.5,0.4,0.5,0.7
	c0,0.2-0.2,0.4-0.4,0.4l-1,0.3v16.6c0,0.6-0.7,1.2-1.6,1.2c-0.4,0-0.6-0.2-0.6-0.6v-1.7h-6.5v6.9h5l2.3-2.2l2.4,2.1
	c0.5,0.4,0.6,0.6,0.6,0.9c0,0.3-0.2,0.5-0.6,0.5h-9.8v8.4h5.7l2.5-2.6l2.8,2.4c0.3,0.3,0.6,0.6,0.6,0.9c0,0.3-0.2,0.5-0.6,0.5H81
	c-2.6,0-3.5,0-6.4,0.2L73.6,45z M82.6,19.6h6.1v-6.7h-6.1V19.6z M82.6,27.5h6.1v-6.8h-6.1V27.5z M90.8,19.6h6.5v-6.7h-6.5V19.6z
	 M90.8,27.5h6.5v-6.8h-6.5V27.5z M63.6,57.6c1.1,0,3.2,0.1,5.7,0.2H73V50l3,0.4c0.4,0,0.6,0.2,0.6,0.6c0,0.3-0.1,0.5-0.4,0.6
	l-1.1,0.6v5.6H78l2-2.4l2.6,2.4c0.2,0.2,0.3,0.4,0.3,0.7c0,0.4-0.2,0.6-0.6,0.6h-7.3v3.3c0.3,0.1,0.9,0.3,1.7,0.5
	c2.6,0.8,4.2,2.2,4.2,3.7c0,0.8-0.4,1.3-1,1.3c-0.4,0-0.7-0.3-1.4-1.3c-1.3-2-1.8-2.4-3.5-3.3v11.7c0,0.6-0.9,1.4-1.7,1.4
	c-0.3,0-0.4-0.1-0.4-0.4V63.2c-1.9,3-2.7,3.9-5.6,6.7c-2.3,2.3-3.4,3.1-3.8,3.1c-0.2,0-0.3-0.2-0.3-0.4c0-0.3,0.1-0.4,0.8-1.1
	c3.3-3.2,7.2-8.8,8.7-12.6h-3.5c-1.4,0-2.3,0-4.3,0.1L63.6,57.6z M70.2,76.4c0,0.6,0,1.3,0,1.4c0,3.5-0.4,5.4-1.7,7.5
	c-0.8,1.4-1.8,2.2-2.9,2.2c-0.7,0-1.2-0.5-1.2-1.3c0-0.9,0.4-1.5,1.7-2.8c2.1-2,2.8-3.4,3.3-7.2L70.2,76.4z M93.8,80l-0.4,5.2v0.5
	c0,0.3,0.1,0.4,0.7,0.7c0.4,0.2,0.7,0.6,0.7,1.1c0,1.7-2.9,2.3-9.8,2.3c-2.9,0-7.6-0.2-8.8-0.4c-0.9-0.1-1.3-0.6-1.3-1.5V77.4
	l3.2,0.7c0.3,0,0.5,0.3,0.5,0.6c0,0.1-0.1,0.3-0.3,0.5L77.1,80V86c0,0.8,0.4,1,1.6,1.1c3.4,0.3,3.8,0.3,5.6,0.3
	c5.9,0,6.9-0.3,7.3-2.1l1.4-5.6L93.8,80z M80.9,74.7c4.1,2.1,5.9,3.8,5.9,5.7c0,0.9-0.5,1.6-1.2,1.6c-0.7,0-1.1-0.5-1.7-2.1
	c-0.9-2.2-1.4-2.9-3.3-4.5L80.9,74.7z M86.6,53.2h9.7l0.9-1.2l2.6,1.7c0.4,0.2,0.5,0.4,0.5,0.5c0,0.2-0.1,0.3-0.3,0.4l-1.2,0.5v18
	c0,0.7-0.6,1.1-1.5,1.1c-0.3,0-0.4-0.1-0.4-0.4v-2H86.1v1.8c0,0.7-0.7,1.3-1.5,1.3c-0.4,0-0.6-0.2-0.6-0.5V51.8L86.6,53.2z M86.1,59
	h10.6v-4.6H86.1V59z M96.7,65v-4.8H86.1V65H96.7z M86.1,70.7h10.6v-4.5H86.1V70.7z M95.7,76c2.1,1.3,3.2,2.1,4.3,3.2
	c1.6,1.6,2.4,3.4,2.4,5c0,0.9-0.6,1.7-1.4,1.7c-0.7,0-1.1-0.5-1.5-1.9c-0.9-3.2-2.1-5.3-4.3-7.3L95.7,76z M84.6,104
	c0,3.8-1.4,8.3-3.9,12.3c-2.6,4.2-5.4,6.6-7.7,6.6c-2.8,0-5.2-4-5.2-8.6c0-4.3,1.7-8.5,4.8-11.7c3.4-3.5,7.7-5.4,12.5-5.4
	c8,0,13.9,5.7,13.9,13.3c0,7-4,12.7-10.7,15.4c-1.8,0.8-4.9,1.6-5.7,1.6c-0.3,0-0.5-0.2-0.5-0.5c0-0.2,0.2-0.3,0.6-0.4
	c1.5-0.3,4.8-1.7,6.4-2.7c4.4-2.9,6.7-7.7,6.7-14c0-4.2-1.2-7.1-3.8-9.2c-2-1.6-4.4-2.4-7-2.4c-0.5,0-0.6,0-1.1,0.1
	C84.4,101.6,84.6,102.7,84.6,104z M82.4,98.5c-4,1-6.6,2.7-8.9,5.6c-2.3,2.9-3.5,6.7-3.5,10.6c0,3,1.3,5.6,2.8,5.6
	c2,0,5.3-3.5,7.5-8.1c1.6-3.3,2.7-7.5,2.7-10.1c0-1.4-0.2-2.5-0.6-3.4L82.4,98.5z M68,136.6h4.6l1.1-1.3l2.3,1.8
	c0.2,0.2,0.4,0.4,0.4,0.6c0,0.2-0.1,0.3-0.4,0.4l-0.8,0.4v28c0,0.5-0.9,1.2-1.7,1.2c-0.3,0-0.3-0.1-0.3-0.5v-2.1h-5.4v4
	c0,0.3-0.1,0.4-0.5,0.6c-0.6,0.4-0.9,0.5-1.2,0.5c-0.3,0-0.3-0.2-0.3-0.6v-34.6L68,136.6z M67.7,154.2h5.4v-7.3h-5.4V154.2z
	 M67.7,155.4v8.5h5.4v-8.5H67.7z M73.1,137.8h-5.3v7.9h5.3V137.8z M87.8,166h-4.8c-1.4,0-2.4,0-4.8,0.1l-1-1.5
	c2.9,0.1,4.1,0.2,5.7,0.2h4.9v-3.9h-7.1v1.2c0,0.6-0.6,1.2-1.3,1.2c-0.3,0-0.4-0.1-0.4-0.4v-13.8l2,1h15.1l0.6-1.1l2.3,1.5
	c0.3,0.2,0.4,0.4,0.4,0.5c0,0.1-0.1,0.3-0.4,0.4l-0.7,0.4v9.2c0,0.5-0.9,1.1-1.7,1.1c-0.2,0-0.3-0.1-0.3-0.3v-1h-6.9v3.9h6.1
	l1.9-1.9l2.5,1.8c0.3,0.3,0.5,0.5,0.5,0.8c0,0.3-0.3,0.5-0.7,0.5H89.6v4.4h8.3l2.3-2.2l2.6,2.1c0.4,0.4,0.6,0.6,0.6,0.9
	c0,0.3-0.3,0.4-0.7,0.4H81.3c-0.5,0-1.6,0-2.8,0l-2.9,0.1l-1.6-1.6c3.8,0.1,5.3,0.2,7.3,0.2h6.5V166z M76,145.9c2,0,3.8,0.1,4.4,0.1
	c1.3,0,2.3,0.1,2.7,0.1h0.6c-0.1-0.4-0.2-0.7-0.2-0.8c-0.1-0.6-0.2-1.3-0.3-1.9c-0.6-1.8-1.2-3.1-2-4c-0.9,0-1.3,0-2.8,0.1l-1-1.5
	c3.3,0.1,4.4,0.2,5.6,0.2h4.8v-6.3l2.9,0.5c0.4,0,0.6,0.2,0.6,0.4c0,0.2-0.1,0.3-0.4,0.4l-1.1,0.5v4.4h6.3l2.1-2.4l2.6,2.3
	c0.3,0.2,0.4,0.5,0.4,0.7c0,0.4-0.3,0.6-0.8,0.6h-6.8l1.2,0.7c0.3,0.2,0.4,0.4,0.4,0.5c0,0.3-0.1,0.4-0.6,0.6l-0.9,0.4
	c-1.1,2.4-1.4,3-2.2,4.5h6.5l2.1-2.3l2.7,2.2c0.3,0.2,0.4,0.5,0.4,0.8c0,0.4-0.2,0.6-0.6,0.6H83.2c-0.3,0-1.3,0-2.6,0
	c-0.5,0-1.8,0-3.4,0.1L76,145.9z M87.8,154.9v-3.6h-7.1v3.6H87.8z M80.8,159.7h7.1v-3.6h-7.1V159.7z M90.7,146.1
	c0.7-1.9,1.2-3.9,1.6-6.7h-10l1.4,1.5c1.4,1.4,2,2.6,2,3.7c0,0.6-0.1,0.9-0.6,1.5H90.7z M96.5,154.9v-3.6h-6.9v3.6H96.5z
	 M89.6,159.7h6.9v-3.6h-6.9V159.7z M83.8,198.9c0.2,2.2,0.3,3.3,0.3,4.4c0,1.7-0.5,2.3-1.9,2.3c-0.5,0-0.7-0.1-0.7-0.5
	c0,0,0-0.2,0-0.3c0.1-0.8,0.2-2.5,0.2-4.8c-3.9,2.6-5.3,4.2-5.3,6.3c0,1.2,0.9,2.2,2.3,2.7c1.1,0.4,2.4,0.5,4.4,0.5
	c2.3,0,3.6-0.2,6.2-0.9c0.4-0.1,0.7-0.1,1-0.1c0.9,0,1.8,0.8,1.8,1.4c0,0.8-0.9,1.4-2,1.6c-1.6,0.3-4.8,0.5-6.1,0.5
	c-5.8,0-9.3-2-9.3-5.3c0-1.8,0.9-3.5,2.7-4.9c1.1-0.9,1.8-1.3,4.3-2.8v-0.3c0-1-0.2-2.8-0.3-4c-0.3-1.9-1.1-2.9-2.3-2.9
	c-1.8,0-4.4,2.5-6.7,6.4c-0.5,0.8-0.7,1-1.2,1c-0.3,0-0.6-0.2-0.9-0.8c-0.4-0.7-0.6-1.3-0.6-1.6c0-0.4,0.1-0.7,0.6-1.1
	c4.6-4.1,7.6-8.7,8.4-13c-1.2,0.4-3,0.8-3.8,0.8c-0.8,0-1.7-0.7-2.2-1.7c-0.3-0.4-0.6-1.2-0.6-1.4c0,0,0.1-0.1,0.1-0.1
	c0.1,0,0.2,0.1,0.3,0.3c0.5,0.8,1.2,1,2.6,1c1.2,0,2.5-0.3,3.8-0.7c0.1-0.7,0.1-0.9,0.1-1.3c0-1.3-0.9-2.4-2-2.4
	c-0.1,0-0.1,0-0.1-0.1c0-0.4,1.1-1,1.9-1c1.4,0,2.8,1.3,2.8,2.6c0,0.5-0.1,1-0.3,1.7c1.3-0.4,2.3-1,2.9-1.5c0.4,0.3,0.6,0.4,0.8,0.4
	c0.7,0.4,0.9,0.5,0.9,0.8c0,0.4-0.5,0.6-1.7,1.1c-0.1,0-0.6,0.2-1.2,0.4c-0.7,0.2-1.1,0.4-1.9,0.6c-1.1,3.1-3.1,7-4.8,9.5
	c1.8-0.8,2.3-0.9,3.1-0.9c1.2,0,2.5,0.8,3.2,1.9c0.5,0.6,0.6,1.2,0.8,2.4c2.6-6,6.2-9.4,10.2-9.4c2.8,0,5.2,1.8,5.2,4
	c0,0.9-0.4,1.7-1,2.2c-0.5,0.4-0.5,0.4-3.4,1.8c-3.4,1.5-5.3,2.4-5.7,2.6c-0.8,0.4-1.2,0.6-3.5,1.8L83.8,198.9z M84.4,197
	c10.5-5.9,11.2-6.4,11.2-7.6c0-1.2-1.4-2.2-2.9-2.2c-2.1,0-4.7,1.9-6.5,4.8c-0.9,1.4-2.1,4-2.5,5.2c0,0.2-0.1,0.3-0.1,0.3L84.4,197z
	 M64.4,241.3c4.7,0.2,6.5,0.3,8.5,0.3h9.4v-4.9l3.4,0.4c0.3,0,0.6,0.3,0.6,0.5c0,0.2-0.1,0.4-0.3,0.5l-1.2,0.6v2.8h12.5l2-2.2
	l2.8,2.1c0.3,0.2,0.5,0.4,0.5,0.8c0,0.4-0.3,0.6-0.6,0.6H86.1c1,2,2.3,3.6,4.3,5.5l0.6-0.5c3.1-2.8,3.1-2.8,4.2-4.2l2.2,1.8
	c0.3,0.3,0.4,0.4,0.4,0.6c0,0.3-0.1,0.4-0.4,0.4l-1.5,0c-2,0.9-3,1.4-5.1,2.2c2.4,2.2,7.8,4.8,12.2,5.8c-1.7,0.8-2.3,1.3-2.9,2.6
	c-6.8-2.8-11.8-7.5-15.1-14.3h-1.8c-0.3,0.3-0.6,0.4-0.7,0.5l-1.9,1.5c-0.1,0-0.3,0.3-0.7,0.6v8.1c1.7-0.2,6.4-1.1,8.7-1.6l0.2,0.8
	c-1.8,0.5-2.2,0.6-5.1,1.3c-0.7,0.2-1.4,0.4-2.2,0.6l-1.4,0.4c-2.6,0.7-4.5,1.1-5.4,1.3c-0.5,0.1-1.1,0.3-1.6,0.4l-0.6,0.9
	c-0.3,0.4-0.5,0.5-0.7,0.5c-0.3,0-0.5-0.1-0.6-0.5l-1.5-3.1c1.6,0,5.6-0.4,8.2-0.8v-6.8c-3.1,2.2-6.9,4.2-12.2,6.3
	c-0.9,0.4-0.9,0.4-1.2,0.4c-0.2,0-0.4-0.1-0.4-0.3c0-0.3,0.3-0.5,1.2-1c4.8-2.1,12.5-7.2,14.5-9.7h-6.9c-2.1,0-3.7,0-7.3,0.2
	L64.4,241.3z M74.8,216.9l2.9,0.5c0.5,0.1,0.7,0.3,0.7,0.6c0,0.2-0.1,0.3-0.5,0.5l-0.9,0.5v19.6c0,0.5-0.9,1-1.7,1
	c-0.3,0-0.4-0.2-0.4-0.6v-10.2c-1.2,0.9-1.4,1-2.6,1.7l-3.2,2.2l-0.9,0.6l-0.4,1.7c0,0.3-0.2,0.5-0.4,0.5c-0.2,0-0.4-0.1-0.6-0.4
	l-2.1-2.8c3.6-1.3,5.6-2.2,10.2-4.5V216.9z M65.9,219.1c3.5,1.8,5.2,3.6,5.2,5.7c0,0.9-0.4,1.5-1.1,1.5c-0.7,0-0.7,0-1.4-2.2
	c-0.7-1.9-1.2-2.7-2.9-4.5L65.9,219.1z M87.9,216.9l3,0.6c0.3,0.1,0.5,0.2,0.5,0.4c0,0.2-0.1,0.3-0.3,0.4l-0.8,0.5v4.6h6.9l2-2.2
	l2.6,2c0.6,0.4,0.6,0.4,0.6,0.8c0,0.4-0.3,0.7-0.6,0.7H90.2v8.9h5.6l2.2-2.2l3,2.2c0.3,0.2,0.4,0.4,0.4,0.7c0,0.4-0.3,0.5-0.6,0.5
	H85.4c-1.1,0-2.1,0-4.8,0.1l-1-1.5c3.2,0.1,4.5,0.2,5.8,0.2h2.4v-8.9h-4.3c-1.5,0-2.6,0-4.9,0.1l-0.9-1.5c2.9,0.1,4.2,0.2,5.8,0.2
	h4.3V216.9z M73.4,268.8c0,0.7-0.1,1.4-0.4,2.9c-0.7,3.3-0.9,5.2-0.9,7.4c0,3.1,0.7,5.9,1.9,7.5c0.9,1.2,1.8,2,2.5,2
	c0.7,0,0.7,0,3.1-5.8c1.2-2.7,1.3-3,1.5-3c0.1,0,0.3,0.2,0.3,0.4c0,0.1,0,0.1-0.2,0.8c-1.2,3.5-1.9,6.2-1.9,7.9
	c0,0.9,0.3,1.9,0.9,2.6c0.2,0.2,0.2,0.3,0.2,0.4c0,0.4-0.7,1-1.3,1c-1.9,0-4.6-1.6-5.9-3.5c-2.2-3.1-3.2-6.7-3.2-12.2
	c0-1.7,0.1-4.1,0.3-5.7c0.1-1,0.1-1.8,0.1-2.3c0-2-1.1-3.6-2.5-3.7c-0.3,0-0.3,0-0.3-0.2c0-0.2,0.6-0.4,1.3-0.4
	C71.4,264.8,73.4,266.7,73.4,268.8z M88.6,273.3c-0.2,0-0.3,0-0.3,0c-0.1,0-0.2-0.1-0.2-0.2c0-0.4,0.7-0.5,2-0.5
	c2.6,0,4.9,0.9,6.7,2.6c1.8,1.7,3.1,4.4,3.1,6.4c0,1.6-0.9,2.8-2.2,2.8c-0.8,0-1-0.4-1-1.5c0-5.3-3.6-9.6-7.9-9.6H88.6z M92.7,300.4
	c4.3,0.6,7.8,3.8,7.8,7c0,1.4-0.9,2.5-1.9,2.5c-0.3,0-0.6-0.2-0.9-0.4c-0.5-0.5-0.5-0.5-1.3-3.9c-0.8-2.2-1.7-3.2-4-4.6L92.7,300.4z
	 M20.6,18.4c0,0.7-0.1,1.4-0.4,2.9c-0.7,3.3-0.9,5.2-0.9,7.4c0,3.1,0.7,5.9,1.9,7.5c0.9,1.2,1.8,2,2.5,2c0.7,0,0.7,0,3.1-5.8
	c1.2-2.7,1.3-3,1.5-3c0.1,0,0.3,0.2,0.3,0.4c0,0.1,0,0.1-0.2,0.8c-1.2,3.5-1.9,6.2-1.9,7.9c0,0.9,0.3,1.9,0.9,2.6
	c0.2,0.2,0.2,0.3,0.2,0.4c0,0.4-0.7,1-1.3,1c-1.9,0-4.6-1.6-5.9-3.5c-2.2-3.1-3.2-6.7-3.2-12.2c0-1.7,0.1-4.1,0.3-5.7
	c0.1-1,0.1-1.8,0.1-2.3c0-2-1.1-3.6-2.5-3.7c-0.3,0-0.3,0-0.3-0.2c0-0.2,0.6-0.4,1.3-0.4C18.6,14.4,20.6,16.3,20.6,18.4z M35.8,22.9
	c-0.2,0-0.3,0-0.3,0c-0.1,0-0.2-0.1-0.2-0.2c0-0.4,0.7-0.5,2-0.5c2.6,0,4.9,0.9,6.7,2.6c1.8,1.7,3.1,4.4,3.1,6.4
	c0,1.6-0.9,2.8-2.2,2.8c-0.8,0-1-0.4-1-1.5c0-5.3-3.6-9.6-7.9-9.6H35.8z M29.5,79.1c4.3-1,5.6-1.5,8-2.8c4.6-2.6,7.1-6.4,7.1-10.8
	c0-5.1-3-8.1-8-8.1c-3.2,0-7.9,1.6-11.3,3.8c-1.1,0.7-3.4,2.5-5.6,4.2c-0.9,0.7-1.4,1-1.9,1c-1.2,0-3.4-1.2-3.9-2.2
	c-0.3-0.5-0.7-2.2-0.7-3.2c0-0.2,0.1-0.4,0.3-0.4c0.2,0,0.2,0.1,0.3,0.4c0.3,1.2,1.4,2.1,2.6,2.1c1.1,0,2.1-0.4,6.4-2.9
	c5-2.9,9.9-4.4,14.4-4.4c6,0,10.6,4.2,10.6,9.7c0,5.4-3.2,9.5-9.5,12.1c-2.1,0.9-3.8,1.3-6.8,1.9c-1.7,0.3-2.3,0.4-2.7,0.4
	c-0.5,0-0.8-0.2-0.8-0.4c0-0.2,0.1-0.3,0.6-0.3c0.1,0,0.3,0,0.4-0.1L29.5,79.1z M27.3,101c-4.3-1.1-6.4-2.9-6.4-5.3
	c0-0.3,0.2-0.5,0.4-0.5c0.1,0,0.1,0.1,0.1,0.2c0,1.1,2.7,2.7,6.2,3.6l0.2-0.9c0.8-3.9,0.9-4.8,0.9-5.8c0-1.6-0.9-2.7-2.3-3.1
	c-0.3,0-0.3-0.1-0.3-0.2c0-0.2,1.3-0.7,2-0.7c0.6,0,1.7,0.6,2.6,1.3c0.9,0.8,1.2,1.4,1.2,2.2c0,0.8-0.1,1.1-0.9,3.1
	c-0.4,1-0.8,2.2-1.5,4.4c0.6,0.2,1,0.2,1.5,0.2c0.9,0,1.1,0.2,1.4,0.6s0.6,1,0.6,1.4c0,0.6-0.3,0.7-2,0.8c-1.2,0-1.3,0.1-2.7,0.5
	c-0.6,2.7-1.3,6.3-1.6,8.1c0.7,0.1,1.1,0.1,1.6,0.1c1.2,0,2-0.2,2.8-0.5c1.2,0.8,1.7,1.3,1.7,1.9c0,0.7-0.7,1.1-1.8,1.1
	c-1.2,0-3-0.2-4.3-0.4c-0.2,1.7-0.2,2.2-0.2,3c0,3.8,2.6,6.5,6.2,6.5c3.5,0,5.8-2.3,5.8-5.8c0-2.5-0.9-5.3-2.5-7.4
	c-0.7-0.9-2.2-2.5-2.9-3c-0.2-0.1-0.3-0.2-0.3-0.3c0-0.2,0.2-0.3,0.4-0.3c0.3,0,1,0.5,2.6,1.9c3.6,3.1,5.2,6.1,5.2,9.6
	c0,4.5-3.2,7.5-8,7.5c-2.3,0-4.4-0.8-5.9-2.3c-1.5-1.5-2.2-3.6-2.2-6.7c0-0.7,0-1.4,0.2-3c-3-0.9-4.4-2.1-4.4-3.9
	c0-1.6,1-3.2,2.9-4.5c0.7-0.5,1-0.7,3.4-2.3L27.3,101z M22.6,108.6c0,1.1,0.9,1.8,2.9,2.1c0.5-2.8,1-5.7,1.4-7
	C24.2,105.3,22.6,107.1,22.6,108.6z M27.9,138.3c0.1-2.6,0.1-2.6,0.1-2.9c0-2.3-0.9-3.2-3.3-3.2c-0.3,0-0.4-0.1-0.4-0.3
	c0-0.4,1.6-1,2.9-1c2.2,0,4.2,1.4,4.2,3c0,0.6-0.1,1.5-0.4,2.5c-0.7,2.6-1.1,6.1-1.1,8.8c0,2.5,0.5,3.8,1.3,3.8c0.2,0,0.2,0,1.8-0.9
	c1.7-1,1.7-1,2.1-1.3c0.8-0.6,0.9-0.7,1.3-0.7c1.2,0,2.6,0.8,2.6,1.6c0,0.6-0.7,1.1-2.7,1.7c-2.1,0.6-2.9,0.8-4.3,1
	c-0.3,0-0.6,0.1-0.7,0.1c-0.2,0.1-0.4,0.2-0.6,0.3c-2.6,1.3-3.3,1.7-4.6,3c-1.4,1.4-2.2,3.4-2.2,5.3c0,3.1,2.6,4.8,7.4,4.8
	c2.6,0,6.4-0.6,8.4-1.4c0.6-0.2,1.1-0.4,1.4-0.4c0.8,0,1.8,1.1,1.8,1.9c0,1.3-4.2,2.2-9.3,2.2c-3.2,0-5.9-0.4-7.7-1.2
	c-2.6-1.1-4.1-3.3-4.1-5.7c0-3.4,3-7,7.6-9.2c0.2,0,0.2,0,0.5-0.2c-1.4-2-1.9-3.7-1.9-7c0-0.4,0-0.4,0.1-3.2L27.9,138.3z
	 M10.3,190.6l5.9,0.2l1-1.2l2,1.3c0.6,0.4,0.7,0.4,0.7,0.6c0,0.2-0.3,0.3-0.7,0.5l-0.8,0.4v14.2c3.7,3.1,7.2,4,15.5,4
	c2.6,0,2.6,0,8.6-0.3l4.3-0.2c0.4,0,1.5-0.1,3.1-0.2c-1.7,1.5-2.1,1.9-2.3,2.8c-0.8,0-1.6,0.1-1.8,0.1c-3.9,0.2-6.4,0.3-10.4,0.3
	c-5.2,0-10.2-0.9-13.1-2.3c-1.6-0.8-3.4-2.2-5.1-3.9l-3.5,3.8l-0.3,1c-0.1,0.2-0.2,0.4-0.3,0.4s-0.2-0.1-0.4-0.3l-1.7-2.6
	c2-0.9,2.9-1.4,5.5-3.2v-14l-4.7,0.1L10.3,190.6z M12.2,175c1.9,0.5,3.3,1,4.5,1.7c1.9,1.1,3.1,2.6,3.1,4.1c0,0.9-0.6,1.6-1.3,1.6
	c-0.5,0-0.8-0.4-1.4-1.3c-1.7-2.8-2.7-3.9-5.1-5.6L12.2,175z M19.6,182.8c2.9,0.1,4,0.2,5.7,0.2h4.1c0.6-2.1,0.6-2.4,1.1-4.3h-2.8
	c-1,0-1.9,0-4.4,0.1l-1.2-1.5c3.4,0.1,4.5,0.2,5.7,0.2h3.1c0.1-0.4,0.3-1.3,0.4-1.4l0.6-2.4l0.4-1.5l2.4,1c0.6,0.3,0.8,0.4,0.8,0.7
	c0,0.2-0.3,0.4-0.6,0.6l-1,0.3l-0.4,1.5l-0.3,1.2h6.9l1-1.2l2,1.3c0.5,0.3,0.6,0.5,0.6,0.7c0,0.2-0.2,0.4-0.6,0.5l-1.4,0.3v3.9h3.2
	l2.5-2.3l2.7,2.4c0.1,0.1,0.2,0.4,0.2,0.6c0,0.3-0.2,0.5-0.6,0.5H25.3c-1.2,0-1.3,0-4.6,0.1L19.6,182.8z M19.9,202.6
	c3.1,0.1,3.5,0.2,6.4,0.2v-4.1c-1.4,0-1.7,0-3.6,0.1l-1.4-1.5c3.1,0.1,4.3,0.2,6.1,0.2h8.3v-3.8h-8.4v1.2c0,0.4-0.8,1-1.4,1
	c-0.3,0-0.5-0.2-0.5-0.6V186l2,1.4h13.2l1-1l2.3,1.4c0.3,0.2,0.4,0.4,0.4,0.6c0,0.2-0.1,0.3-0.3,0.4l-0.9,0.3v4.8
	c0,0.6-0.9,1.3-1.7,1.3c-0.2,0-0.3-0.1-0.3-0.4v-1.2h-3.3v3.8h5.5l1.8-1.7l2.2,2c0.2,0.2,0.3,0.4,0.3,0.5c0,0.2-0.2,0.4-0.4,0.4
	h-9.4v4.1h6.6l2.4-2l2.7,2.1c0.2,0.1,0.3,0.4,0.3,0.6c0,0.3-0.2,0.4-0.5,0.4H37.7v4c0,0.5-1,1.3-1.6,1.3c-0.2,0-0.4-0.2-0.4-0.4V204
	H26c-1.3,0-2.4,0-4.7,0.1L19.9,202.6z M41,192.4v-3.8H27.2v3.8H41z M28.3,202.8h7.4v-4.1h-7.4V202.8z M39.8,183v-4.3h-7
	c-0.5,1.8-0.6,2.2-1.2,4.3H39.8z M21.6,229.3c0,0.4,0.2,1.1,0.3,1.6c0.4,0.7,0.9,1,1.7,1c0.7,0,1.2-0.2,3.2-1.3
	c3.3-1.9,5.2-2.6,7.1-2.6c3.4,0,6.1,3.6,6.1,8.2c0,5.3-2.1,10.1-5.8,13.2c-2.5,2.1-5.7,3.7-9.3,4.8l-0.6,0.1c-0.2,0-0.3,0.1-0.4,0.1
	c-0.2,0-0.4-0.2-0.4-0.4c0-0.2,0.1-0.3,0.4-0.4c1.7-0.4,4.3-1.8,6.4-3.3c2.4-1.8,4.2-3.8,5.4-6.2c1-2.1,1.7-5.3,1.7-7.7
	c0-4.1-1.7-7.1-4-7.1c-2.2,0-5,1.8-8,4.9c-0.5,0.5-1.1,0.9-1.7,0.9c-1.4,0-3-2-3-3.8c0-1,0.5-2.5,0.9-2.5c0.1,0,0.2,0,0.2,0.2
	c0,0,0,0.1,0,0.2V229.3z M29.5,221.7c-2,0-3.9-2.2-3.9-4.4c0-1,0.1-1.3,0.3-1.3c0.1,0,0.1,0,0.1,0.3c0,0.7,0.4,1.5,1.1,2.1
	c1,1,2.4,1.5,4.6,1.5c0.5,0,1.3,0,1.8-0.1c0.2,0,0.4,0,0.5,0c1,0,2,1.2,2,2.3c0,0.5-0.5,0.9-1.1,0.9c-0.1,0-0.3,0-0.4,0
	c-0.7-0.1-1.5-0.2-2.1-0.2c-2,0-4,0.4-5.3,1.2c-0.1,0.1-0.1,0.1-0.2,0.1c-0.1,0-0.2-0.1-0.2-0.2c0-0.2,1-0.9,2.7-2l0.2-0.1
	c0,0,0.1,0,0.2-0.1H29.5z M29.8,266.6l2.4,2.2c0.3,0.3,0.5,0.6,0.5,0.9c0,0.3-0.3,0.5-0.8,0.5h-8.8v6.1c3.4,0.9,4.1,1.1,5.5,1.9
	c1.4,0.8,2,1.7,2,2.7c0,0.8-0.5,1.4-1,1.4c-0.4,0-0.9-0.4-1.9-1.6c-1.5-1.7-2.3-2.3-4.6-3.5v18c0,0.5-0.8,1-1.7,1
	c-0.3,0-0.4-0.1-0.4-0.6v-19.1c-2,3.9-4.2,6.6-7.7,10.2c-1.6,1.7-2.2,2.2-2.4,2.2s-0.4-0.2-0.4-0.4c0-0.1,0-0.3,0.2-0.4
	c5.7-6.4,8.7-11.6,10.2-17.8h-2.7c-1.1,0-1.4,0-6.5,0.2l-0.8-1.6l4,0.1c1.5,0,3.1,0.1,3.3,0.1H21v-6.8c-3.1,0.6-7.9,1.3-8.7,1.3
	c-0.3,0-0.6-0.2-0.6-0.5c0-0.3,0.3-0.5,1.1-0.6c6.8-1.3,10.7-2.6,16.4-5l2.3,1.8c0.4,0.3,0.6,0.5,0.6,0.7c0,0.2-0.2,0.3-0.6,0.3
	l-1.7,0.1c-2.9,0.7-3.4,0.9-6.7,1.5v7.2h4.3L29.8,266.6z M29.7,292.9c-0.2,0.3-0.5,0.5-0.6,0.5c-0.2,0-0.3-0.1-0.6-0.5l-2-3.1
	c3-0.1,3.5-0.1,6.4-0.4c3.7-15,4.9-21,6.4-30.7l3.8,1.2c0.6,0.2,0.9,0.4,0.9,0.8c0,0.4-0.1,0.5-0.9,0.8L42,262c-0.6,2-1,3.6-1.5,5.3
	l-2.2,7.9l-2.6,9l-1.4,5.2c1.9-0.2,3.7-0.4,5.5-0.7c1.6-0.2,2.5-0.3,5.4-0.7c-1.2-3.1-2.4-5.2-4.3-7.6l0.6-0.5
	c5.1,4.8,7.5,8.6,7.5,12.2c0,1.4-0.5,2.2-1.4,2.2c-0.5,0-0.9-0.3-1.1-0.9c0-0.2,0-0.2-0.5-2.2c-0.2-0.8-0.3-1-0.6-2.2l-15.1,3
	L29.7,292.9z M20.9,303.6c1.1,1.2,1.5,2.2,1.5,3.5c0,1.6-0.2,2.5-1.2,4.9c-1.5,3.6-2.3,7.4-2.3,10.9c0,2.5,0.6,4.8,1.2,4.8
	c0.3,0,0.4-0.3,0.8-1.4c0.4-1.3,1.3-3.8,1.8-5.3c0-0.1,0.1-0.3,0.2-0.5c0.1-0.3,0.2-0.4,0.3-0.4c0.3,0,0.4,0.1,0.4,0.4
	c0,0.1,0,0.3-0.1,0.5c-0.8,1.9-1.5,6.6-1.5,9.4c0,0.9,0.1,1.3,0.3,1.9c0.2,0.5,0.3,0.6,0.3,0.8c0,0.6-0.5,1.1-1.1,1.1
	c-2,0-4.3-5.7-4.3-11c0-3.3,0.5-6.7,1.6-11.6c0.7-2.9,0.9-3.9,0.9-5.6c0-2-0.3-2.8-1.1-3.8c-0.1-0.1-0.2-0.2-0.2-0.3
	c0-0.1,0.1-0.2,0.3-0.2C18.9,301.9,20.1,302.8,20.9,303.6z M30.2,321.5c0,0,0,0.1,0,0.2c-0.1,0.2-0.2,1.2-0.2,1.6
	c0,0.8,0.5,2.2,1.1,2.8c1.2,1.5,3.3,2.2,6.3,2.2c1.6,0,3.6-0.3,5.3-0.8c0.7-0.2,1.2-0.3,1.7-0.3c0.9,0,1.7,0.9,1.7,1.7
	c0,1.3-2.3,2.1-5.9,2.1c-2.1,0-5.4-0.4-6.4-0.7c-2.9-0.9-4.6-3.2-4.6-6c0-1.9,0.3-3.1,0.8-3.1C30.1,321.2,30.2,321.3,30.2,321.5z
	 M30.2,307.6c0.8,1.1,1.6,1.4,3.6,1.4c2.2,0,3.9-0.4,6.6-1.3c0.6-0.2,0.9-0.3,1.2-0.3c0.7,0,2,1.2,2,1.8c0,0.6-0.6,0.9-2.3,1.3
	c-1.3,0.3-4.3,0.5-5.7,0.5c-2,0-3.3-0.4-4.6-1.5c-0.6-0.5-1.2-1.4-1.2-1.8c0-0.1,0.1-0.2,0.2-0.2C30.1,307.5,30.1,307.6,30.2,307.6z
	 M48.3,345.6c0,2.9-2.2,5.2-4.9,5.2c-2.7,0-4.9-2.3-4.9-5.2c0-2.9,2.2-5.1,4.9-5.1C46.1,340.5,48.3,342.8,48.3,345.6z M39.9,345.6
	c0,2.1,1.6,3.7,3.5,3.7c2,0,3.5-1.7,3.5-3.7c0-2.1-1.6-3.7-3.6-3.7C41.4,341.9,39.9,343.6,39.9,345.6z M113.7,0H0v372.8h113.7V0z"/>
</svg>
