<?xml version="1.0" encoding="utf-8"?>
<!-- Generator: Adobe Illustrator 24.3.0, SVG Export Plug-In . SVG Version: 6.00 Build 0)  -->
<svg version="1.1" id="レイヤー_1" xmlns="http://www.w3.org/2000/svg" xmlns:xlink="http://www.w3.org/1999/xlink" x="0px"
	 y="0px" width="113.7px" height="582.8px" viewBox="0 0 113.7 582.8" style="enable-background:new 0 0 113.7 582.8;"
	 xml:space="preserve">
<style type="text/css">
	.st0{fill:#FFFFFF;}
</style>
<path class="st0" d="M37.2,20.5c2.5,0.8,3.6,1.5,4.5,2.6c0.6,0.8,1,1.7,1,2.5c0,0.8-0.5,1.4-1.1,1.4c-0.7,0-0.7-0.1-2-3
	c-0.3-0.7-1.2-1.7-2.6-2.9L37.2,20.5z M44.7,31.6c-1.7,5.9-1.8,6.3-1.8,8c0,0.7,0.4,3.9,0.8,6.4c0.1,0.5,0.1,1,0.1,1.3
	c0,1.2-0.8,2.3-1.8,2.3c-1,0-1.4-0.7-1.4-2.1c0-0.4,0-0.4,0.3-2.6c0.1-0.8,0.1-1.5,0.1-2.3c0-2.1-0.3-3.9-0.8-4.6
	c-0.5-0.7-1.2-1-3-1.5l0.1-0.8l3.9,0.1l6.8-18.8l0.8,0.2L44.7,31.6z M40.3,11.4c2.7,0.8,3.1,0.9,4.1,1.6c1.1,0.8,1.6,1.6,1.6,2.4
	c0,0.9-0.5,1.6-1.3,1.6c-0.6,0-0.6,0-1.7-2c-1-1.7-1.6-2.3-2.9-3.1L40.3,11.4z M51.5,48.1c0,0.6-0.1,0.8-0.8,1.2
	c-0.5,0.3-0.7,0.4-0.9,0.4c-0.3,0-0.4-0.2-0.4-0.7V10.7l2.2,1.3h6.4l0.9-1l2.1,1.5c0.1,0.1,0.3,0.3,0.3,0.4c0,0.1-0.1,0.3-0.4,0.4
	l-0.8,0.4v11.4c0,0.5-0.1,0.7-0.5,1c-0.3,0.3-0.8,0.4-1,0.4c-0.3,0-0.4-0.2-0.4-0.7v-1.8h-6.8V48.1z M58.3,17.3v-4.2h-6.8v4.2H58.3z
	 M51.5,23h6.8v-4.5h-6.8V23z M70.1,40.6c0.5,0.4,0.7,0.7,0.7,1c0,0.4-0.3,0.6-0.8,0.6H58.4c-1.7,0-2.5,0-4.4,0.1l-1.2-1.5
	c3.1,0.1,4.3,0.2,5.6,0.2h2.1v-5.2h-1c-1.5,0-2.4,0-4.4,0.1L54,34.4c3.1,0.1,4.3,0.2,5.6,0.2h1v-4.9h-1.4c-1.6,0-2.4,0-4.4,0.1
	l-1.3-1.5c3.1,0.1,4.2,0.2,5.6,0.2h6.1l1.8-2.1l1.9,1.5c0.5,0.4,0.8,0.8,0.8,1.1c0,0.4-0.3,0.6-0.8,0.6h-6.4v4.9h2.7l1.4-1.9
	l2.1,1.8c0.3,0.3,0.5,0.6,0.5,0.8c0,0.3-0.3,0.5-0.8,0.5h-5.9V41H66l1.9-2.3L70.1,40.6z M65.3,25.2c0,0.7-0.7,1.4-1.4,1.4
	c-0.4,0-0.5-0.1-0.5-0.7V10.6l2.4,1.4h5.7l0.9-1.1l2.1,1.5c0.4,0.3,0.5,0.4,0.5,0.6c0,0.2-0.2,0.4-0.4,0.6l-0.8,0.4v32.5
	c0,1.4-0.3,2.2-1,2.6c-0.5,0.4-1.8,0.8-2.3,0.8c-0.4,0-0.4,0-0.9-1.1c-0.2-0.5-0.4-0.6-1.3-0.8l-1.8-0.4v-0.9l2.7,0.1h0.9
	c1.3,0,1.7-0.3,1.7-1.2V24.2h-6.6V25.2z M71.9,17.3v-4.2h-6.6v4.2H71.9z M65.3,23h6.6v-4.5h-6.6V23z M73.7,77.9
	c0,0.9-0.8,3.3-1.5,4.7c-1.6,3-4.6,4.8-8.1,4.8c-3.1,0-5-2.1-5-5.6c0-1.4,0.2-3.2,0.8-7.1c0.1-0.8,0.2-1.5,0.2-2.1
	c0-1.8-1.2-2.9-3.1-2.9c-1.9,0-4.3,1.3-6.8,3.7c-1.9,1.8-3,3.4-3.7,5.5c-0.7,2.1-1.4,5.3-1.6,7.2c-0.1,1.3-0.4,1.8-1.1,1.8
	c-0.9,0-1.7-0.8-1.7-1.6c0-1.6,1.3-6.1,2.6-9.4c2-4.8,6.8-13.5,9.9-18.1c0.9-1.3,1.2-1.9,1.2-2.6c0-0.9-1-2-1.8-2.2
	c-0.4-0.1-0.5-0.1-0.5-0.3c0-0.3,0.7-0.5,1.6-0.5c1.9,0,4,1.8,4,3.6c0,0.7-0.2,1-1.2,1.9c-1.4,1.4-5.9,7.6-7.6,10.5
	c-1.7,3-2,3.6-2,3.8c0,0.2,0.2,0.4,0.5,0.4c0.2,0,0.4-0.1,0.7-0.5c2.5-2.9,5.9-4.8,8.3-4.8c2.6,0,4.8,2.3,4.8,5.1
	c0,0.5-0.2,2.1-0.6,4.3c-0.5,3.1-0.5,3.4-0.5,4.6c0,2.3,0.9,3.4,2.9,3.4c2.6,0,4.8-1.2,6.7-3.8c0.8-1,1.7-2.9,1.9-3.7
	c0.1-0.3,0.2-0.4,0.3-0.4C73.6,77.5,73.7,77.7,73.7,77.9z M58.7,99.2c0.4,0.1,0.6,0.3,0.6,0.7c0,1.2-2.1,2.6-6.5,4.4
	c-0.8,4-3.1,12.9-4.4,17.1c-1,3.5-1,3.5-1.3,4.2c-0.5,1.3-1,1.9-1.8,1.9c-0.8,0-1.7-1.1-1.7-2c0-0.3,0.1-0.6,0.6-1.5
	c2.4-4,4.9-11.6,6.5-19c-2.6,1.1-4.4,1.6-5.5,1.6c-1.7,0-2.9-0.8-3.7-2.4c-0.3-0.6-0.5-1.4-0.5-1.8c0-0.2,0.1-0.3,0.2-0.3
	c0,0,0.1,0,0.2,0.2c0.5,1.2,1.8,2,3.4,2c1.5,0,3.8-0.5,6.3-1.4c0.3-1.7,0.7-5,0.7-5.8c0-1.9-0.3-2.4-1.6-2.6l-0.7,0
	c-0.3,0-0.4,0.1-0.5,0.1l-0.2,0.1c-0.1,0-0.2-0.1-0.2-0.1c0-0.4,2-1.6,2.9-1.6c0.5,0,1.5,0.3,2.1,0.7c0.6,0.3,1,0.7,1,1
	c0,0.1,0,0.2-0.1,0.3c-0.1,0.3-0.1,0.4-0.2,0.8c0,0-0.1,0.5-0.3,1.5c2.2,1.4,3.5,2,4.3,2C58.4,99.2,58.5,99.2,58.7,99.2L58.7,99.2z
	 M56.5,100c0-0.3-0.3-0.6-1.1-1.2c-0.5-0.4-1-0.8-1.5-1.1c-0.1,0.4-0.2,0.8-0.2,0.9c0,0.1-0.1,0.7-0.3,1.5c0,0.4-0.1,0.8-0.5,2.4
	C55.8,100.9,56.5,100.4,56.5,100z M72.7,123.9c0,1.3-1.6,2-5,2c-6.7,0-10-2.2-10-6.5c0-1.9,0.8-4.8,1.3-4.8c0.1,0,0.2,0.1,0.2,0.3
	c0,0,0,0.1,0,0.2c-0.2,0.5-0.4,2.1-0.4,2.9c0,3.8,2,5.2,7.3,5.2c1.7,0,3.3-0.1,4.4-0.4c0.7-0.2,0.7-0.2,0.8-0.2
	C72.1,122.5,72.7,123.2,72.7,123.9z M64.6,108.9c0.4-0.2,1-0.6,1.5-0.8c1.4-0.8,1.6-0.9,1.6-1.2c0-0.5-1.8-1.1-3.4-1.1
	c-1.3,0-2.9,0.4-3.6,1c-0.1,0.1-0.2,0.1-0.2,0.1c-0.1,0-0.2-0.1-0.2-0.2c0-0.1,0.4-0.5,0.6-0.7c1.2-1,3-1.6,4.9-1.6
	c3.3,0,6.1,1.7,6.1,3.8c0,0.7-0.3,1.1-0.7,1.1c-0.2,0-0.3,0-0.8-0.2c-0.6-0.3-1.3-0.4-2.1-0.4c-1.1,0-2.9,0.5-4.1,1.1l-0.2,0
	c-0.1,0-0.3-0.1-0.3-0.2c0-0.1,0-0.1,0.4-0.4L64.6,108.9z M68.9,99.4c0,0.7-0.5,1.3-1.2,1.3c-0.4,0-0.6-0.2-0.8-0.7
	c-0.7-1.5-2.4-3-4.1-3.5c-0.3-0.1-0.3-0.1-0.3-0.2c0-0.1,0.7-0.3,1.3-0.3C66.3,96.1,68.9,97.7,68.9,99.4z M73.4,97.4
	c0,0.8-0.5,1.4-1.2,1.4c-0.5,0-0.5-0.1-1-1c-0.8-1.6-2.4-2.9-4.1-3.4c-0.1,0-0.1,0-0.1-0.1c0-0.1,0.5-0.3,1.1-0.3
	C70.8,94.1,73.4,95.7,73.4,97.4z M58.2,141.9c0.3,0,0.5,0,0.6,0c2.1,0,5.3-0.9,6.7-1.9c0.2,0.1,0.4,0.2,0.6,0.4l0.4,0.3
	c1.2,0.7,1.5,1,1.5,1.5c0,0.9-1.6,1.2-5.3,1.2c-1.8,0-2.8-0.1-4.5-0.5l0,0.7c0.3,5.8,0.3,6.3,1.2,13c5.5,1.8,9.2,4.4,9.2,6.3
	c0,0.8-0.7,1.5-1.5,1.5c-0.6,0-1-0.3-1.8-1.2c-1.9-2.4-3.7-3.7-5.6-4.4c-0.2,1.8-0.5,2.9-1.3,3.9c-1,1.4-3.4,2.3-5.9,2.3
	c-4.5,0-8.1-2.3-8.1-5c0-2.5,3.1-4.3,7.5-4.3c1.3,0,4,0.4,5.4,0.7c-0.8-4.6-1.3-11.1-1.3-16.1c0-0.8,0-1.5,0-2.5V137
	c0-1.7-0.3-2.7-1.1-3.3c-0.3-0.3-1.2-0.6-1.6-0.6l-0.7,0c-0.1,0-0.2-0.1-0.2-0.2c0-0.4,2.2-1.5,3-1.5c1.3,0,3.7,1.7,3.7,2.7
	c0,0.2-0.1,0.6-0.2,1c-0.5,1.2-0.8,3.8-0.8,5.7V141.9z M57.4,158.1c-2.8-0.8-3.9-1-5.8-1c-3.3,0-5.3,1.1-5.3,2.9
	c0,1.8,2.5,3.1,5.9,3.1c3.6,0,5.2-1.5,5.2-4.8V158.1z M48.2,182.2c0,0.4,0.2,1.1,0.3,1.5c0.4,0.7,0.8,1,1.6,1c0.7,0,1.1-0.2,3.1-1.3
	c3.2-1.9,5.2-2.6,7-2.6c3.4,0,6,3.6,6,8.1c0,5.2-2.1,9.9-5.8,13c-2.5,2.1-5.6,3.7-9.2,4.7l-0.6,0.1c-0.2,0-0.3,0.1-0.4,0.1
	c-0.2,0-0.4-0.2-0.4-0.4s0.1-0.3,0.4-0.4c1.7-0.4,4.3-1.8,6.3-3.3c2.4-1.7,4.1-3.7,5.3-6.1c1-2,1.6-5.2,1.6-7.6c0-4.1-1.7-7-3.9-7
	c-2.2,0-5,1.7-7.9,4.9c-0.5,0.5-1.1,0.8-1.6,0.8c-1.4,0-3-2-3-3.7c0-1,0.5-2.4,0.9-2.4c0.1,0,0.2,0,0.2,0.2c0,0,0,0.1,0,0.2V182.2z
	 M56,174.7c-1.9,0-3.9-2.2-3.9-4.3c0-1,0.1-1.3,0.3-1.3c0.1,0,0.1,0,0.1,0.3c0,0.7,0.4,1.5,1,2.1c1,1,2.4,1.5,4.5,1.5
	c0.5,0,1.3,0,1.8-0.1c0.2,0,0.4,0,0.5,0c1,0,1.9,1.1,1.9,2.3c0,0.5-0.5,0.9-1.1,0.9c-0.1,0-0.3,0-0.4,0c-0.7-0.1-1.5-0.2-2.1-0.2
	c-2,0-3.9,0.4-5.2,1.1c-0.1,0.1-0.1,0.1-0.2,0.1c-0.1,0-0.2-0.1-0.2-0.2c0-0.2,1-0.9,2.7-1.9l0.2-0.1c0,0,0.1,0,0.2-0.1H56z
	 M58,214.6c0.4,0,1.2,0.8,1.2,1.2c0,1.1-2.3,2.5-6.2,3.8c-1.1,3.7-2.4,7-5,13c-1.7,3.8-2.7,5.2-3.9,5.2c-0.9,0-1.7-0.8-1.7-1.6
	c0-0.5,0.3-0.9,1-1.8c3-3.4,6-9.1,7.8-14.7c-1.6,0.4-3.1,0.7-4.2,0.7c-1.4,0-2.4-0.6-3.3-2c-0.3-0.5-0.8-1.7-0.8-2
	c0-0.1,0.1-0.2,0.2-0.2c0,0,0.1,0,0.2,0.1c0.6,1.3,2.1,2.1,4,2.1c1.2,0,2.3-0.2,4.3-0.8c0.5-1.6,1-4.2,1-4.9c0-1.2-0.7-2.1-1.6-2
	l-0.3,0c0,0-0.1,0-0.1,0l-0.2,0l-0.2-0.2l0-0.1c0.2-0.3,1.7-0.8,2.4-0.8c1.1,0,2.5,1,2.5,1.8c0,0.1-0.1,0.4-0.3,0.8
	c-0.1,0.2-0.1,0.4-0.3,0.9c1.6,1.1,2.4,1.5,2.9,1.5L58,214.6z M61.3,236.5c0-2.3,0-3.4,0-4c0-3.7,0.4-5.3,1.8-6.8c1-1,2-1.6,3.4-2
	c1.6-0.4,1.9-0.7,1.9-1.1c0-1-2.4-2.2-4.5-2.2c-0.5,0-1.3,0.1-1.4,0.2c-0.1,0-0.2,0-0.2,0c-0.1,0-0.2-0.2-0.2-0.3
	c0-0.5,1.7-1.1,3.1-1.1c3.8,0,7.1,2.2,7.1,4.7c0,0.6-0.4,1.1-0.9,1.1c-0.2,0-0.5-0.1-0.9-0.3c-0.6-0.3-1.6-0.4-2.4-0.4
	c-1,0-2.2,0.3-3.1,0.8c-1.1,0.7-1.9,2.4-1.9,4.3c0,0.7,0,1.5,0.1,2.5c0.2,2.1,0.3,3.1,0.4,5.4c4.3,1.3,7.7,3.8,7.7,5.7
	c0,0.7-0.5,1.3-1.2,1.3c-0.6,0-0.9-0.2-1.7-1.1c-1-1.2-3.6-3.2-4.9-3.8c-0.1,2.3-0.4,3.3-1.3,4.3c-1,1.1-2.5,1.7-4.5,1.7
	c-3.6,0-6-1.8-6-4.4c0-2.7,2.6-4.4,6.6-4.4c1.3,0,2.1,0.1,3.1,0.3V236.5z M61.3,238.8c-1.1-0.5-2.3-0.8-3.9-0.8
	c-2.8,0-4.3,1-4.3,2.9c0,1.6,1.7,2.7,4.1,2.7c1.8,0,3.3-0.8,3.8-2c0.3-0.5,0.3-1.3,0.3-2.4v-0.1V238.8z M56.5,215.4
	c0-0.3-0.5-0.8-1.9-1.8c-0.5,1.6-0.8,2.5-1.2,3.7C55.5,216.5,56.5,215.9,56.5,215.4z M66.2,253.1c4.2,0.6,7.7,3.7,7.7,6.9
	c0,1.4-0.8,2.4-1.9,2.4c-0.3,0-0.6-0.2-0.8-0.4c-0.5-0.5-0.5-0.5-1.3-3.8c-0.8-2.2-1.7-3.2-3.9-4.6L66.2,253.1z M49.8,313.3
	c-1.4,1.2-3.7,2.6-4.3,2.6c-0.2,0-0.4-0.2-0.4-0.3c0-0.2,0-0.2,1.1-1c3.6-2.6,7-7.6,9.2-13.5c1.1-3.2,1.8-6.1,1.8-7.9
	c0-1-0.3-1.4-1.5-1.8c-0.1,0-0.2-0.1-0.2-0.2c0-0.2,1-0.5,1.6-0.5c0.7,0,2.4,1.3,3.4,2.5c1.7-1,4.6-3.1,5.8-4.1
	c1-0.9,1.3-1.3,1.3-1.8c0-0.7-0.8-1-2.6-1c-1.9,0-7.3,0.7-10.4,1.3c-3.7,0.8-4.9,1.1-6.5,2c-0.4,0.2-0.6,0.2-0.9,0.2
	c-0.9,0-2.2-0.9-3-1.9c-0.5-0.6-0.8-1.7-0.8-2.6c0-0.3,0.2-0.5,0.4-0.5c0.1,0,0.1,0,0.3,0.3c0.5,1,1.9,1.8,3.2,1.8
	c0.3,0,0.6,0,1.1,0c0.6-0.1,1.2-0.1,1.7-0.2c1-0.1,1.9-0.2,2.9-0.3c10.3-1,13.2-1.5,14.2-2c0.6-0.2,0.7-0.3,1-0.3c0.6,0,0.6,0,2.7,2
	c1.9,1.8,1.9,1.8,1.9,2.1c0,0.4-0.3,0.5-0.9,0.7c-0.8,0.2-0.8,0.2-2.8,1.2c-4.4,2.1-6.5,3.2-8.9,4.3C58.4,302,54.4,309.4,49.8,313.3
	z M53.8,330.7c0,0.7-0.6,1.4-1.4,1.4c-0.4,0-0.8-0.4-1.2-1.1c-1-2.3-4.1-4.8-6.4-5.4c-0.6-0.1-0.7-0.2-0.7-0.3
	c0-0.2,0.7-0.4,1.5-0.4C49.3,324.9,53.8,328.1,53.8,330.7z M46.3,344.4c0.3,1.2,1.6,2.2,2.6,2.2c1.9,0,8-4,13.7-9
	c4.1-3.7,9-8.9,11.1-11.8c0.1-0.2,0.2-0.3,0.4-0.3c0.2,0,0.3,0.1,0.3,0.3c0,0.7-1.5,3.2-3.3,5.7c-4.5,6.1-11.2,12.3-18.2,16.5
	c-1.5,0.9-1.6,1-2.2,1.4c-0.5,0.4-0.7,0.5-1,0.5c-1,0-2.7-1.3-3.7-2.8c-0.4-0.6-0.5-1.1-0.5-2.3c0-0.7,0.1-1,0.4-1
	C46,344,46.1,344.1,46.3,344.4z M46,382.4c-0.8,0.2-1.1,0.3-1.6,0.3c-0.9,0-1.8-0.5-2.8-1.6c-0.5-0.6-1-1.9-1-2.6
	c0-0.1,0.1-0.2,0.1-0.2c0.1,0,0.2,0,0.3,0.2c1,1,1.8,1.2,4,1.2c5.5,0,21.4-1.7,23.9-2.6c0.7-0.3,0.8-0.3,1-0.3
	c0.6,0,1.9,0.5,3.5,1.4c0.8,0.4,1.3,1,1.3,1.5c0,0.6-0.5,1-1,1c-0.2,0-0.5,0-0.8-0.1c-1.8-0.4-5.6-0.7-7.6-0.7
	C59.5,380,50.4,381.1,46,382.4z M55.6,367.1c-2.1,0.4-2.7,0.5-3.6,0.5c-1.4,0-2.2-0.6-3.4-2.3c-0.3-0.5-0.6-1-0.6-1.1
	c0-0.1,0.1-0.2,0.1-0.2s0.1,0,0.2,0.1c0.7,0.8,1.7,1.1,3.7,1.1c3.2,0,7-0.8,9-2c0.6-0.3,0.9-0.5,1.2-0.5c0.2,0,0.2,0,2.3,0.8
	c0.6,0.2,1.2,0.8,1.2,1.2c0,0.4-0.3,0.6-0.9,0.7c-0.7,0.1-1.2,0.2-1.3,0.2c-0.9,0.1-1.7,0.3-2.6,0.5c-1.2,0.2-2.3,0.4-3.5,0.6
	L55.6,367.1z M63.1,402.4c0-0.4,0.1-0.9,0.1-0.9c0-0.2,0-0.4,0-0.5c0-0.6-0.5-1.1-1.2-1.1c-1.3,0-4.5,0.9-7.3,2.1
	c-0.6,0.3-0.9,0.4-1.2,0.4c-0.4,0-1.1-0.4-1.7-1c-0.5-0.5-0.7-1-0.7-1.9c0-0.7,0-0.9,0.3-0.9c0.1,0,0.1,0,0.1,0.1
	c0.3,0.9,1.1,1.3,2.4,1.3c2.3,0,7.6-1.2,9-2c0.4-0.2,0.5-0.3,0.8-0.3c0.6,0,3,2,3,2.5c0,0.1-0.1,0.2-0.3,0.5
	c-0.7,0.6-0.9,1.2-2.9,10.2c5.2-0.5,6.5-0.6,8.3-1c0.2,0,0.3,0,0.4,0c0.3,0,0.7,0.2,2,1.2c0.9,0.6,1.2,1,1.2,1.4
	c0,0.4-0.5,0.8-0.9,0.8c-0.2,0-0.5,0-1-0.2c-1.1-0.3-5.4-0.7-7.5-0.7c-3.1,0-7.4,0.4-11.4,1c-1.8,0.3-2.6,0.5-4.1,1
	c-1.1,0.5-1.3,0.5-1.6,0.5c-0.4,0-1.1-0.4-2.5-1.3c-0.7-0.5-1.1-1-1.1-1.4c0-0.3,0.4-1.2,0.5-1.2c0,0,0,0,0,0.1
	c0,0.6,1.6,1.1,3.3,1.1c0.3,0,0.6,0,1.2-0.1c0.6,0,1.9-0.1,3.8-0.3c2.7-0.2,4.6-0.4,7.3-0.7C62.6,406.6,62.8,405.3,63.1,402.4z
	 M60.5,459.3c0,1-0.3,1.6-1,1.6c-0.4,0-1.2-0.2-1.7-0.5c-0.6-0.3-0.8-0.6-0.8-1.1c0-0.2,0-0.2,0.2-1.5c0.6-4.5,1-10.9,1-15.4
	c0-1.5-0.1-1.8-0.8-2.8c-4.1,4.4-8,7.6-11.7,9.6c-1.4,0.8-3.8,1.9-4.2,1.9c-0.1,0-0.3-0.1-0.3-0.2s0.1-0.2,0.3-0.3
	c6.9-3.2,20.1-17.5,20.1-21.7c0-0.5-0.8-1.3-1.7-1.5c-0.1,0-0.2-0.1-0.2-0.2c0-0.2,1-0.6,1.5-0.6c1.6,0,4.7,2.2,4.7,3.4
	c0,0.3-0.1,0.4-0.5,0.5c-0.6,0.4-0.7,0.4-1.5,1.5c-1.9,2.4-4.2,5.2-5.7,6.9c2.1,1,2.8,1.5,2.8,1.8c0,0.1,0,0.2-0.2,0.5
	c-0.3,0.6-0.4,1.9-0.4,3.8c0,6.5,0,11.3,0.2,12.7L60.5,459.3z M58,472.9c0.4,0,1.2,0.8,1.2,1.2c0,1.1-2.3,2.5-6.2,3.8
	c-1.1,3.7-2.4,7-5,13c-1.7,3.8-2.7,5.2-3.9,5.2c-0.9,0-1.7-0.8-1.7-1.6c0-0.5,0.3-0.9,1-1.8c3-3.4,6-9.1,7.8-14.7
	c-1.6,0.4-3.1,0.7-4.2,0.7c-1.4,0-2.4-0.6-3.3-2c-0.3-0.5-0.8-1.7-0.8-2c0-0.1,0.1-0.2,0.2-0.2c0,0,0.1,0,0.2,0.1
	c0.6,1.3,2.1,2.1,4,2.1c1.2,0,2.3-0.2,4.3-0.8c0.5-1.6,1-4.2,1-4.9c0-1.2-0.7-2.1-1.6-2l-0.3,0c0,0-0.1,0-0.1,0l-0.2,0l-0.2-0.2
	l0-0.1c0.2-0.3,1.7-0.8,2.4-0.8c1.1,0,2.5,1,2.5,1.8c0,0.1-0.1,0.4-0.3,0.8c-0.1,0.2-0.1,0.4-0.3,0.9c1.6,1.1,2.4,1.5,2.9,1.5
	L58,472.9z M61.3,494.7c0-2.3,0-3.4,0-4c0-3.7,0.4-5.3,1.8-6.8c1-1,2-1.6,3.4-2c1.6-0.4,1.9-0.7,1.9-1.1c0-1-2.4-2.2-4.5-2.2
	c-0.5,0-1.3,0.1-1.4,0.2c-0.1,0-0.2,0-0.2,0c-0.1,0-0.2-0.2-0.2-0.3c0-0.5,1.7-1.1,3.1-1.1c3.8,0,7.1,2.2,7.1,4.7
	c0,0.6-0.4,1.1-0.9,1.1c-0.2,0-0.5-0.1-0.9-0.3c-0.6-0.3-1.6-0.4-2.4-0.4c-1,0-2.2,0.3-3.1,0.8c-1.1,0.7-1.9,2.4-1.9,4.3
	c0,0.7,0,1.5,0.1,2.5c0.2,2.1,0.3,3.1,0.4,5.4c4.3,1.3,7.7,3.8,7.7,5.7c0,0.7-0.5,1.3-1.2,1.3c-0.6,0-0.9-0.2-1.7-1.1
	c-1-1.2-3.6-3.2-4.9-3.8c-0.1,2.3-0.4,3.3-1.3,4.3c-1,1.1-2.5,1.7-4.5,1.7c-3.6,0-6-1.8-6-4.4c0-2.7,2.6-4.4,6.6-4.4
	c1.3,0,2.1,0.1,3.1,0.3V494.7z M61.3,497c-1.1-0.5-2.3-0.8-3.9-0.8c-2.8,0-4.3,1-4.3,2.9c0,1.6,1.7,2.7,4.1,2.7c1.8,0,3.3-0.8,3.8-2
	c0.3-0.5,0.3-1.3,0.3-2.4v-0.1V497z M56.5,473.6c0-0.3-0.5-0.8-1.9-1.8c-0.5,1.6-0.8,2.5-1.2,3.7C55.5,474.8,56.5,474.1,56.5,473.6z
	 M41.9,514.7h4.5l1-1.3l2.2,1.7c0.2,0.2,0.4,0.4,0.4,0.6c0,0.2-0.1,0.3-0.4,0.4l-0.8,0.4v27.5c0,0.5-0.9,1.1-1.7,1.1
	c-0.3,0-0.3-0.1-0.3-0.5v-2h-5.3v4c0,0.3-0.1,0.4-0.5,0.6c-0.5,0.4-0.9,0.5-1.1,0.5c-0.3,0-0.3-0.2-0.3-0.6v-34.1L41.9,514.7z
	 M41.6,531.9h5.3v-7.2h-5.3V531.9z M41.6,533.1v8.4h5.3v-8.4H41.6z M46.9,515.9h-5.2v7.7h5.2V515.9z M61.4,543.6h-4.7
	c-1.3,0-2.4,0-4.7,0.1l-1-1.5c2.9,0.1,4,0.2,5.6,0.2h4.8v-3.8h-7v1.2c0,0.6-0.6,1.2-1.3,1.2c-0.3,0-0.4-0.1-0.4-0.4V527l2,1h14.9
	l0.6-1.1l2.3,1.5c0.3,0.2,0.4,0.4,0.4,0.5c0,0.1-0.1,0.3-0.4,0.4l-0.7,0.4v9.1c0,0.5-0.9,1.1-1.7,1.1c-0.2,0-0.3-0.1-0.3-0.3v-1
	h-6.8v3.8h6l1.9-1.9l2.5,1.8c0.3,0.3,0.5,0.5,0.5,0.8c0,0.3-0.3,0.5-0.7,0.5H63.1v4.4h8.2l2.2-2.2l2.6,2.1c0.4,0.4,0.6,0.6,0.6,0.9
	c0,0.3-0.3,0.4-0.7,0.4H55c-0.5,0-1.6,0-2.7,0l-2.9,0.1l-1.6-1.5c3.7,0.1,5.2,0.2,7.2,0.2h6.4V543.6z M49.8,523.9
	c2,0,3.7,0.1,4.4,0.1c1.3,0,2.2,0.1,2.6,0.1h0.6c-0.1-0.4-0.2-0.7-0.2-0.8c-0.1-0.6-0.2-1.2-0.3-1.9c-0.5-1.8-1.2-3-2-4
	c-0.8,0-1.3,0-2.8,0.1l-1-1.5c3.2,0.1,4.3,0.2,5.5,0.2h4.7V510l2.9,0.5c0.4,0,0.6,0.2,0.6,0.4c0,0.2-0.1,0.3-0.4,0.4l-1,0.5v4.3h6.2
	l2.1-2.3l2.6,2.3c0.3,0.2,0.4,0.5,0.4,0.7c0,0.4-0.3,0.6-0.8,0.6h-6.7l1.2,0.7c0.3,0.2,0.4,0.4,0.4,0.5c0,0.3-0.1,0.4-0.6,0.6
	l-0.8,0.4c-1.1,2.3-1.4,3-2.2,4.5h6.4l2.1-2.3l2.6,2.1c0.3,0.2,0.4,0.5,0.4,0.8c0,0.4-0.2,0.6-0.6,0.6H56.8c-0.3,0-1.3,0-2.6,0
	c-0.5,0-1.8,0-3.4,0.1L49.8,523.9z M61.4,532.7v-3.5h-7v3.5H61.4z M54.5,537.4h7v-3.6h-7V537.4z M64.2,524c0.7-1.9,1.2-3.8,1.6-6.6
	h-9.9l1.4,1.5c1.4,1.4,2,2.5,2,3.7c0,0.6-0.1,0.9-0.6,1.5H64.2z M70,532.7v-3.5h-6.8v3.5H70z M63.1,537.4H70v-3.6h-6.8V537.4z
	 M74.4,562c0,2.8-2.1,5.1-4.8,5.1c-2.6,0-4.8-2.3-4.8-5.1c0-2.8,2.2-5,4.9-5C72.3,557,74.4,559.3,74.4,562z M66.2,562
	c0,2,1.6,3.7,3.4,3.7c1.9,0,3.5-1.6,3.5-3.7c0-2-1.6-3.6-3.5-3.6C67.7,558.4,66.2,560.1,66.2,562z M113.7,0H0v582.8h113.7V0z"/>
</svg>
