<svg id="レイヤー_1" data-name="レイヤー 1" xmlns="http://www.w3.org/2000/svg" width="270.79mm" height="45.52mm" viewBox="0 0 767.59 129.03">
  <defs>
    <style>
      .cls-1 {
        fill: #fff;
      }
    </style>
  </defs>
  <path class="cls-1" d="M38.18,51.66c-5,0-7.83.1-15.48.49l-3.13-3.59C30.08,49,34,49,38.09,49H49.24a109.26,109.26,0,0,0,6.27-12.9l6.26,3.4c.74.39,1.11.77,1.11,1.16s-.83,1-1.75,1.17l-2.77.29C56.52,45.55,56.25,46,54.49,49H90.06L95,43.51l5,3.79c1.66,1.26,2.58,2.42,2.58,3.3S102,51.66,101,51.66H53a78.84,78.84,0,0,1-4.7,6.89l2.12,1.26H79.28l2-2.62L86,60.3c.64.48.92.87.92,1.35s-.28.88-1.11,1.26l-1.47.78V78.53c0,1.17-.09,1.36-.92,1.84a10.21,10.21,0,0,1-2.58,1.17c-.46,0-.83-.49-.83-1.17V76.49H49.43v2.24c0,1.16-.19,1.45-1.29,2.23A4.22,4.22,0,0,1,45.74,82c-.46,0-.64-.19-.64-1.06V62.72A75.57,75.57,0,0,1,25.74,79.11C21.14,82,19.85,82.7,19,82.7a.77.77,0,0,1-.83-.77c0-.78.09-.88,4.24-3.69A87.45,87.45,0,0,0,47.77,51.66Zm-.46-18.43c-3.31,0-6.45.1-15.57.49l-2.67-3.59c9.49.39,12.44.48,18.61.48h6.64v-11l5,.58c1.66.29,2.58.68,2.58,1.36a1.57,1.57,0,0,1-.92,1.16L49,24v6.59H68.32v-11l5.8.68c1.38.09,1.85.38,1.85,1.06,0,.49-.28.87-1,1.36l-2.39,1.55v6.4H87.39l5.16-5.33,5.81,4.36c1,.78,1.47,1.46,1.47,2.23,0,1.07-.37,1.36-1.75,1.36H72.56V40.7a3.83,3.83,0,0,1-3.32,3.49c-.55,0-.92-.68-.92-1.45V33.23H49v8.34a3.66,3.66,0,0,1-3.51,3.21c-.46,0-.73-.49-.73-1.36V33.23ZM34.5,82.9a37.11,37.11,0,0,1,.83,6.79c0,6.4-4.24,14.06-7.83,14.06a3,3,0,0,1-2.86-3.1c0-1.36.64-2.52,2.58-4.46,4.7-4.85,5.53-6.7,5.8-13ZM52,84.64c1.1.1,1.66.58,1.66,1.36s-.28,1.07-1.29,1.65l-1.48,1V98.9c0,2.33.28,2.43,8.2,2.43a135.68,135.68,0,0,0,15.48-.68c3.5-.49,4.24-1.17,4.89-4.85l1.75-9.31,1.56-.1-.18,8.92-.09.88A3.54,3.54,0,0,0,83.24,99c1.39,1.65,1.57,2,1.57,2.81,0,3.2-5.34,4.37-20.18,4.37-4.79,0-11.89-.29-14.1-.49-2.85-.39-3.78-1.16-3.78-3.3V84.06ZM49.43,73.88H80V62.43H49.43Zm8.47,5.91c4,1.07,5.81,1.85,7.93,3.3C69.15,85.22,71,87.84,71,90.37c0,1.84-1.2,3.49-2.49,3.49-1,0-1.57-.78-2.86-3.49-2.21-4.37-3.41-5.73-8.1-9.22Zm29.68,1.65c7,2.82,9.4,4.08,11.61,6.31,2.58,2.62,4.33,6.2,4.33,8.82,0,1.65-1,2.91-2.4,2.91s-2.21-.87-3.59-4.26a28.61,28.61,0,0,0-10.6-12.61Zm34.13-51.21a.58.58,0,0,1-.44-.47,5.59,5.59,0,0,1,1.51-1.6c1.7-1.5,3-2.16,4.38-2.16,3.39,0,7.32,2.45,7.41,4.7a38.14,38.14,0,0,0,5,11.75,17.21,17.21,0,0,0,3-1.79s1.34-1.12,2.59-2.25a2.9,2.9,0,0,1,2.41-1.13c1.52,0,3.75,1.79,3.75,2.91,0,1.51-3.48,3.76-9.64,6.4.8,1.5,3.75,6.58,5.53,9.4,3.57-1.32,10.63-5.74,11.88-7.43,1-1,1.25-1.22,1.69-1.22,2.59,0,5.81,1.5,5.81,2.82,0,2-7.41,6.2-17,9.77,2.15,3.48,5.72,8.65,8.4,12.13,2.41,3.29,3.21,5.17,3.21,7.8,0,3.48-2.05,6.39-4.46,6.39-.45,0-.9-.28-1.7-1-4.2-4.42-12.68-8-18.84-8-7.68,0-13.13,4-13.13,9.77,0,5.55,4.82,8.27,14.82,8.27a24.06,24.06,0,0,0,5.45-.37,10.29,10.29,0,0,1,1.61-.1c2.14,0,3.3.94,3.3,2.64q0,3.94-8.3,3.94c-6.43,0-12-1.12-15.09-3.1a12.42,12.42,0,0,1-6-10.43c0-7.61,6.88-12.6,17.51-12.6a30.81,30.81,0,0,1,12.41,2.82c2.41.94,2.95,1.13,3.93,1.13,1.25,0,2-.66,2-1.78,0-1.7-4.46-11-7.77-16.27a81,81,0,0,1-23.75,4.23c-6.7,0-9.91-2.63-10.36-8.36v-.19a.71.71,0,0,1,.72-.66c.18,0,.18.1.44.75,1.52,3.3,4.56,4.8,9.74,4.8a55.91,55.91,0,0,0,20.89-4.42c-1.25-2.54-1.78-3.38-5.62-10.06a52.37,52.37,0,0,1-13.31,2.17c-3.66,0-6.07-.85-7.5-2.64a7,7,0,0,1-1.52-3.47c0-.47.18-.76.54-.76s.53.1.62.66c.54,2.16,2.77,3.39,6,3.39a37.86,37.86,0,0,0,12.94-2.92c-.44-.75-.71-1.22-.8-1.41-.71-1-1.52-2.16-2.23-3.29-5.09-7.52-6.7-9-9.91-9a6.2,6.2,0,0,0-2,.28ZM210,89.92c8.93-2.16,11.79-3.1,16.7-5.92,9.73-5.36,14.91-13.35,14.91-22.66,0-10.62-6.25-16.92-16.79-16.92-6.7,0-16.52,3.29-23.66,8-2.23,1.41-7.14,5.17-11.7,8.74-1.78,1.51-3,2.17-3.93,2.17-2.41,0-7.05-2.54-8.21-4.52a17.54,17.54,0,0,1-1.52-6.67.75.75,0,0,1,.71-.84c.36,0,.45.18.63.94a5.79,5.79,0,0,0,5.45,4.32c2.32,0,4.37-.94,13.39-6.11,10.54-6,20.72-9.12,30.09-9.12,12.59,0,22.15,8.74,22.15,20.4,0,11.28-6.79,19.93-19.92,25.38a64.66,64.66,0,0,1-14.28,4,38.4,38.4,0,0,1-5.72.84c-1,0-1.6-.38-1.6-.84s.26-.57,1.16-.66a9,9,0,0,1,.89-.19Zm58.13-57.53A8.68,8.68,0,0,1,272,39.63c0,1.6-.26,2.63-1.51,6.11-3.58,9.59-5.36,17.86-5.36,25.19,0,6,1.34,10.81,3.12,10.81.63,0,1.08-.47,1.52-1.88a9.16,9.16,0,0,1,.54-1.69c.36-.94.71-2,1.16-2.92,4.73-12.59,5.09-13.53,5.71-13.53a1.08,1.08,0,0,1,1,.84,9.74,9.74,0,0,1-.72,2.26c-3.57,10.06-4.91,15.23-4.91,19.27a22.74,22.74,0,0,0,.89,5.45,3.15,3.15,0,0,1,.27.94c0,1-1.43,2.26-2.68,2.26-1.52,0-4-2.07-5.44-4.42a32.57,32.57,0,0,1-4-15.79c0-5.55.71-10.72,3.12-23.78a61.25,61.25,0,0,0,1.43-10.81c0-3.29-1.25-5.83-3.57-7-.18-.09-.18-.09-.18-.28a.52.52,0,0,1,.45-.57C263.52,30,266.65,31.36,268.16,32.39ZM310,42.17a49.83,49.83,0,0,0,.18,5.64c2.77-.66,8-4,8.84-5.45.36-.57.54-.76.9-.76a21.24,21.24,0,0,1,3.66.94c1.16.57,1.6,1,1.6,1.7,0,2.16-6.6,5.82-14.55,8,.36,6.29.53,10,.53,13.06,0,16.83-4,25.76-14.64,32.33-4,2.45-8.84,4.61-10.63,4.61a.81.81,0,0,1-.8-.75c0-.47.27-.85,1.07-1A42,42,0,0,0,294,96.22c5-3.67,8.57-9.12,10.45-16,1.43-5.46,2-10.91,2-21.34,0-1.51,0-2.91-.09-5.55a34.94,34.94,0,0,1-8.75,1.41,12,12,0,0,1-8.48-4.13,7.2,7.2,0,0,1-1.52-2.54.79.79,0,0,1,.72-.75c.09,0,.26.09.44.37,1.88,2.45,3.66,3.29,7.06,3.29a31.79,31.79,0,0,0,10.09-1.88c-.54-15.88-1.25-17.48-7.24-17.48-.44,0-.71-.19-.71-.37,0-1,3.3-2.73,5.27-2.73,2.59,0,7.86,3,7.86,4.51a3.15,3.15,0,0,1-.27.94c-.63,1.6-.72,2.26-.72,6.77Zm29.48-7c.08,0,.17.19.26.47a3.31,3.31,0,0,0,3.49,2.73c3,0,11.6-3.29,15.71-6,2.14-1.5,2.86-1.78,3.93-1.78,3.13,0,9.29,4.32,9.29,6.58,0,1-.72,1.88-3,3.38-3,2-6.52,5.73-14.73,15.51-3.31,4-3.84,4.6-3.84,5.45,0,.28.53,1,.8,1,.09,0,.18-.09.45-.28A27,27,0,0,0,355,61,33.79,33.79,0,0,1,366,58.8a17.53,17.53,0,0,1,13.57,6.49,20.83,20.83,0,0,1,3.48,11.47c0,7.61-4.46,14.47-11.79,18A31.53,31.53,0,0,1,358.8,98c-8,0-13.21-3.38-13.21-8.46,0-4.13,3.39-7.05,8.39-7.05,5.71,0,10.18,3.39,12.5,9.49a2.45,2.45,0,0,1,.18.48c7-3.2,10.45-8.56,10.45-16.64,0-8.74-5.09-14.19-13.31-14.19a26.51,26.51,0,0,0-13.66,3.85c-2.95,1.6-8.3,8.46-11.16,14.19-2.5,5-3,5.64-4.47,5.64a2.86,2.86,0,0,1-2.23-1.41,11,11,0,0,1-1.16-3.38c0-.85.63-1.88,2.23-3.48,7.77-8.08,14-15.89,23.76-29.89,1.25-1.69,2.32-3.2,3-4.14,2.41-3,3.39-4.6,3.39-5.64A2.44,2.44,0,0,0,361,35.31,12.62,12.62,0,0,0,355.77,37a59,59,0,0,0-6.17,4.23c-4.73,3.29-4.73,3.29-5.44,3.29-1.25,0-3.57-1.69-4.47-3.2a8.7,8.7,0,0,1-1.16-3.76,2.48,2.48,0,0,1,.9-2.25ZM353.8,85a4,4,0,0,0-4.37,4c0,2.82,3.75,5.08,8.66,5.08a17.87,17.87,0,0,0,3.48-.38.67.67,0,0,1,.45-.09C360.5,87.66,358,85,353.8,85Zm47.83-55.29h9.86l2.3-2.81,4.88,3.78a2,2,0,0,1,.83,1.36c0,.39-.27.68-.83,1l-1.65.87V94.34c0,1.17-2,2.52-3.78,2.52-.56,0-.74-.29-.74-1.06V91.34H400.89v8.73c0,.58-.28,1-1,1.35a6.05,6.05,0,0,1-2.49,1.17c-.56,0-.74-.39-.74-1.26V26.44Zm-.74,37.93H412.5V52H400.89Zm0,2.62V88.72H412.5V70.29ZM412.5,32.36H401.07v17H412.5Zm32,60.92H434.15c-2.94,0-5.16.09-10.41.29l-2.12-3.3c6.27.29,8.76.39,12.35.39h10.51V82.31h-15.3v2.62a2.88,2.88,0,0,1-2.86,2.62c-.64,0-.83-.29-.83-1V56.71l4.33,2.13h32.62l1.39-2.42,5,3.29c.55.49.92.88.92,1.17s-.27.68-.83,1l-1.47,1v20c0,1.07-2,2.33-3.69,2.33a.51.51,0,0,1-.55-.58V82.31H448.25v8.35h13.09l4.14-4.17,5.44,3.88A2.73,2.73,0,0,1,472,92c0,.68-.56,1.07-1.48,1.07h-22.3v9.6h18l4.89-4.84,5.71,4.55c.92.78,1.38,1.36,1.38,1.94s-.64,1-1.47,1H430.38c-1.11,0-3.41,0-6,.1l-6.36.29-3.41-3.39c8.11.29,11.43.38,15.76.38h14.1ZM419,49.92c4.33.09,8.2.19,9.58.19,2.86.1,4.89.19,5.81.19h1.29c-.19-.77-.37-1.45-.46-1.74-.19-1.36-.46-2.72-.74-4.08A22.74,22.74,0,0,0,430,35.76c-1.84,0-2.86.09-6.08.19l-2.12-3.2c7.09.29,9.49.39,12.07.39H444.2V19.46l6.36,1.07c.92.09,1.38.48,1.38,1s-.28.67-.83,1l-2.3,1.16v9.51h13.54L466.87,28l5.71,4.95a2,2,0,0,1,.92,1.55c0,.88-.55,1.27-1.66,1.27H457.19l2.58,1.45c.55.39.83.78.83,1.16,0,.59-.28.88-1.29,1.36l-1.84.78c-2.4,5.14-3,6.5-4.79,9.79h14.09l4.61-4.94L477.19,50a2.23,2.23,0,0,1,.83,1.65,1.12,1.12,0,0,1-1.29,1.26H434.34c-.74,0-2.77,0-5.71.1-1,.1-4,.1-7.38.2Zm25.53,19.3V61.46h-15.3v7.76ZM429.18,79.7h15.3V71.84h-15.3Zm21.38-29.4a66.12,66.12,0,0,0,3.5-14.54H432.4l3,3.2c3.05,3,4.43,5.52,4.43,8a4.58,4.58,0,0,1-1.29,3.29Zm12.62,18.92V61.46H448.25v7.76ZM448.25,79.7h14.93V71.84H448.25ZM485.78,86c9.21,1.53,16.59,8.45,16.59,15.45,0,3.07-1.64,5.28-3.83,5.28a3.45,3.45,0,0,1-2.82-1.53c-.19-.29-.19-.29-2-7.68-1-4.42-3.37-7.39-8.3-10.56Zm70-50.33,4.79,4c.83.78,1.2,1.36,1.2,1.94a1,1,0,0,1-1,1H543.39c-1.38,0-1.56,0-10.41.19l-1.84-3.11c2.67,0,6.45.1,12.25.3h8.3Zm1.2-7.67a1.72,1.72,0,0,1,.83,1.27,1.08,1.08,0,0,1-1,1.16H536.3V27.8h12.07l3.87-4Zm-4.61,30.66,4.52,3.78a2,2,0,0,1,.83,1.45c0,.68-.37,1.17-.83,1.17H536.3V62.43h11.79ZM553.25,47l4.33,3.88c.83.77,1.11,1.26,1.11,1.84a1.1,1.1,0,0,1-1.2,1.07h-21V51.18h12.63Zm-13.08,57.62c0,.77-1.57,1.74-3,1.74a.63.63,0,0,1-.65-.58V72.91l4.89,3.1h8.84l1.2-2.42,4.79,3.1c.74.48,1,.87,1,1.45s-.28.68-1,1l-2,.78V99.68c0,1-1.2,1.65-2.86,1.65-.83,0-1.11-.2-1.11-.78v-2h-10Zm0-8.74h10V78.63h-10Zm35-43.06,4.24,2.71c.93.58,1.57,1.36,1.57,1.85s-.46,1-1.2,1.26l-1.47.48C576.57,69,574,78,570.85,84.74c3.6,5.72,6.64,8.54,11.34,10.38,4.33,1.74,11.79,2.81,19.72,2.81a113.11,113.11,0,0,0,14.83-1.07c-3.22,2.62-3.87,3.5-5.62,7.47-24.32-1.06-34.09-4.94-41.74-16.39a59.82,59.82,0,0,1-11.33,14.26c-3.51,3.39-6.64,5.82-7.56,5.82a.65.65,0,0,1-.65-.68c0-.48.19-.68,2-2.33,7.65-7.08,11.89-12.9,15.48-21.05-2.3-5.14-3.13-7.76-5.53-16.49l3.6-2.23c.73,7.37,1,8.44,3.13,15.33,3-8.34,3.59-11.16,5.16-22.6h-7.83l-1.48,3.2a1.18,1.18,0,0,1-1.29.87c-1.56,0-2.76-.58-2.76-1.26a1.55,1.55,0,0,1,.28-.77,202.54,202.54,0,0,0,10.13-27.46H561V29.93h10l1.84-2.71,4.33,3.2c.74.48,1,1,1,1.45s-.28.68-.93,1l-2.12.68c-1.1,3.11-1.47,4.08-2.39,6.6-.46,1.26-2,5.43-4.89,12.8l-1,2.43h6.82Zm8.3-7.47,5.62,1.16c1,.2,1.57.68,1.57,1.17a1.42,1.42,0,0,1-.93,1.16L587.62,50V83.58h7.65V32.26l-2,.39-6.18,1.16c-8.11,1.46-8.11,1.46-8.48,1.46a.82.82,0,0,1-.92-.87c0-.39.28-.68.92-.88C589.47,30.9,601,26.83,608,23.14l4,3.59c1.39,1.26,1.39,1.26,1.39,1.56s-.28.48-1.66.58l-2.95.1c-.83.19-1.48.38-1.94.48-2.67.68-4.51,1.16-5.16,1.26a8.22,8.22,0,0,1-1.84.39V55h4.79L609.28,49l4.79,5.24a3.59,3.59,0,0,1,1,1.94,1.27,1.27,0,0,1-1.38,1.36H599.88v26h5.71l5-6,4.7,5.63a3.34,3.34,0,0,1,1,1.84c0,.78-.55,1.16-1.56,1.16H586.15c-.55,0-1.93.1-4,.2-.74,0-3,.1-5.53.19l-2.12-3.39,7.56.39h1.38Zm80,4.65H643.19c-4.79,9.7-7.55,14.36-11.79,20.08-2.49,3.3-4.8,5.63-5.62,5.63a.9.9,0,0,1-.93-1,2.42,2.42,0,0,1,.74-1.46c9-12,15.76-28.13,19-45.2l8.3,3a1.52,1.52,0,0,1,1,1.26,1.21,1.21,0,0,1-.92,1.07l-3.5,1.16c-2.12,5.82-3,8-5.16,12.8h19.16V23.05l8.39,1.06a1.65,1.65,0,0,1,1.29,1.65,1.57,1.57,0,0,1-.83,1.46L668.53,29V47.39h20.09l5.71-6.11,6.73,6.11a2.13,2.13,0,0,1,.65,1.46c0,.68-.37,1.16-.93,1.16H668.53V71.84h15.76L689.63,66l6.64,5.82a2.21,2.21,0,0,1,.83,1.65,1.08,1.08,0,0,1-1.2,1H668.53v26.28H693l5.71-5.82,6.64,5.53a2.58,2.58,0,0,1,1,1.65,1.28,1.28,0,0,1-1.38,1.26H641.07c-3.5,0-6.63.1-15.11.39l-2.3-3.49c8.94.39,12.53.48,17.41.48h22.39V74.46H650.93c-3,.09-3.78.09-9.58.29l-2.86-3.3,7.74.29c2.21.1,4.43.1,4.7.1h12.53ZM742.71,95.4c0,5.95-4.66,10.84-10.31,10.84s-10.31-4.89-10.31-10.94a10.59,10.59,0,0,1,10.49-10.75C738.05,84.55,742.71,89.54,742.71,95.4Zm-17.88,0a7.49,7.49,0,1,0,7.39-7.88A7.71,7.71,0,0,0,724.83,95.4ZM767.59,0H0V129H767.59Z"/>
</svg>
