<svg id="レイヤー_1" data-name="レイヤー 1" xmlns="http://www.w3.org/2000/svg" width="270.79mm" height="45.52mm" viewBox="0 0 767.59 129.03">
  <defs>
    <style>
      .cls-1 {
        fill: #fff;
      }
    </style>
  </defs>
  <path class="cls-1" d="M16.18,59.13c9.21.39,12.9.49,18.15.49H85.65l6.18-6.31L98.37,59A2.75,2.75,0,0,1,99.29,61c0,.77-.55,1.26-1.56,1.26H34.33c-5,0-7.83.09-14.56.48ZM117.73,97.06a2.17,2.17,0,0,1-1.2,2.23,7.47,7.47,0,0,1-2,.87c-.46,0-.74-.48-.74-1.35v-75L118.92,27h8.85l1.84-2.33,4.24,3a3.38,3.38,0,0,1,1.47,2.14c0,.39-.55.87-1,1.06l-1.66.49V92.21a2.37,2.37,0,0,1-1,2.13,5.42,5.42,0,0,1-2.3,1.17c-.56,0-.93-.68-.93-1.55V86.29H117.73Zm0-50.64h10.68V29.64H117.73Zm0,18.34h10.68V49H117.73Zm0,18.91h10.68V67.38H117.73Zm33.63-28.61c.92.29,1.47.87,1.47,1.45a1.6,1.6,0,0,1-1.29,1.36l-2.12.58L147,64.37h8.11L157,62.43l4.7,4.27a2.3,2.3,0,0,1,.64,1.45c0,.59-.36.88-1.1,1l-1.94.39c-8.47,18.33-13.91,26-23.31,33.08-3.32,2.52-7.74,5.14-8.57,5.14a1,1,0,0,1-1-.78c0-.48.46-1,1.66-1.84,9-6,13.91-11.35,20-21.82-1.29,0-1.38-.1-2.21-1.94a15.94,15.94,0,0,0-4.52-5.92c-2.67,4.07-5.71,7.76-6.35,7.76-.28,0-.37-.1-.37-.39,0-.58.18-1,2-4.27A106.23,106.23,0,0,0,146,53.12ZM141,43.52a11.21,11.21,0,0,1,1.1,4.07H174.4a150.24,150.24,0,0,0,8.84-18.82l4.89,2.62c1.47.78,1.93,1.36,1.93,2.33a.71.71,0,0,1-.64.77l-3.41.68-2.49,3.4-4.7,6.21-2,2.81H187l2-2.81L195,50c1,.88,1.19,1.27,1.19,1.65,0,.68-.36,1-1.65,1.07l-3,.29c-4.06,4.37-4.52,4.85-6.73,7.18l-.92-.78c1.93-5.23,2.21-5.91,3.41-9.21H142.24c-.56,6.3-2.58,10.77-5,10.77-1.11,0-1.94-1.17-1.94-2.62,0-1,.19-1.36,2.22-4.76a15.74,15.74,0,0,0,2.39-8.82,6.17,6.17,0,0,0-.09-1.07Zm45-20.18a2.1,2.1,0,0,1,.83,1.26c0,.39-.46.58-1.2.58a6.6,6.6,0,0,1-1.29-.19l-3-.58c-2,.38-3.69.68-3.78.68-2.67.58-5.35,1.06-8,1.55-6.91,1.36-27.46,4.17-29.95,4.17-.92,0-1.47-.29-1.47-.78,0-.68.28-.77,3.5-1.36l2.77-.67c17.87-3.79,25.43-5.73,36.12-9.41ZM145.92,67c-1.66,3.3-1.93,3.78-3.68,6.89,5,2,6.17,3,7.64,6,1.66-3,2.31-4.46,5.53-12.9Zm-.18-34.63c6.36,5.24,7.83,7.18,7.83,10.28,0,2.14-1.11,3.88-2.3,3.88s-1.75-1.06-2.31-4.46c-.46-3-1.47-5-4.14-8.83ZM164.9,67.28h-2.21V64.66h14V54l4.79,1c1.11.19,1.66.58,1.66,1.26,0,.39-.18.58-.83,1l-1.47,1v6.5h5.25L189.88,60l4.51,4.36a3.12,3.12,0,0,1,1,1.94c0,.58-.56,1-1.57,1h-13V82h6L191,77.37l5.07,4.36a3.64,3.64,0,0,1,1.2,2.14c0,.48-.65.77-1.75.77H180.85V103c0,1.55,0,1.55-1.2,2.32s-1.48,1-2.21,1c-.46,0-.74-.48-.74-1.26V84.64h-9.58c-1.29,0-3,0-5.16.1l-5.07.19-2.4-3.29c5.53.29,6.73.38,10.41.38Zm-5.43-37.15c5.43,3.88,8.84,8.24,8.84,11.45,0,1.94-1.1,3.39-2.48,3.39s-2.12-1-2.68-4c-.36-2.62-2.48-7.17-4.7-10ZM169.05,82h7.65V67.28h-7.65Zm88-48.64c3.57-.85,6.07-1.5,6.6-1.69a18.32,18.32,0,0,1,3.66-.66,7.07,7.07,0,0,1,5.09,2.82c1.25,1.5,1.79,2.54,1.79,3.29A2,2,0,0,1,272.4,39a5,5,0,0,1-1.69-.38,23.73,23.73,0,0,0-7.06-1c-7.67,0-13.3,2.91-17.94,9.21-2.77,3.85-4.29,7.52-5.63,13.72a71.24,71.24,0,0,0-1.52,13.63c0,5.55,1.16,9.59,3.4,12.13,2.32,2.72,5.89,3.85,12,3.85,1.52,0,2.95-.09,4.11-.19a27.17,27.17,0,0,1,3.48-.37,4.6,4.6,0,0,1,4.29,4.79c0,1.69-2.41,2.54-7.59,2.54-15.45,0-24.74-7.52-24.74-20.12A54.73,54.73,0,0,1,240,50.67c2.23-4.41,5.45-8.83,7.68-10.71.63-.57.8-.75.8-1a.43.43,0,0,0-.44-.47A47.66,47.66,0,0,0,242,39.68c-3.75,1.31-10.27,3.76-12.42,4.7-2,.94-8.75,4.6-10,5.45-2.32,1.5-2.94,1.78-4.19,1.78A8.46,8.46,0,0,1,208,47.29a13.35,13.35,0,0,1-1.25-5.08.61.61,0,0,1,.63-.56c.18,0,.27.09.62.85.63,1.69,2.68,2.72,5.27,2.72,2.23,0,3.48-.28,8.4-1.88,18.39-5.54,18.66-5.64,29.46-8.36Zm12,27a3,3,0,0,1-2.68,2.91c-.89,0-1.34-.47-2-1.69A14.19,14.19,0,0,0,256,54c-.27-.09-.36-.18-.36-.37s.62-.38,1.78-.38C263.21,53.21,269,56.78,269,60.36Zm7.32-6.21a3.1,3.1,0,0,1-2.68,3.1c-1,0-1.33-.37-2.32-2.16a14.1,14.1,0,0,0-8.3-6.77c-.45-.09-.63-.18-.63-.37s1.16-.57,2.77-.57C270.53,47.38,276.33,51,276.33,54.15Zm22.15,23.78a22.76,22.76,0,0,1-1.16,2.16c-2.32,4.7-2.5,5.17-3.48,8.46-.54,2.54-.71,2.92-1.61,2.92-1.87,0-4.1-3.29-4.1-6.11,0-1.51.17-1.88,3.12-5,2.14-2.26,5.36-6,6.52-7.52-1.16-3-2.68-6.68-3-7.62-1.6-3.47-1.87-4.23-1.87-5.92,0-2.54.8-4,3.66-6.67,2.41-2.26,2.41-2.26,8.57-5.83V44.75l.09-4c.09-11.46-.36-12.68-5-13.53-.45,0-.62-.19-.62-.47,0-.75,2.94-2,4.73-2,3,0,7,3.38,7,6a11.06,11.06,0,0,1-.53,2.82c-1,3.85-1,4.42-1.61,10.53l-.18,1.88a7,7,0,0,1,2.59-.66c.71,0,1,.19,1.88,1.32.71.94.89,1.31.89,1.69,0,.66-.09.75-1.52,2.63-2.32,3-2.86,4.14-4.64,9.4,9.28-8.93,18.21-13.54,26.07-13.54,10.63,0,17.86,7.9,17.86,19.56,0,11.18-6.34,20.39-17.77,26.13-3.12,1.5-9.11,3.47-10.8,3.47a1.09,1.09,0,0,1-1.08-.94c0-.37.36-.56,1.7-1A41.8,41.8,0,0,0,335,88.46c7.42-5.36,10.81-12,10.81-21.15,0-11.37-4.64-17.39-13.39-17.39-5.36,0-10.27,2.16-17.51,7.62-3.57,2.63-5.09,4.13-6.69,6.76a30,30,0,0,0,.09,3.39l.08,6.86.18,5.17.18,4.89c.54,6.58.63,7,.81,8.27.08,1,.17,1.78.17,2.35A4.42,4.42,0,0,1,308,98.52a7.32,7.32,0,0,1-2.77,1.41c-1.34,0-2-1-2-3.39a61.47,61.47,0,0,0-4-20ZM305,53.21c0-1.13-.18-1.69-.62-1.69-.9,0-2.77,1-4.56,2.44-2.68,2-3.66,3.67-3.66,5.83,0,1.32.63,3.38,3.22,11.19,1-1.41,1.6-2.45,2-2.92.8-1,1.7-2.16,2.5-3.38L305,63.17Zm-.8,15.23L302,72.2l-1.43,2.35c1.16,3.1,2.59,7.89,3.48,11.18.27,1.32.54,1.88.89,1.88s.72-.75.72-1.78V84.42l-.09-4.33-.09-5.54L305.36,69V66.56Zm92.42-29.7a1.42,1.42,0,0,1,1.34,1.5c0,2.63-4.37,5.64-13.84,9.4-1.7,8.37-6,25.1-9.29,36.38s-4.19,13-6.78,13c-1.61,0-3.57-2.26-3.57-4.23,0-.66.17-1.22,1.34-3.29,5.09-8.84,10.53-24.82,13.75-40.42-5.18,2.26-9.38,3.48-11.7,3.48a8.09,8.09,0,0,1-7.77-5.17,12.44,12.44,0,0,1-1-3.76c0-.47.18-.66.44-.66s.27.09.36.47c1.16,2.73,3.84,4.23,7.32,4.23,3.13,0,8-1.13,13.31-3.1.62-3.76,1.43-10.44,1.43-12.41s-.27-3.57-.89-4.32a2.94,2.94,0,0,0-2.51-1.13c-2.32.09-2.32.09-2.41.19a1.47,1.47,0,0,1-.44.19c-.09,0-.36-.29-.36-.38l.18-.19c0-.09.09-.19.27-.28a10.9,10.9,0,0,1,5.71-2.73A12.6,12.6,0,0,1,386,26.89c1.34.66,2.05,1.41,2.05,2.17a3.9,3.9,0,0,1-.18.56,5.56,5.56,0,0,0-.44,1.69c-.45,1.79-.54,2.45-.72,3.2,4.56,2.91,7.68,4.41,9.2,4.41a.33.33,0,0,0,.27-.09.64.64,0,0,1,.26-.09Zm-11.34,6.58c6-3.39,6.61-3.86,6.61-4.7s0-.76-4.2-3.95l-1.25-.94c-.18.84-.35,1.6-.44,1.88-.09.47-.27,1.6-.63,3.19-.27,1.41-.36,1.88-1,5Zm41.08,46.15c0,2.82-3.49,4.23-10.63,4.23-14.2,0-21.16-4.61-21.16-13.82,0-4,1.7-10.25,2.77-10.25a.6.6,0,0,1,.53.57.93.93,0,0,1-.09.37,32.19,32.19,0,0,0-.8,6.21c0,7.89,4.29,10.9,15.71,10.9a39.9,39.9,0,0,0,9.11-.94,8.49,8.49,0,0,1,1.7-.37A3,3,0,0,1,426.36,91.47ZM409.21,58.38c2-1.13,2.5-1.41,5-2.72.9-.47,1.52-1.13,1.52-1.6,0-1.13-3.75-2.35-7.32-2.35-2.77,0-6,.84-7.59,2.07-.27.28-.36.28-.45.28a.58.58,0,0,1-.44-.47c0-.38,1.42-1.69,2.59-2.35a17.58,17.58,0,0,1,9.19-2.54c7.06,0,13,3.67,13,8.08,0,1.32-.63,2.26-1.52,2.26-.44,0-.53,0-1.69-.47a11.28,11.28,0,0,0-4.47-.85A22.83,22.83,0,0,0,408.5,60l-.36.09a.58.58,0,0,1-.53-.47c0-.28.08-.28.89-.75Zm44.57-22.46a22.3,22.3,0,0,1-1,5.64c-1.78,7.42-4.1,26.78-4.1,34.12,0,5.17,1.42,9.87,3.75,12.87s6.42,4.7,12,4.7a28,28,0,0,0,17.41-5.92,59.34,59.34,0,0,0,9-8.46c1.07-1.41,1.07-1.41,1.25-1.41s.36.28.36.66c0,1.69-1.07,3.67-3.84,7.14-7.32,9-14.82,13-24.73,13-6.34,0-11.26-2.17-14.65-6.4-3.12-3.94-4.46-9-4.46-16.73,0-4.13,1.07-22.09,1.87-31.67.27-3.29.45-6.11.45-7.81,0-5.16-1.43-8.08-4.11-8.08-.62,0-.8-.09-.8-.37,0-.85,1.52-1.6,3.3-1.6C449.49,25.58,453.78,30.84,453.78,35.92Zm78.76,36.75c.35,4.51.53,6.86.53,9.12,0,3.57-1.07,4.88-4,4.88-1,0-1.42-.28-1.42-1a2.49,2.49,0,0,1,.08-.66c.18-1.6.36-5.26.45-10.15C520,80.38,517.09,83.67,517.09,88c0,2.44,1.87,4.7,4.73,5.64,2.32.75,5,1,9.29,1a44.44,44.44,0,0,0,13-1.78,9.41,9.41,0,0,1,2.06-.28c1.78,0,3.75,1.59,3.75,3,0,1.6-1.88,3-4.29,3.39A108.91,108.91,0,0,1,533,100.11c-12.05,0-19.46-4.23-19.46-11.18,0-3.85,2-7.33,5.71-10.25a89,89,0,0,1,8.93-5.82V72.2a74.24,74.24,0,0,0-.71-8.37c-.72-3.94-2.32-6-4.83-6-3.83,0-9.19,5.17-14,13.44-1,1.69-1.52,2.16-2.51,2.16-.71,0-1.16-.38-1.78-1.6a8.3,8.3,0,0,1-1.25-3.29c0-.94.27-1.41,1.34-2.35C514.14,57.63,520.3,48,522,39a33.77,33.77,0,0,1-7.86,1.69c-1.61,0-3.48-1.41-4.64-3.57a9.75,9.75,0,0,1-1.16-2.92.42.42,0,0,1,.27-.28c.17,0,.35.19.62.57,1.07,1.59,2.59,2.16,5.36,2.16a24.4,24.4,0,0,0,7.86-1.5,19.26,19.26,0,0,0,.17-2.83c0-2.81-1.78-5-4.19-5-.18,0-.27-.09-.27-.18,0-.94,2.32-2.17,3.93-2.17,2.95,0,5.8,2.64,5.8,5.46a9.9,9.9,0,0,1-.71,3.57,15.12,15.12,0,0,0,6-3.2,10,10,0,0,0,1.7.94c1.43.75,1.78,1.13,1.78,1.69,0,.75-1,1.32-3.66,2.26-.26.09-1.16.37-2.41.84-1.52.48-2.23.76-4,1.32a100.46,100.46,0,0,1-10.09,19.93c3.75-1.6,4.74-1.88,6.52-1.88a8.47,8.47,0,0,1,6.7,4c1,1.32,1.34,2.44,1.61,5.07,5.35-12.59,13-19.73,21.43-19.73,5.89,0,10.89,3.85,10.89,8.36a6.48,6.48,0,0,1-2.05,4.7c-1.07.94-1.07.94-7.15,3.67-7.14,3.19-11.07,5-11.87,5.35-1.7.85-2.5,1.23-7.32,3.86Zm1.34-4c22-12.41,23.48-13.35,23.48-16S554.5,48,551.2,48c-4.38,0-9.82,4-13.57,10.06A56.75,56.75,0,0,0,532.45,69c-.09.38-.18.66-.18.66Zm50.79-25.79c-4.7,0-5.81,0-10.69.29l-2.39-3.59a122.59,122.59,0,0,0,13.08.68V18.88l7.56,1a1.43,1.43,0,0,1,1.38,1.36,1.31,1.31,0,0,1-.83,1.16l-2.86,1.26V40.31h3l4.42-4.85,4.8,4.17a2.74,2.74,0,0,1,1,1.95c0,.77-.46,1.35-1,1.35H589.92V62.82c3.78-1.55,6.55-2.81,12.72-5.92l.55,1.46C597.48,62,596,62.92,589.92,66.7V98.13c0,2.71-.73,4.17-3.22,5.82a9.19,9.19,0,0,1-4.52,1.65c-.92,0-1-.2-1.29-2.72-.09-.78-.46-1.07-2-1.65l-5.52-1.84.18-1.17,5.34.49a11,11,0,0,0,2,.1c3.14,0,3.78-.39,3.78-2.24V69.9c-3.32,1.84-3.78,2.13-6.73,3.88L577,76.11c-.46,1.16-.83,1.55-1.29,1.55s-.92-.58-1.56-1.94l-2.68-5.53c6.18-2.23,8.94-3.3,13.18-5.14Zm34.1,9a1.92,1.92,0,0,1-1,1.94A5.24,5.24,0,0,1,615.08,55c-.55,0-.92-.48-.92-1.26V41.09c-3.87,0-4.43,0-8.2.19l-2.31-3.49c5.26.39,6.08.39,10.51.49V20.91l6.72,1.26c1,.1,1.57.59,1.57,1.27,0,.48-.37.87-.92,1.16L618.77,26V38.28h14.65V20.53l6.63,1c.83.09,1.38.58,1.38,1.16a1.51,1.51,0,0,1-.64,1.26L638,25.57V38.28h7.65l4.52-5.14,5.71,4.56a3.34,3.34,0,0,1,1.2,2.13c0,.68-.46,1.07-1.2,1.07H638V51.76a2.06,2.06,0,0,1-.55,1.65,7.24,7.24,0,0,1-3.22,1.16c-.56,0-.83-.38-.83-1.06V40.9H618.77Zm-9,51.71c0,1.35-1.84,2.81-3.59,2.81-.55,0-.83-.49-.83-1.46V54.77l5.25,3h34.38l2-3,4.89,3.1c.83.58,1.29,1.07,1.29,1.65,0,.39-.28.78-.93,1.07l-2,.87v40.06a1.78,1.78,0,0,1-1,1.84,5.9,5.9,0,0,1-2.58,1c-.64,0-1-.48-1-1.26V99.39H609.73Zm0-26.78h15V60.39h-15Zm0,19.89h15V79.5h-15Zm19.45-19.89h16.4V60.39h-16.4Zm0,19.89h16.4V79.5h-16.4Zm69.66-66.83a3,3,0,0,1-1.38,2.52C695.25,34.2,691.66,38,685,45.84c-7.09,8.25-7.83,9.51-7.83,13.87,0,3,.37,4,3.5,8.15,3.59,4.66,9.95,13.78,12.35,17.66,3.41,5.33,5,9.31,5,12.32,0,3.29-1.66,5.72-3.77,5.72-1.76,0-2.86-1.26-3.32-4.08-1.84-9.21-5.16-16.29-14.28-31-2.58-4-3.41-6.11-3.41-8.92a16.28,16.28,0,0,1,1.93-6.79c1.29-2.33,1.29-2.33,8.76-12.51,5.52-7.47,7.27-10.38,7.27-12.13,0-2.23-2.3-4.17-4.79-4.27-.37,0-.55-.19-.55-.58,0-.58,1.75-1.16,3.5-1.16C693.59,22.08,698.84,26.35,698.84,29.94Zm43.49,63.9c0,6-4.65,10.85-10.31,10.85s-10.3-4.89-10.3-10.94A10.58,10.58,0,0,1,732.21,83C737.68,83,742.33,88,742.33,93.84Zm-17.88,0a7.49,7.49,0,1,0,15-.09,7.49,7.49,0,1,0-15,.09ZM767.59,0H0V129H767.59Z"/>
</svg>
