<?xml version="1.0" encoding="utf-8"?>
<!-- Generator: Adobe Illustrator 24.3.0, SVG Export Plug-In . SVG Version: 6.00 Build 0)  -->
<svg version="1.1" id="レイヤー_1" xmlns="http://www.w3.org/2000/svg" xmlns:xlink="http://www.w3.org/1999/xlink" x="0px"
	 y="0px" width="113.7px" height="451.4px" viewBox="0 0 113.7 451.4" style="enable-background:new 0 0 113.7 451.4;"
	 xml:space="preserve">
<style type="text/css">
	.st0{fill:#FFFFFF;}
</style>
<path class="st0" d="M46.1,49.6c0,0.4-1.2,1.2-1.8,1.2c-0.3,0-0.4-0.2-0.4-0.5V29.4c-3,3.4-6,6.2-6.6,6.2c-0.3,0-0.4-0.2-0.4-0.4
	c0-0.2,0.2-0.5,1-1.3c3.9-3.8,6.3-7,10.7-14.1h-5.5c-1.6,0-2.4,0-4.4,0.1l-1-1.5c2.9,0.1,4.1,0.2,5.5,0.2H44v-8.2l3,0.6
	c0.4,0.1,0.7,0.4,0.7,0.6c0,0.3-0.2,0.4-0.6,0.7l-1,0.4v5.8h3.1l0.8-1l2.1,1.5c0.3,0.3,0.5,0.5,0.5,0.8c0,0.3-0.1,0.4-0.7,0.5
	l-1.1,0.3c-1,1.5-1.2,1.8-2.1,3l-2.6,3.6v2.5c4.2,1.5,6.3,3.2,6.3,4.9c0,0.8-0.4,1.6-0.9,1.6c-0.4,0-0.6-0.2-1.4-1.6
	c-0.9-1.7-2-2.8-4-4V49.6z M56.8,35.2v2.1c0,0.5-1,1.2-1.8,1.2c-0.2,0-0.3-0.1-0.3-0.3V12l2.6,1.5h11.3l1-1.3l2.2,1.7
	c0.3,0.2,0.5,0.5,0.5,0.8c0,0.2-0.1,0.3-0.5,0.5L71,15.5v20.8c0,0.5-0.8,1.1-1.6,1.1c-0.3,0-0.5-0.2-0.5-0.4v-1.8h-3.1v9.5
	c0,1.2,0,1.2,2.3,1.2c4.1,0,4.5-0.2,5.3-2.9l1.3-4.5l0.5,0.1l-0.5,4.3c-0.1,0.5-0.1,1.1-0.1,1.4c0,0.4,0,0.4,0.7,1.3
	c0.1,0.1,0.2,0.3,0.2,0.5c0,1.4-1.8,1.8-7.3,1.8c-4.2,0-4.6-0.1-4.6-1.4V35.2h-2.6c-1,4.2-2.2,7.2-3.8,9.2s-3.7,3.7-5.8,4.8
	C49.9,50,47.7,51,47.4,51c-0.2,0-0.4-0.2-0.4-0.4c0-0.3,0.1-0.4,0.6-0.6c6.8-3.3,10.2-7.7,11.2-14.8H56.8z M68.9,20.5v-5.8H56.8v5.8
	H68.9z M68.9,27.1v-5.4H56.8v5.4H68.9z M56.8,34h12.1v-5.7H56.8V34z M43.2,78.6c0.3,0.1,0.6,0.4,0.6,0.7c0,0.2-0.2,0.4-0.4,0.5
	l-1,0.4c-0.8,3.5-1.9,6.7-3.6,9.7c-0.8,1.5-1.5,2.4-1.7,2.4c-0.2,0-0.3-0.2-0.3-0.3c0-0.1,0-0.3,0.3-0.6c2-4.1,2.7-7,3.4-13.7
	L43.2,78.6z M48.9,69.7c3.5,1.9,4.6,3.2,4.6,5.3c0,1-0.3,1.5-1,1.5c-0.5,0-0.7-0.3-1-1.5c-0.2-0.6-0.3-0.8-0.5-1.4
	c-1.9,0.4-2.2,0.5-4.2,0.8v18c0,0.5-0.1,0.6-0.6,1c-0.5,0.3-0.8,0.5-1.1,0.5c-0.3,0-0.4-0.2-0.4-0.6V74.8c-2.1,0.4-2.4,0.4-4.2,0.7
	L40,76.4c-0.2,0.4-0.4,0.6-0.5,0.6c-0.2,0-0.4-0.2-0.7-0.7l-1.4-2.7c2.4,0,3.4,0,6.2-0.2c2.3-3.7,5.4-9.9,6.6-13.3l2.5,1.6
	c0.2,0.1,0.3,0.4,0.3,0.6c0,0.3-0.1,0.4-0.4,0.4l-1,0.1c-1.5,2.3-2.3,3.5-7,10.5c2.8-0.2,3.7-0.3,5.8-0.5c-0.5-1.1-1-1.7-2-2.6
	L48.9,69.7z M38.5,61c1.8,0.7,2.6,1.1,3.7,1.9c2-3.3,3.3-6,4.3-9.1l2.6,1.7c0.4,0.3,0.6,0.6,0.6,0.8c0,0.3-0.3,0.4-0.7,0.4h-1
	c-1.4,2-2.8,3.8-5.1,6.7c1.2,1.1,1.7,2,1.7,3.1c0,0.8-0.4,1.4-1,1.4c-0.5,0-0.8-0.4-1.3-1.7c-0.6-1.7-2.1-3.4-3.9-4.8L38.5,61z
	 M48.4,78.1c2.6,1.8,4.1,3.8,4.1,5.5c0,1-0.5,1.8-1.1,1.8c-0.5,0-0.8-0.3-0.8-1.1c-0.4-2.2-1.2-4.2-2.5-5.9L48.4,78.1z M58.5,76.8
	l2.6,1.6c0.2,0.1,0.3,0.4,0.3,0.6c0,0.3-0.1,0.4-0.4,0.4l-1.3,0.3c-1.8,4.1-4.1,7.3-7,9.8c-1.8,1.5-3.9,3.1-4.2,3.1
	c-0.2,0-0.3-0.2-0.3-0.4c0-0.3,0-0.3,2.2-2.2c2.7-2.3,5.5-6.4,7.3-10.8h-0.5c-2,0-2.6,0-5.1,0.2L51.4,78c3,0.1,4.2,0.2,5.8,0.2h0.6
	L58.5,76.8z M57.6,59.4h2.8c0.7-2.5,1-3.6,1.3-6l3,1.2c0.3,0.1,0.4,0.3,0.4,0.5c0,0.3-0.1,0.4-0.3,0.5l-1.4,0.4
	c-0.5,0.8-1.4,2.2-2.2,3.4H69l0.8-1.2l2.7,1.4c0.3,0.1,0.4,0.3,0.4,0.5s-0.1,0.4-0.5,0.5l-0.9,0.4v12.3c0,0.7-0.8,1.3-1.6,1.3
	c-0.3,0-0.5-0.2-0.5-0.5v-1.3h-5.2v2.1c0.5,1.6,1.4,3.3,2.9,5.8c2.2-2.1,3.5-3.7,5.5-6.6l2.2,2c0.3,0.2,0.4,0.6,0.4,0.8
	c0,0.2-0.2,0.4-0.5,0.4l-1.4,0.1l-0.8,0.5c-3.3,2.3-3.5,2.5-5,3.4c2.5,3.3,5.2,5.7,9.3,8.1c-1.9,0.4-2.2,0.5-3.1,1.6
	c-4.3-3.2-7.6-8.1-9.5-13.8v14.4c0,0.8-0.2,1.1-1,1.6c-0.6,0.4-1.3,0.7-1.6,0.7c-0.3,0-0.3,0-0.6-0.9c-0.1-0.4-0.2-0.4-0.7-0.6
	l-2.7-0.8l0.1-0.6l3.1,0.2c0.2,0,0.4,0,0.5,0c0.7,0,1-0.3,1-1V72.7h-5.1v1.5c0,0.5-0.1,0.7-0.6,0.9c-0.4,0.3-0.8,0.4-1,0.4
	c-0.3,0-0.4-0.2-0.4-0.4V57.7L57.6,59.4z M57.1,65.5h12.3v-5H57.1V65.5z M57.1,71.5h12.3v-4.8H57.1V71.5z M64.4,102.4
	c1.7-0.4,2.9-0.7,3.1-0.8c0.7-0.2,1.3-0.3,1.7-0.3c0.8,0,1.7,0.5,2.4,1.3c0.6,0.7,0.8,1.2,0.8,1.5c0,0.4-0.4,0.9-0.8,0.9
	c-0.2,0-0.5,0-0.8-0.2c-0.9-0.3-2.2-0.5-3.3-0.5c-3.6,0-6.3,1.4-8.4,4.3c-1.3,1.8-2,3.5-2.6,6.5c-0.5,2.3-0.7,4.5-0.7,6.4
	c0,2.6,0.5,4.5,1.6,5.7c1.1,1.3,2.8,1.8,5.7,1.8c0.7,0,1.4,0,1.9-0.1c0.8-0.1,1.4-0.2,1.6-0.2c1.1,0,2,1,2,2.3
	c0,0.8-1.1,1.2-3.6,1.2c-7.3,0-11.6-3.5-11.6-9.5c0-4.4,1-8.5,3-12.3c1-2.1,2.6-4.2,3.6-5c0.3-0.3,0.4-0.4,0.4-0.5
	c0-0.1-0.1-0.2-0.2-0.2c-0.4,0-2.2,0.4-2.9,0.6c-1.8,0.6-4.8,1.8-5.8,2.2c-0.9,0.4-4.1,2.2-4.7,2.6c-1.1,0.7-1.4,0.8-2,0.8
	c-1.4,0-2.9-0.9-3.4-2c-0.3-0.7-0.6-1.7-0.6-2.4c0-0.1,0.1-0.3,0.3-0.3c0.1,0,0.1,0,0.3,0.4c0.3,0.8,1.3,1.3,2.5,1.3
	c1,0,1.6-0.1,3.9-0.9c8.7-2.6,8.8-2.7,13.9-3.9L64.4,102.4z M70,115.1c0,0.7-0.6,1.4-1.3,1.4c-0.4,0-0.6-0.2-0.9-0.8
	c-0.7-1.6-2.1-2.9-3.9-3.6c-0.1,0-0.2-0.1-0.2-0.2c0-0.1,0.3-0.2,0.8-0.2C67.3,111.8,70,113.5,70,115.1z M73.4,112.2
	c0,0.8-0.6,1.5-1.3,1.5c-0.5,0-0.6-0.2-1.1-1c-0.7-1.5-2.4-2.8-3.9-3.2c-0.2,0-0.3-0.1-0.3-0.2c0-0.1,0.5-0.3,1.3-0.3
	C70.7,109,73.4,110.7,73.4,112.2z M43.2,149.5c-0.2,0-1.2,0-2.2,0l-2.6,0.1l-0.9-1.5l3.4,0.1c1,0,2,0,2.2,0H46v-9.2l3,0.4
	c0.3,0,0.6,0.3,0.6,0.5c0,0.2-0.2,0.5-0.4,0.7l-1,0.7v7h4.4l2.2-2.2l2.6,2.2c0.3,0.2,0.4,0.4,0.4,0.7c0,0.3-0.3,0.5-0.5,0.5h-9.8
	c-0.2,4.3-0.2,4.4-0.5,7.5h5.2l1.1-1.5l2.3,1.7c0.3,0.2,0.4,0.4,0.4,0.6s-0.2,0.4-0.4,0.5l-0.8,0.3c-0.5,5.7-1.2,10-2.2,12.9
	c-1,3-2.7,5.1-4.1,5.1c-0.7,0-0.7,0-1-1.5c-0.1-0.4-0.1-0.4-1.1-0.9l-2.1-1.1l0.2-0.6l0.8,0.2c0.3,0.1,0.6,0.1,0.9,0.2
	c0.9,0.2,1.5,0.3,1.9,0.3c0.9,0,1.4-0.3,1.8-1.2c1.3-2.6,2.1-7.1,2.7-14h-5.8c-0.8,6.1-2.3,10.6-5,14.8c-1.7,2.8-4,5.6-4.6,5.6
	c-0.2,0-0.3-0.1-0.3-0.3c0-0.1,0.1-0.3,0.4-0.7c5.5-7.3,7.7-15.1,7.9-28.2H43.2z M65.8,140.3c0.5,0.1,0.7,0.3,0.7,0.5
	c0,0.1-0.3,0.4-0.6,0.5l-1.2,0.4c-0.9,3.1-1.8,5.6-3.2,8.8h9.4l2.1-2.9l2.9,2.7c0.2,0.2,0.3,0.4,0.3,0.7c0,0.4-0.3,0.7-0.6,0.7h-3.8
	c-1.6,8.3-2.5,11.2-5.2,16.4c1.4,2.3,5.4,5.8,9.4,8.5c-1.5,0.7-2,1.1-2.6,2.1c-3.1-2.5-6.4-6.2-8-8.9c-2.7,3.4-6.7,6.4-11.4,8.7
	c-1,0.5-1.2,0.6-1.4,0.6c-0.2,0-0.3-0.1-0.3-0.3c0-0.3,0-0.3,3.1-2.2c3.5-2.1,7.1-5.6,8.8-8.5c-2.2-4.9-2.7-6.6-4.1-14.5
	c-2.1,4.2-4,7.1-4.6,7c-0.1,0-0.3-0.1-0.3-0.3c0-0.1,0.1-0.3,0.4-0.8c3-5.4,5.5-12.9,6.9-20.6L65.8,140.3z M61,151.8
	c0.1,4.1,2.2,11.3,4.3,14.5c2.1-4.2,3.1-8,4-14.5H61z M55.8,213.2c4.2-1,5.5-1.5,7.9-2.8c4.6-2.5,7-6.3,7-10.7c0-5-2.9-8-7.9-8
	c-3.1,0-7.8,1.5-11.1,3.8c-1,0.7-3.4,2.4-5.5,4.1c-0.8,0.7-1.4,1-1.8,1c-1.1,0-3.3-1.2-3.9-2.1c-0.3-0.5-0.7-2.2-0.7-3.1
	c0-0.2,0.1-0.4,0.3-0.4c0.2,0,0.2,0.1,0.3,0.4c0.3,1.2,1.4,2,2.6,2c1.1,0,2.1-0.4,6.3-2.9c5-2.8,9.7-4.3,14.2-4.3
	c5.9,0,10.4,4.1,10.4,9.6c0,5.3-3.2,9.4-9.4,11.9c-2.1,0.8-3.7,1.3-6.7,1.9c-1.6,0.3-2.3,0.4-2.7,0.4c-0.5,0-0.8-0.2-0.8-0.4
	c0-0.2,0.1-0.3,0.5-0.3c0.1,0,0.3,0,0.4-0.1L55.8,213.2z M66,223.6c4.2,0.6,7.7,3.7,7.7,6.9c0,1.4-0.8,2.4-1.9,2.4
	c-0.3,0-0.6-0.2-0.8-0.4c-0.5-0.5-0.5-0.5-1.3-3.8c-0.8-2.2-1.7-3.2-3.9-4.6L66,223.6z M56.1,258.6l2.4,2.2c0.3,0.3,0.5,0.6,0.5,0.9
	c0,0.3-0.3,0.5-0.8,0.5h-8.7v6c3.4,0.9,4,1.1,5.4,1.9c1.4,0.8,2,1.7,2,2.7c0,0.8-0.5,1.4-1,1.4c-0.4,0-0.8-0.4-1.9-1.5
	c-1.5-1.7-2.3-2.3-4.5-3.4v17.7c0,0.5-0.8,1-1.7,1c-0.3,0-0.4-0.1-0.4-0.6v-18.8c-2,3.8-4.1,6.5-7.6,10c-1.6,1.6-2.2,2.1-2.4,2.1
	c-0.2,0-0.4-0.2-0.4-0.4c0-0.1,0-0.3,0.2-0.4c5.6-6.3,8.5-11.4,10-17.5h-2.7c-1.1,0-1.4,0-6.4,0.2l-0.8-1.5l3.9,0.1
	c1.5,0,3.1,0.1,3.2,0.1h2.8v-6.7c-3.1,0.6-7.8,1.3-8.6,1.3c-0.3,0-0.5-0.2-0.5-0.5c0-0.3,0.3-0.5,1-0.6c6.7-1.3,10.6-2.5,16.1-4.9
	l2.3,1.7c0.4,0.3,0.6,0.5,0.6,0.7c0,0.2-0.2,0.3-0.6,0.3l-1.7,0.1c-2.9,0.7-3.3,0.8-6.6,1.5v7.1h4.2L56.1,258.6z M56,284.5
	c-0.2,0.3-0.5,0.5-0.6,0.5c-0.2,0-0.3-0.1-0.6-0.5l-1.9-3c2.9-0.1,3.4-0.1,6.3-0.4c3.7-14.8,4.9-20.6,6.3-30.3l3.7,1.2
	c0.6,0.2,0.9,0.4,0.9,0.8c0,0.4-0.1,0.5-0.9,0.8l-1.1,0.4c-0.5,1.9-1,3.6-1.5,5.2l-2.1,7.8l-2.6,8.8l-1.4,5.1
	c1.8-0.2,3.7-0.4,5.4-0.7c1.6-0.2,2.4-0.3,5.3-0.7c-1.2-3.1-2.4-5.1-4.2-7.5l0.6-0.5c5,4.7,7.3,8.5,7.3,12c0,1.4-0.5,2.2-1.3,2.2
	c-0.5,0-0.8-0.3-1-0.9c0-0.2,0-0.2-0.5-2.1c-0.2-0.8-0.3-1-0.6-2.2l-14.9,2.9L56,284.5z M58,303.1c0,3.8-1.4,8.1-3.9,12.1
	c-2.6,4.1-5.3,6.5-7.6,6.5c-2.7,0-5.1-3.9-5.1-8.5c0-4.2,1.7-8.4,4.7-11.5c3.3-3.5,7.6-5.3,12.3-5.3c7.9,0,13.6,5.6,13.6,13.1
	c0,6.9-3.9,12.6-10.5,15.2c-1.8,0.8-4.8,1.6-5.6,1.6c-0.3,0-0.5-0.2-0.5-0.5c0-0.2,0.2-0.3,0.6-0.4c1.5-0.3,4.7-1.7,6.3-2.7
	c4.4-2.9,6.6-7.6,6.6-13.7c0-4.1-1.2-7-3.8-9c-1.9-1.5-4.3-2.3-6.9-2.3c-0.5,0-0.6,0-1.1,0.1C57.9,300.7,58,301.8,58,303.1z
	 M55.9,297.7c-3.9,1-6.5,2.7-8.7,5.5c-2.2,2.9-3.4,6.6-3.4,10.5c0,3,1.3,5.5,2.8,5.5c2,0,5.2-3.4,7.4-8c1.6-3.3,2.7-7.4,2.7-9.9
	c0-1.4-0.2-2.5-0.5-3.4L55.9,297.7z M62.4,336.8l1.1-1.5l2.8,2.1c0.2,0.1,0.3,0.4,0.3,0.6c0,0.2-0.3,0.5-0.5,0.5l-1.6,0.3
	c-0.3,0.4-0.5,0.8-0.8,1.2c-1,1.5-1.8,2.5-2,2.7l-1.8,2.3c-0.2,0.2-0.4,0.4-0.6,0.7h8.1l0.9-1.5l2.4,1.7c0.3,0.2,0.5,0.5,0.5,0.8
	c0,0.2-0.2,0.4-0.5,0.5l-1.1,0.3v10.3c0,0.4-0.2,0.7-0.6,0.8c-0.4,0.2-0.9,0.3-1.2,0.3c-0.3,0-0.4-0.2-0.4-0.6v-1.9H46.1v10.3
	c0,1.3,0,1.3,6.5,1.3c4.2,0,12.1-0.2,14.9-0.4c1.8-0.1,3-0.3,3.5-0.6c0.5-0.4,1.1-1.1,1.3-1.9l2.1-7.1l0.7,0.2l-1.1,6.7
	c0,0.3,0,0.4,0,0.7c0,0.3,0.1,0.4,0.7,0.8c0.4,0.3,0.6,0.5,0.6,0.8c0,1-1.2,1.7-3.7,2.2c-1.9,0.4-1.9,0.4-12.4,0.6h-3.1h-4.4
	c-3.7,0-5.5-0.1-6.3-0.4c-1-0.4-1.5-1-1.5-2.1v-20.7c-3.4,3.1-5.6,4.9-6.1,4.9c-0.1,0-0.3-0.2-0.3-0.4c0-0.3,0-0.3,1.6-1.9
	c5.7-5.4,8.7-9.9,12.8-19l2.9,1.9c0.5,0.3,0.6,0.5,0.6,0.8c0,0.4-0.3,0.6-0.6,0.6h-0.1l-1.3,0c-0.8,1.4-0.9,1.6-1.7,2.8H62.4z
	 M51,338c-1.7,2.7-3.3,4.9-5.3,7.4l0.6,0.4h11.7c1.3-2,3.2-5.5,4.2-7.8H51z M55.7,355.4V347h-9.6v8.4H55.7z M57.9,355.4h9.4V347
	h-9.4V355.4z M47.4,381.4c-2.9,5.2-4,6.6-7.2,9.6c-1.4,1.3-2.2,1.9-2.5,1.9c-0.2,0-0.4-0.2-0.4-0.4c0-0.2,0-0.2,0.6-0.8
	c4.3-4.6,6.8-9.2,9.4-17.1l3,1.3c0.3,0.2,0.6,0.5,0.6,0.8c0,0.2-0.2,0.4-0.7,0.6l-1,0.4c-0.5,1.2-0.7,1.4-1.3,2.7h19.5l2.3-2.7
	l3,2.3c0.3,0.3,0.5,0.5,0.5,0.8c0,0.6-0.3,0.8-0.8,0.8H47.4z M43,396.3c2.9,0.6,7.2,2.3,11,4.6c1.9-2.8,2.6-4.2,3.9-7.1l2.7,1.7
	c0.3,0.2,0.4,0.4,0.4,0.6c0,0.2-0.1,0.2-0.5,0.4l-0.9,0.2c-2.3,3.4-2.5,3.8-3.7,5.4c2.1,1.4,3.4,2.5,5.2,4.3c1.6,1.6,2.4,3,2.4,4.1
	c0,0.8-0.5,1.5-1,1.5c-0.4,0-0.4,0-2.4-2.7c-1.6-2.1-3.7-4.1-5.7-5.5c-2.9,3.2-6.5,6.2-9.7,8c-1.6,0.9-3.6,1.9-4,1.9
	c-0.2,0-0.3-0.2-0.3-0.4c0-0.2,0.1-0.4,0.5-0.5c4.2-2.4,8.3-5.8,11.8-10.2c-2.1-1.8-6-4-9.9-5.6L43,396.3z M45.5,391.4
	c1.5,0,2.9,0,3.5,0h16.3l1.1-1.6l2.5,1.5c0.3,0.2,0.5,0.4,0.5,0.6c0,0.2-0.1,0.4-0.5,0.5l-0.9,0.5c0,5.8,0.3,7.8,1.4,11
	c0.9,2.6,2.8,5.9,3.4,5.9c0.2,0,0.3-0.3,0.5-0.8l1.6-5.5l0.5,0.1l-0.5,6.5v0.3c0,0.6,0.1,1.1,0.5,1.7c0.3,0.5,0.4,0.8,0.4,1
	c0,0.5-0.4,0.9-0.9,0.9c-0.6,0-2-0.8-2.9-1.5c-2-1.8-4-5.7-5-9.5c-0.6-2.4-0.8-4.5-1.1-10.3H49c-1.9,0-1.9,0-6.2,0.1l-1.3-1.5
	L45.5,391.4z M49.8,385.4c1.3,0,2.5,0.1,2.7,0.1h11.8l2-2.4l2.9,2.4c0.3,0.2,0.4,0.4,0.4,0.7c0,0.3-0.2,0.5-0.4,0.5H52.5
	c-1.4,0-2.5,0-4.8,0.1l-0.9-1.5L49.8,385.4z M74.3,427.8c0,2.8-2.1,5.1-4.8,5.1c-2.6,0-4.8-2.3-4.8-5.1s2.2-5,4.9-5
	C72.1,422.8,74.3,425.1,74.3,427.8z M66,427.8c0,2,1.6,3.7,3.4,3.7c1.9,0,3.5-1.6,3.5-3.7c0-2-1.6-3.6-3.5-3.6
	C67.6,424.2,66,425.9,66,427.8z M113.7,0H0v451.4h113.7V0z"/>
</svg>
