<?xml version="1.0" encoding="utf-8"?>
<!-- Generator: Adobe Illustrator 24.3.0, SVG Export Plug-In . SVG Version: 6.00 Build 0)  -->
<svg version="1.1" id="レイヤー_1" xmlns="http://www.w3.org/2000/svg" xmlns:xlink="http://www.w3.org/1999/xlink" x="0px"
	 y="0px" width="113.7px" height="257.9px" viewBox="0 0 113.7 257.9" style="enable-background:new 0 0 113.7 257.9;"
	 xml:space="preserve">
<style type="text/css">
	.st0{fill:#FFFFFF;}
</style>
<path class="st0" d="M72.2,51.8c0,0.4-1.2,1.2-1.8,1.2c-0.3,0-0.4-0.2-0.4-0.5V31.2c-3,3.5-6.1,6.3-6.7,6.3c-0.3,0-0.4-0.2-0.4-0.4
	c0-0.2,0.2-0.5,1-1.3c3.9-3.9,6.4-7.1,10.9-14.3h-5.5c-1.7,0-2.4,0-4.5,0.1L63.7,20c3,0.1,4.2,0.2,5.5,0.2h0.9v-8.3l3,0.6
	c0.4,0.1,0.7,0.4,0.7,0.6c0,0.3-0.2,0.4-0.6,0.7l-1,0.4v5.9h3.2l0.9-1l2.2,1.5c0.3,0.3,0.5,0.5,0.5,0.8c0,0.3-0.1,0.4-0.7,0.5
	L77,22.2c-1,1.5-1.2,1.8-2.1,3.1l-2.7,3.6v2.6c4.3,1.6,6.4,3.2,6.4,5c0,0.9-0.4,1.6-0.9,1.6c-0.4,0-0.6-0.2-1.4-1.7
	c-0.9-1.7-2-2.9-4.1-4.1V51.8z M83.1,37.1v2.2c0,0.5-1.1,1.3-1.8,1.3c-0.2,0-0.3-0.1-0.3-0.3V13.5l2.6,1.6H95l1-1.3l2.2,1.7
	c0.3,0.2,0.5,0.5,0.5,0.8c0,0.2-0.1,0.3-0.5,0.5l-0.7,0.4v21.1c0,0.5-0.8,1.1-1.6,1.1c-0.3,0-0.6-0.2-0.6-0.4v-1.8h-3.2v9.6
	c0,1.2,0,1.3,2.3,1.3c4.2,0,4.6-0.2,5.4-2.9l1.4-4.6l0.5,0.1l-0.5,4.4c-0.1,0.5-0.1,1.1-0.1,1.4c0,0.4,0,0.4,0.7,1.3
	c0.1,0.1,0.2,0.3,0.2,0.5c0,1.4-1.8,1.8-7.4,1.8c-4.3,0-4.7-0.1-4.7-1.4V37.1h-2.6c-1,4.3-2.2,7.3-3.9,9.3c-1.7,2.1-3.7,3.7-5.9,4.9
	c-1.5,0.8-3.8,1.8-4.1,1.8c-0.2,0-0.4-0.2-0.4-0.4c0-0.3,0.1-0.4,0.6-0.6c6.9-3.4,10.3-7.8,11.3-15H83.1z M95.4,22.2v-5.9H83.1v5.9
	H95.4z M95.4,28.9v-5.5H83.1v5.5H95.4z M83.1,35.9h12.3v-5.8H83.1V35.9z M69.3,80c0.3,0.1,0.6,0.4,0.6,0.7c0,0.2-0.2,0.4-0.4,0.5
	l-1.1,0.4c-0.8,3.6-1.9,6.8-3.7,9.8c-0.9,1.6-1.5,2.4-1.7,2.4c-0.2,0-0.3-0.2-0.3-0.3c0-0.1,0-0.3,0.3-0.6c2-4.2,2.7-7.1,3.5-13.9
	L69.3,80z M75,71c3.5,2,4.6,3.3,4.6,5.4c0,1-0.3,1.5-1,1.5c-0.6,0-0.7-0.3-1-1.5c-0.2-0.6-0.3-0.8-0.5-1.4c-1.9,0.4-2.2,0.5-4.2,0.9
	v18.3c0,0.5-0.1,0.6-0.6,1c-0.5,0.3-0.9,0.5-1.1,0.5c-0.3,0-0.4-0.2-0.4-0.6V76.2c-2.1,0.4-2.4,0.4-4.3,0.7L66,77.8
	c-0.2,0.4-0.4,0.6-0.6,0.6c-0.2,0-0.4-0.2-0.7-0.7l-1.4-2.8c2.4,0,3.5,0,6.3-0.2c2.3-3.7,5.5-10,6.7-13.5l2.5,1.7
	c0.2,0.1,0.3,0.4,0.3,0.6c0,0.3-0.1,0.4-0.4,0.4l-1,0.1c-1.5,2.4-2.3,3.5-7.1,10.6c2.9-0.2,3.8-0.3,5.9-0.5c-0.6-1.1-1-1.7-2-2.6
	L75,71z M64.5,62.2c1.9,0.7,2.7,1.1,3.8,1.9c2-3.4,3.3-6.1,4.4-9.2l2.6,1.7c0.4,0.3,0.6,0.6,0.6,0.8c0,0.3-0.3,0.4-0.7,0.4h-1.1
	c-1.4,2-2.9,3.9-5.2,6.8c1.2,1.2,1.7,2,1.7,3.2c0,0.9-0.4,1.4-1,1.4c-0.6,0-0.9-0.4-1.4-1.7c-0.6-1.7-2.1-3.5-4-4.9L64.5,62.2z
	 M74.5,79.5c2.6,1.8,4.1,3.8,4.1,5.6c0,1-0.5,1.8-1.2,1.8c-0.5,0-0.8-0.3-0.9-1.1c-0.4-2.2-1.2-4.2-2.5-6L74.5,79.5z M84.8,78.2
	l2.6,1.7c0.2,0.1,0.3,0.4,0.3,0.6c0,0.3-0.1,0.4-0.4,0.4L86,81.2c-1.9,4.2-4.2,7.4-7.1,10c-1.8,1.6-4,3.1-4.3,3.1
	c-0.2,0-0.3-0.2-0.3-0.4c0-0.3,0-0.3,2.2-2.2c2.8-2.4,5.6-6.5,7.5-11h-0.5c-2,0-2.6,0-5.2,0.2l-0.6-1.5c3.1,0.1,4.3,0.2,5.8,0.2H84
	L84.8,78.2z M83.9,60.5h2.8c0.7-2.5,1-3.7,1.4-6.1l3.1,1.3c0.3,0.1,0.4,0.3,0.4,0.5c0,0.3-0.1,0.4-0.3,0.5l-1.4,0.4
	c-0.5,0.9-1.4,2.2-2.3,3.5h7.9l0.8-1.3l2.8,1.4c0.3,0.1,0.4,0.3,0.4,0.5s-0.1,0.4-0.5,0.5L98,62.1v12.5c0,0.7-0.8,1.3-1.6,1.3
	c-0.3,0-0.5-0.2-0.5-0.5v-1.3h-5.2v2.2c0.6,1.7,1.4,3.4,2.9,5.9c2.2-2.1,3.5-3.7,5.6-6.7l2.3,2c0.3,0.2,0.4,0.6,0.4,0.9
	c0,0.2-0.2,0.4-0.6,0.4l-1.4,0.1L99,79.4c-3.4,2.3-3.6,2.5-5,3.5c2.5,3.4,5.3,5.8,9.5,8.3c-2,0.4-2.2,0.5-3.2,1.6
	c-4.3-3.3-7.8-8.2-9.7-14v14.6c0,0.8-0.2,1.1-1.1,1.7c-0.6,0.4-1.3,0.7-1.7,0.7c-0.3,0-0.3,0-0.6-0.9c-0.1-0.4-0.2-0.4-0.7-0.6
	l-2.7-0.9l0.1-0.6l3.1,0.2c0.2,0,0.4,0,0.5,0c0.7,0,1-0.3,1-1V74.1h-5.2v1.5c0,0.5-0.1,0.7-0.6,0.9c-0.4,0.3-0.8,0.4-1.1,0.4
	c-0.3,0-0.4-0.2-0.4-0.4V58.8L83.9,60.5z M83.4,66.8h12.5v-5.1H83.4V66.8z M83.4,72.9h12.5V68H83.4V72.9z M90.7,104.3
	c1.7-0.4,2.9-0.7,3.2-0.8c0.7-0.2,1.4-0.3,1.7-0.3c0.8,0,1.7,0.5,2.4,1.3c0.6,0.7,0.9,1.2,0.9,1.6c0,0.4-0.4,0.9-0.9,0.9
	c-0.2,0-0.5,0-0.8-0.2c-0.9-0.3-2.3-0.5-3.4-0.5c-3.7,0-6.4,1.4-8.6,4.4c-1.3,1.8-2,3.6-2.7,6.6c-0.5,2.3-0.7,4.6-0.7,6.5
	c0,2.6,0.6,4.6,1.6,5.8c1.1,1.3,2.8,1.8,5.8,1.8c0.7,0,1.4,0,2-0.1c0.9-0.1,1.4-0.2,1.7-0.2c1.2,0,2,1,2,2.3c0,0.8-1.2,1.2-3.6,1.2
	c-7.4,0-11.8-3.6-11.8-9.6c0-4.5,1-8.6,3.1-12.5c1.1-2.1,2.6-4.2,3.7-5.1c0.3-0.3,0.4-0.4,0.4-0.5c0-0.1-0.1-0.2-0.2-0.2
	c-0.4,0-2.3,0.4-2.9,0.6c-1.8,0.6-4.9,1.8-5.9,2.2c-0.9,0.4-4.2,2.2-4.8,2.6c-1.1,0.7-1.4,0.9-2,0.9c-1.4,0-2.9-0.9-3.5-2.1
	c-0.3-0.7-0.6-1.7-0.6-2.4c0-0.1,0.1-0.3,0.3-0.3c0.1,0,0.1,0,0.3,0.4c0.3,0.8,1.3,1.3,2.5,1.3c1.1,0,1.7-0.1,4-0.9
	c8.8-2.6,8.9-2.7,14.1-4L90.7,104.3z M96.4,117.1c0,0.7-0.6,1.4-1.3,1.4c-0.4,0-0.6-0.2-0.9-0.8c-0.7-1.7-2.2-3-4-3.6
	c-0.1,0-0.2-0.1-0.2-0.2c0-0.1,0.3-0.2,0.9-0.2C93.7,113.7,96.4,115.4,96.4,117.1z M99.9,114.2c0,0.8-0.6,1.5-1.3,1.5
	c-0.5,0-0.6-0.2-1.1-1c-0.7-1.5-2.4-2.8-4-3.2c-0.2,0-0.3-0.1-0.3-0.2c0-0.1,0.6-0.3,1.3-0.3C97.2,111,99.9,112.7,99.9,114.2z
	 M69.3,151.8c-0.2,0-1.2,0-2.2,0l-2.6,0.1l-0.9-1.5l3.5,0.1c1,0,2,0,2.2,0h2.9v-9.4l3,0.4c0.3,0,0.6,0.3,0.6,0.5
	c0,0.2-0.2,0.5-0.4,0.7l-1,0.7v7.1h4.5l2.2-2.2l2.6,2.2c0.3,0.2,0.4,0.4,0.4,0.7c0,0.3-0.3,0.5-0.5,0.5h-10
	c-0.2,4.4-0.2,4.4-0.5,7.6h5.3l1.1-1.5l2.3,1.7c0.3,0.2,0.4,0.4,0.4,0.6c0,0.2-0.2,0.4-0.4,0.5l-0.9,0.3c-0.5,5.8-1.2,10.1-2.3,13.1
	c-1,3.1-2.7,5.2-4.1,5.2c-0.7,0-0.7,0-1-1.5c-0.1-0.4-0.1-0.4-1.1-0.9l-2.1-1.1l0.2-0.6l0.9,0.2c0.3,0.1,0.6,0.1,0.9,0.2
	c0.9,0.2,1.5,0.3,1.9,0.3c0.9,0,1.4-0.3,1.8-1.2c1.3-2.6,2.2-7.2,2.7-14.2h-5.8c-0.9,6.2-2.3,10.7-5,15.1c-1.7,2.8-4.1,5.7-4.6,5.7
	c-0.2,0-0.3-0.1-0.3-0.3c0-0.1,0.1-0.3,0.4-0.7c5.6-7.4,7.8-15.3,8-28.6H69.3z M92.2,142.5c0.5,0.1,0.7,0.3,0.7,0.5
	c0,0.1-0.3,0.4-0.6,0.5L91,144c-0.9,3.2-1.8,5.7-3.2,8.9h9.5l2.2-2.9l3,2.7c0.2,0.2,0.3,0.4,0.3,0.7c0,0.4-0.3,0.7-0.6,0.7h-3.8
	c-1.6,8.4-2.5,11.4-5.3,16.6c1.4,2.3,5.5,5.9,9.6,8.7c-1.5,0.7-2,1.2-2.7,2.2c-3.1-2.6-6.5-6.3-8.1-9c-2.7,3.4-6.8,6.5-11.6,8.8
	c-1,0.5-1.2,0.6-1.4,0.6c-0.2,0-0.3-0.1-0.3-0.3c0-0.3,0-0.3,3.1-2.2c3.6-2.1,7.2-5.7,9-8.7c-2.3-5-2.8-6.7-4.2-14.7
	c-2.2,4.2-4.1,7.2-4.6,7.1c-0.1,0-0.3-0.1-0.3-0.3c0-0.1,0.1-0.3,0.4-0.9c3-5.5,5.6-13.1,7-20.9L92.2,142.5z M87.3,154.1
	c0.1,4.2,2.3,11.4,4.3,14.7c2.1-4.2,3.2-8.2,4.1-14.7H87.3z M82.1,216.2c4.3-1,5.6-1.5,8-2.8c4.6-2.6,7.1-6.4,7.1-10.8
	c0-5.1-3-8.1-8-8.1c-3.2,0-7.9,1.6-11.3,3.8c-1.1,0.7-3.4,2.5-5.6,4.2c-0.9,0.7-1.4,1-1.9,1c-1.2,0-3.4-1.2-3.9-2.2
	c-0.3-0.5-0.7-2.2-0.7-3.2c0-0.2,0.1-0.4,0.3-0.4c0.2,0,0.2,0.1,0.3,0.4c0.3,1.2,1.4,2.1,2.6,2.1c1.1,0,2.1-0.4,6.4-2.9
	c5-2.9,9.9-4.4,14.4-4.4c6,0,10.6,4.2,10.6,9.7c0,5.4-3.2,9.5-9.5,12.1c-2.1,0.9-3.8,1.3-6.8,1.9c-1.7,0.3-2.3,0.4-2.7,0.4
	c-0.5,0-0.8-0.2-0.8-0.4c0-0.2,0.1-0.3,0.6-0.3c0.1,0,0.3,0,0.4-0.1L82.1,216.2z M92.4,226.4c4.3,0.6,7.8,3.8,7.8,7
	c0,1.4-0.9,2.5-1.9,2.5c-0.3,0-0.6-0.2-0.9-0.4c-0.5-0.5-0.5-0.5-1.3-3.9c-0.8-2.2-1.7-3.2-4-4.6L92.4,226.4z M29.5,22.4l2.4,2.2
	c0.3,0.3,0.5,0.6,0.5,0.9c0,0.3-0.3,0.5-0.8,0.5h-8.8v6.1c3.4,0.9,4.1,1.1,5.5,1.9c1.4,0.8,2,1.7,2,2.7c0,0.8-0.5,1.4-1,1.4
	c-0.4,0-0.9-0.4-1.9-1.6c-1.5-1.7-2.3-2.3-4.6-3.5v18c0,0.5-0.8,1-1.7,1c-0.3,0-0.4-0.1-0.4-0.6V32.4c-2,3.9-4.2,6.6-7.7,10.2
	c-1.6,1.7-2.2,2.2-2.4,2.2s-0.4-0.2-0.4-0.4c0-0.1,0-0.3,0.2-0.4c5.7-6.4,8.7-11.6,10.2-17.8h-2.7c-1.1,0-1.4,0-6.5,0.2l-0.8-1.6
	l4,0.1c1.5,0,3.1,0.1,3.3,0.1h2.8v-6.8c-3.1,0.6-7.9,1.3-8.7,1.3c-0.3,0-0.6-0.2-0.6-0.5c0-0.3,0.3-0.5,1.1-0.6
	c6.8-1.3,10.7-2.6,16.4-5l2.3,1.8c0.4,0.3,0.6,0.5,0.6,0.7c0,0.2-0.2,0.3-0.6,0.3l-1.7,0.1c-2.9,0.7-3.4,0.9-6.7,1.5v7.2h4.3
	L29.5,22.4z M29.4,48.7c-0.2,0.3-0.5,0.5-0.6,0.5c-0.2,0-0.3-0.1-0.6-0.5l-2-3.1c3-0.1,3.5-0.1,6.4-0.4c3.7-15,4.9-21,6.4-30.7
	l3.8,1.2c0.6,0.2,0.9,0.4,0.9,0.8c0,0.4-0.1,0.5-0.9,0.8l-1.1,0.4c-0.6,2-1,3.6-1.5,5.3L38,31.1l-2.6,9L34,45.2
	c1.9-0.2,3.7-0.4,5.5-0.7c1.6-0.2,2.5-0.3,5.4-0.7c-1.2-3.1-2.4-5.2-4.3-7.6l0.6-0.5c5.1,4.8,7.5,8.6,7.5,12.2
	c0,1.4-0.5,2.2-1.4,2.2c-0.5,0-0.9-0.3-1.1-0.9c0-0.2,0-0.2-0.5-2.2c-0.2-0.8-0.3-1-0.6-2.2l-15.1,3L29.4,48.7z M31.5,67.7
	c0,3.8-1.4,8.3-3.9,12.3c-2.6,4.2-5.4,6.6-7.7,6.6c-2.8,0-5.2-4-5.2-8.6c0-4.3,1.7-8.5,4.8-11.7c3.4-3.5,7.7-5.4,12.5-5.4
	c8,0,13.9,5.7,13.9,13.3c0,7-4,12.7-10.7,15.4c-1.8,0.8-4.9,1.6-5.7,1.6c-0.3,0-0.5-0.2-0.5-0.5c0-0.2,0.2-0.3,0.6-0.4
	c1.5-0.3,4.8-1.7,6.4-2.7c4.4-2.9,6.7-7.7,6.7-14c0-4.2-1.2-7.1-3.8-9.2c-2-1.6-4.4-2.4-7-2.4c-0.5,0-0.6,0-1.1,0.1
	C31.4,65.3,31.5,66.4,31.5,67.7z M29.3,62.2c-4,1-6.6,2.7-8.9,5.6S17,74.5,17,78.4c0,3,1.3,5.6,2.8,5.6c2,0,5.3-3.5,7.5-8.1
	c1.6-3.3,2.7-7.5,2.7-10.1c0-1.4-0.2-2.5-0.6-3.4L29.3,62.2z M35.9,101.9l1.1-1.5l2.8,2.2c0.2,0.1,0.3,0.4,0.3,0.6s-0.3,0.5-0.5,0.5
	l-1.6,0.3c-0.3,0.4-0.6,0.9-0.9,1.3c-1.1,1.5-1.8,2.5-2,2.8l-1.9,2.4c-0.2,0.2-0.4,0.4-0.6,0.7H41l0.9-1.5l2.4,1.7
	c0.3,0.2,0.5,0.5,0.5,0.8c0,0.2-0.2,0.4-0.5,0.5l-1.1,0.3v10.4c0,0.4-0.2,0.7-0.6,0.9c-0.4,0.2-0.9,0.3-1.2,0.3
	c-0.3,0-0.4-0.2-0.4-0.6V122H19.4v10.5c0,1.3,0,1.3,6.6,1.3c4.3,0,12.3-0.2,15.1-0.4c1.9-0.1,3-0.3,3.5-0.6c0.6-0.4,1.2-1.2,1.4-1.9
	l2.1-7.2l0.7,0.2l-1.1,6.8c0,0.3,0,0.4,0,0.7c0,0.3,0.1,0.4,0.7,0.8c0.4,0.3,0.6,0.5,0.6,0.9c0,1-1.2,1.7-3.7,2.2
	c-1.9,0.4-1.9,0.4-12.6,0.6h-3.1h-4.5c-3.8,0-5.6-0.1-6.4-0.4c-1.1-0.4-1.5-1-1.5-2.2v-21c-3.5,3.2-5.7,5-6.2,5
	c-0.1,0-0.3-0.2-0.3-0.4c0-0.3,0-0.3,1.7-1.9c5.8-5.5,8.9-10.1,13-19.3l2.9,1.9c0.5,0.3,0.6,0.5,0.6,0.8c0,0.4-0.3,0.6-0.6,0.6h-0.1
	l-1.4,0c-0.8,1.4-0.9,1.6-1.7,2.8H35.9z M24.3,103.1c-1.7,2.7-3.4,5-5.4,7.5l0.6,0.4h11.9c1.4-2,3.3-5.6,4.3-7.9H24.3z M29.1,120.8
	v-8.5h-9.8v8.5H29.1z M31.4,120.8H41v-8.5h-9.6V120.8z M20.7,147.8c-3,5.3-4.1,6.7-7.3,9.7c-1.4,1.3-2.2,1.9-2.5,1.9
	c-0.2,0-0.4-0.2-0.4-0.4c0-0.2,0-0.2,0.6-0.9c4.4-4.7,6.9-9.3,9.6-17.4l3,1.3c0.3,0.2,0.6,0.5,0.6,0.8c0,0.2-0.2,0.4-0.7,0.6l-1,0.4
	c-0.6,1.3-0.7,1.4-1.3,2.7h19.8l2.3-2.7l3,2.3c0.3,0.3,0.5,0.5,0.5,0.8c0,0.6-0.3,0.9-0.9,0.9H20.7z M16.3,163
	c2.9,0.6,7.3,2.4,11.1,4.6c1.9-2.9,2.7-4.3,4-7.2l2.8,1.7c0.3,0.2,0.4,0.4,0.4,0.6c0,0.2-0.1,0.2-0.5,0.4l-0.9,0.2
	c-2.3,3.5-2.6,3.9-3.8,5.5c2.1,1.4,3.4,2.5,5.3,4.4c1.7,1.6,2.5,3,2.5,4.1c0,0.8-0.5,1.5-1,1.5c-0.4,0-0.4,0-2.5-2.7
	c-1.7-2.1-3.8-4.1-5.8-5.6c-2.9,3.2-6.6,6.3-9.8,8.1c-1.6,0.9-3.7,1.9-4.1,1.9c-0.2,0-0.3-0.2-0.3-0.4c0-0.2,0.1-0.4,0.5-0.5
	c4.3-2.4,8.4-5.9,12-10.3c-2.1-1.8-6.1-4-10-5.7L16.3,163z M18.7,158c1.5,0,2.9,0,3.5,0h16.5l1.2-1.7l2.5,1.5
	c0.3,0.2,0.5,0.4,0.5,0.6c0,0.2-0.1,0.4-0.5,0.5l-0.9,0.5c0,5.9,0.3,7.9,1.4,11.2c0.9,2.6,2.8,6,3.4,6c0.2,0,0.3-0.3,0.5-0.8
	l1.7-5.6l0.5,0.1l-0.6,6.6v0.3c0,0.6,0.1,1.1,0.5,1.7c0.3,0.5,0.4,0.8,0.4,1c0,0.5-0.4,0.9-0.9,0.9c-0.6,0-2-0.8-2.9-1.6
	c-2-1.8-4.1-5.7-5.1-9.6c-0.6-2.5-0.9-4.6-1.1-10.5H22.3c-1.9,0-2,0-6.3,0.1l-1.3-1.5L18.7,158z M23.1,151.9c1.3,0,2.5,0.1,2.7,0.1
	h12l2-2.4l2.9,2.4c0.3,0.2,0.4,0.4,0.4,0.7c0,0.3-0.2,0.5-0.4,0.5H25.9c-1.4,0-2.5,0-4.9,0.1l-0.9-1.5L23.1,151.9z M48,193
	c0,2.9-2.2,5.2-4.9,5.2c-2.7,0-4.9-2.3-4.9-5.2c0-2.9,2.2-5.1,4.9-5.1C45.8,187.9,48,190.2,48,193z M39.6,193c0,2.1,1.6,3.7,3.5,3.7
	c2,0,3.5-1.7,3.5-3.7c0-2.1-1.6-3.7-3.6-3.7C41.2,189.3,39.6,191,39.6,193z M113.7,0H0v257.9h113.7V0z"/>
</svg>
