<?xml version="1.0" encoding="utf-8"?>
<!-- Generator: Adobe Illustrator 24.3.0, SVG Export Plug-In . SVG Version: 6.00 Build 0)  -->
<svg version="1.1" id="レイヤー_1" xmlns="http://www.w3.org/2000/svg" xmlns:xlink="http://www.w3.org/1999/xlink" x="0px"
	 y="0px" width="113.7px" height="467.4px" viewBox="0 0 113.7 467.4" style="enable-background:new 0 0 113.7 467.4;"
	 xml:space="preserve">
<style type="text/css">
	.st0{fill:#FFFFFF;}
</style>
<path class="st0" d="M74.9,9.8c0.4,0.2,0.6,0.3,0.6,0.5c0,0.2-0.1,0.4-0.4,0.6l-0.7,0.4c4.9,2,6.9,3.8,6.9,5.8
	c0,0.8-0.3,1.3-0.8,1.3c-0.4,0-0.4,0-2.2-2.6c-1.2-1.6-2.8-2.9-4.3-3.7c-1.7,3.2-3.9,7-4.9,8.4l1,0.7h3.1v-4.6l2.1,0.4
	c0.5,0.1,0.7,0.3,0.7,0.6c0,0.1-0.1,0.3-0.3,0.5L75,18.7v2.6h2.5l0.6-0.9l2.2,1.6c0.3,0.2,0.4,0.4,0.4,0.6s-0.1,0.3-0.4,0.4
	l-0.7,0.3v12.3c0,0.6-0.7,1.1-1.6,1.1c-0.3,0-0.4-0.1-0.4-0.4v-1.8h-7.4V44c3.9-0.8,5.5-1.1,8.1-1.7c-1.3-1.7-1.9-2.4-3.5-3.8
	l0.2-0.6c3,1.5,4.4,2.5,5.4,3.6c1.1,1.3,1.7,2.6,1.7,3.7c0,0.9-0.5,1.5-1.1,1.5c-0.6,0-0.8-0.3-1.3-1.9c-0.2-0.7-0.4-1.1-1-1.9
	c-0.9,0.3-1.4,0.4-1.6,0.5l-4,1.4c-1.3,0.4-2.5,0.9-3.8,1.3c-0.3,0.1-0.7,0.2-1.1,0.4l-0.7,0.3l-0.3,0.8c-0.2,0.4-0.3,0.6-0.6,0.6
	c-0.2,0-0.5-0.2-0.6-0.5L64.1,45c1.7-0.2,2-0.2,4-0.6V21.8c-1.7,2.2-3.7,4.3-4.2,4.3c-0.2,0-0.3-0.1-0.3-0.4c0-0.2,0-0.2,1.1-1.7
	c3.3-4.4,6.2-10.2,7.8-15.3L74.9,9.8z M77.5,26.9v-4.5h-7.4v4.5H77.5z M77.5,33.2v-5h-7.4v5H77.5z M90.3,10.4
	c0.4,0.2,0.6,0.4,0.6,0.6c0,0.3-0.1,0.4-0.5,0.5l-1.2,0.4c-0.9,2.2-1.2,3.1-2,4.7h10.4l2-2.5l2.8,2.2c0.3,0.2,0.5,0.5,0.5,0.8
	c0,0.5-0.3,0.7-0.9,0.7H93v7.8h5.3l0.9-1.1l2,1.3c0.3,0.2,0.5,0.4,0.5,0.7c0,0.3-0.1,0.4-0.4,0.5l-0.6,0.3v14.1
	c0,1.5-0.1,1.8-0.8,2.4c-0.7,0.5-1.4,0.9-1.9,0.9c-0.3,0-0.5-0.2-0.6-0.6c-0.1-0.4-0.3-0.7-0.3-0.7c0,0-0.3-0.2-0.7-0.4l-1.9-0.9
	v-0.6l2,0h0.1c1.7-0.1,2-0.3,1.9-1.7V26.8H93V48c0,0.6-0.1,0.8-0.7,1.2c-0.4,0.3-0.7,0.4-1,0.4s-0.4-0.2-0.4-0.5V26.8h-5.2v15
	c0,0.8-0.9,1.9-1.7,1.9c-0.2,0-0.3-0.1-0.3-0.4v-19l2,1.2h5.2v-7.8h-4.2c-1.7,3.3-2.9,5.3-4.1,6.9c-1.6,2.1-1.6,2.1-1.9,2.1
	c-0.1,0-0.2-0.1-0.2-0.3c0-0.3,0-0.3,1.3-2.7c2.2-4.2,4.2-9.6,5.5-14.7L90.3,10.4z M75.7,65c0-1.7,1.1-3.6,2.6-4.5
	c1.1-0.6,2.9-1.2,5.2-1.6c1-0.1,1.1-0.2,1.1-0.4c0-0.2-0.1-0.2-0.4-0.3c-2.6-0.4-4.2-2.3-4.2-4.8c0-0.9,0.2-1.5,0.6-1.5
	c0.2,0,0.2,0.1,0.3,0.4c0.1,2.5,1.3,3.4,4.6,3.9c1.3,0.1,1.6,0.2,2.2,0.7c0.7,0.6,1.2,1.5,1.2,2.2c0,0.8-0.5,1.2-1.2,1.2
	c-0.3,0-1.3,0-2-0.1c-1-0.1-1.7-0.1-2.2-0.1c-1.5,0-3.7,0.7-4.6,1.4c-0.8,0.7-1.1,1.2-1.1,2.3c0,0.3,0,0.5,0.2,0.8
	c0.3,0.6,0.3,0.9,0.3,1.4c0,0.5-0.1,1.3-0.4,2.4c-0.8,3.3-1.3,6.5-1.3,7.9c0,1,0.4,1.7,1,1.7c0.4,0,0.9-0.4,1.9-1.4
	c2.7-2.9,6.1-4.5,9.4-4.5c4.2,0,7,2.6,7,6.6c0,4.2-3.2,7.7-8.7,9.5c-2,0.6-3.9,1.1-6,1.3c-1.2,0.1-3.3,0.3-3.5,0.3
	c-0.3,0-0.6-0.3-0.6-0.6c0-0.1,0.1-0.2,0.3-0.2c1.4,0,5.7-0.9,7.9-1.7c4.9-1.8,8-5.3,8-9.2c0-2.8-2-4.7-5.2-4.7
	c-2.6,0-5.2,1.3-7.1,3.5c-0.7,0.9-1,1.3-1.3,2.2c-0.5,1.3-0.5,1.5-0.6,1.6c-0.2,0.7-0.4,0.9-1,0.9c-0.6,0-1.5-0.5-2.3-1.3
	c-0.8-0.9-1.2-1.9-1.2-3.5c0-0.9,0.1-1.5,0.6-3.8c0.4-1.9,0.6-3.9,0.6-6.2L75.7,65z M84.7,98.6c0.4,0,1.2,0.8,1.2,1.3
	c0,1.1-2.3,2.6-6.3,3.9c-1.1,3.7-2.4,7.1-5.1,13.2c-1.7,3.9-2.7,5.2-3.9,5.2c-0.9,0-1.7-0.8-1.7-1.6c0-0.5,0.3-0.9,1-1.8
	c3.1-3.5,6.1-9.2,7.9-14.9c-1.6,0.4-3.2,0.7-4.2,0.7c-1.4,0-2.5-0.6-3.3-2.1c-0.3-0.5-0.8-1.7-0.8-2c0-0.1,0.1-0.2,0.2-0.2
	c0,0,0.1,0,0.2,0.1c0.6,1.3,2.2,2.2,4.1,2.2c1.2,0,2.3-0.2,4.4-0.8c0.5-1.7,1-4.3,1-5c0-1.2-0.7-2.1-1.7-2.1l-0.3,0c0,0-0.1,0-0.1,0
	l-0.2,0l-0.2-0.2l0-0.1c0.2-0.3,1.7-0.8,2.4-0.8c1.1,0,2.6,1,2.6,1.8c0,0.1-0.1,0.4-0.3,0.9c-0.1,0.2-0.1,0.4-0.3,0.9
	c1.6,1.1,2.4,1.5,2.9,1.5L84.7,98.6z M88,120.8c0-2.3,0-3.4,0-4c0-3.8,0.4-5.4,1.9-6.9c1-1,2-1.7,3.5-2.1c1.6-0.4,2-0.7,2-1.1
	c0-1-2.5-2.2-4.6-2.2c-0.5,0-1.3,0.1-1.4,0.2c-0.1,0-0.2,0-0.2,0c-0.1,0-0.2-0.2-0.2-0.3c0-0.5,1.7-1.1,3.1-1.1
	c3.9,0,7.2,2.2,7.2,4.8c0,0.6-0.4,1.1-0.9,1.1c-0.2,0-0.5-0.1-0.9-0.3c-0.6-0.3-1.6-0.4-2.4-0.4c-1.1,0-2.2,0.3-3.1,0.9
	c-1.2,0.7-1.9,2.4-1.9,4.4c0,0.7,0,1.5,0.1,2.6c0.2,2.1,0.3,3.2,0.4,5.5c4.3,1.3,7.8,3.9,7.8,5.8c0,0.7-0.5,1.3-1.2,1.3
	c-0.6,0-0.9-0.2-1.7-1.1c-1-1.2-3.7-3.3-5-3.9c-0.1,2.3-0.4,3.4-1.4,4.4c-1,1.2-2.5,1.7-4.6,1.7c-3.6,0-6.1-1.8-6.1-4.4
	c0-2.7,2.7-4.5,6.7-4.5c1.3,0,2.1,0.1,3.1,0.3V120.8z M88,123.1c-1.2-0.5-2.3-0.8-4-0.8c-2.9,0-4.4,1-4.4,3c0,1.6,1.7,2.7,4.2,2.7
	c1.9,0,3.3-0.8,3.8-2c0.3-0.5,0.3-1.3,0.3-2.5v-0.1V123.1z M83.2,99.4c0-0.3-0.5-0.8-1.9-1.8c-0.5,1.7-0.8,2.6-1.2,3.8
	C82.2,100.5,83.2,99.9,83.2,99.4z M73.8,141.6c0,0.7-0.1,1.4-0.4,2.9c-0.7,3.3-0.9,5.2-0.9,7.4c0,3.1,0.7,5.9,1.9,7.5
	c0.9,1.2,1.8,2,2.5,2c0.7,0,0.7,0,3.1-5.8c1.2-2.7,1.3-3,1.5-3c0.1,0,0.3,0.2,0.3,0.4c0,0.1,0,0.1-0.2,0.8c-1.2,3.5-1.9,6.2-1.9,7.9
	c0,0.9,0.3,1.9,0.9,2.6c0.2,0.2,0.2,0.3,0.2,0.4c0,0.4-0.7,1-1.3,1c-1.9,0-4.6-1.6-5.9-3.5c-2.2-3.1-3.2-6.7-3.2-12.2
	c0-1.7,0.1-4.1,0.3-5.7c0.1-1,0.1-1.8,0.1-2.3c0-2-1.1-3.6-2.5-3.7c-0.3,0-0.3,0-0.3-0.2c0-0.2,0.6-0.4,1.3-0.4
	C71.7,137.6,73.8,139.5,73.8,141.6z M88.9,146.1c-0.2,0-0.3,0-0.3,0c-0.1,0-0.2-0.1-0.2-0.2c0-0.4,0.7-0.5,2-0.5
	c2.6,0,4.9,0.9,6.7,2.6c1.8,1.7,3.1,4.4,3.1,6.4c0,1.6-0.9,2.8-2.2,2.8c-0.8,0-1-0.4-1-1.5c0-5.3-3.6-9.6-7.9-9.6H88.9z M70.5,182.4
	h-0.6l-2.9,0.1l-2,0l-0.8-1.5c4.2,0.2,4.3,0.2,5.7,0.2h0.6v-9.1l3,0.4c0.6,0.1,0.9,0.3,0.9,0.7c0,0.3-0.2,0.4-0.7,0.8l-0.9,0.5v6.7
	h2.8l2-2.3l2.3,2.3h5.5l0-1.4l0.1-2.9c0-0.8,0-1.5,0-2.2c0-0.7,0-1.3,0-2.7l3.5,0.4c0.6,0.1,0.9,0.4,0.9,0.7c0,0.3-0.3,0.6-0.9,0.9
	l-0.9,0.3c0,1.4-0.1,2.7-0.1,3.1c-0.1,2.1-0.1,2.4-0.3,3.8h9.5l2.3-2.6l3,2.3c0.3,0.3,0.6,0.7,0.6,1c0,0.3-0.2,0.5-0.6,0.5h-15
	c-0.3,2.7-0.4,4-1.1,7.1h9l1.4-1.5l2.5,2c0.3,0.3,0.5,0.5,0.5,0.8s-0.3,0.5-0.7,0.6l-1.1,0.3c-1.6,4.2-3,7-5.2,10.5
	c4.1,3.9,6,5.4,10.2,7.8c-0.9,0.2-1.8,0.8-2.8,1.9c-3.3-2.3-5.9-4.7-8.7-8.1c-3.5,3.4-5.4,4.8-8.4,6.4c-1.9,0.9-5,2.1-5.6,2.1
	c-0.2,0-0.3-0.2-0.3-0.4c0-0.3,0-0.3,1.2-0.8c5.3-2.2,9.1-5.1,11.9-9.1c-2-3.5-3.1-6.2-4-10.5c-1.6,5.3-2.7,7.8-5.1,11.4
	c-2.7,4-7.6,9.2-8.7,9.2c-0.2,0-0.4-0.2-0.4-0.4c0-0.2,0.1-0.4,0.4-0.6c8.5-8.7,11.9-16.2,12.9-28.5H72.8v9.5
	c1.2-0.5,1.7-0.7,3.4-1.5L79,189c0.4-0.2,0.9-0.4,1.3-0.6l0.3,0.9c-2.4,1.5-4.4,2.6-7.8,4.5V208c0,0.7-0.3,1.3-1.3,2.1
	c-0.8,0.6-1.2,0.9-1.6,0.9c-0.4,0-0.6-0.2-0.7-0.7c-0.1-0.7-0.2-0.8-0.6-1l-3.2-1.3l0.1-0.5l3.3,0.1h0.2c1.1,0.1,1.6-0.5,1.6-2
	v-10.5c-1.6,0.8-1.8,0.9-3.2,1.8l-0.2,1.2c-0.1,0.5-0.4,0.8-0.7,0.8c-0.2,0-0.4-0.1-0.5-0.4l-1.7-3.3c3.6-1.2,4.1-1.3,6.4-2.3V182.4
	z M87.2,190.7c1.1,4.4,2.2,6.8,4.3,9.6c1.7-2.8,3.5-6.7,4.5-9.6H87.2z M73.3,218.4c1.2,0.9,1.8,2.1,1.8,3.5c0,0.8-0.1,1.3-0.7,2.9
	c-1.7,4.6-2.6,8.5-2.6,12c0,2.9,0.6,5.2,1.5,5.2c0.3,0,0.5-0.2,0.7-0.9c0-0.2,0.1-0.5,0.3-0.8c0.2-0.4,0.3-0.9,0.6-1.4
	c2.3-6,2.4-6.5,2.7-6.5c0.2,0,0.5,0.2,0.5,0.4c0,0.1,0,0.1-0.3,1.1c-1.7,4.8-2.3,7.3-2.3,9.2c0,0.7,0.2,1.9,0.4,2.6
	c0.1,0.2,0.1,0.4,0.1,0.4c0,0.5-0.7,1.1-1.3,1.1c-0.7,0-1.9-1-2.6-2.1c-1.2-2.1-1.9-4.8-1.9-7.5c0-2.6,0.3-5.1,1.5-11.4
	c0.5-2.3,0.7-4.1,0.7-5.2c0-1.6-0.6-2.8-1.7-3.4c-0.1,0-0.1,0-0.1-0.1c0-0.1,0.1-0.3,0.2-0.3C71.1,217.2,72.6,217.9,73.3,218.4z
	 M93.3,223c0,1.4,0,1.7,0.1,2.7c1.3-0.3,3.8-1.9,4.2-2.6c0.2-0.3,0.3-0.4,0.4-0.4c0.3,0,1.4,0.3,1.7,0.4c0.6,0.3,0.8,0.5,0.8,0.8
	c0,1-3.2,2.8-6.9,3.8c0.2,3,0.3,4.8,0.3,6.2c0,8-1.9,12.3-7,15.4c-1.9,1.2-4.2,2.2-5.1,2.2c-0.2,0-0.4-0.2-0.4-0.4
	c0-0.2,0.1-0.4,0.5-0.5c0.8-0.3,2.9-1.4,3.7-2c2.4-1.8,4.1-4.4,5-7.6c0.7-2.6,0.9-5.2,0.9-10.2c0-0.7,0-1.4,0-2.6
	c-1.6,0.4-3.1,0.7-4.2,0.7c-1.4,0-3.2-0.9-4.1-2c-0.4-0.5-0.7-1-0.7-1.2c0-0.2,0.2-0.4,0.3-0.4c0,0,0.1,0,0.2,0.2
	c0.9,1.2,1.7,1.6,3.4,1.6c1.4,0,3.2-0.3,4.8-0.9c-0.3-7.6-0.6-8.3-3.5-8.3c-0.2,0-0.3-0.1-0.3-0.2c0-0.5,1.6-1.3,2.5-1.3
	c1.2,0,3.8,1.4,3.8,2.2c0,0.1,0,0.2-0.1,0.4c-0.3,0.8-0.3,1.1-0.3,3.2V223z M70.9,260.5h16.5c-0.3-1.9-0.3-2.5-0.6-6.9l3.6,0.8
	c0.3,0,0.5,0.2,0.5,0.5c0,0.2-0.1,0.4-0.4,0.4l-1.3,0.4c0.1,2.5,0.2,3.1,0.3,4.8h7.7l2.4-2.3l2.9,2.5c0.2,0.2,0.3,0.4,0.3,0.5
	c0,0.3-0.2,0.5-0.6,0.5H89.6c0.8,6.2,1.5,9.3,2.6,11.8c1.3-2,2.9-5.4,4.3-9.2l3,1.7c0.2,0.1,0.3,0.3,0.3,0.5c0,0.3-0.2,0.4-0.5,0.5
	l-1.4,0.1c-2.7,4.8-3.6,6.4-4.9,8c1.8,2.2,2.7,3.1,4.2,4c0.9,0.6,1.8,0.9,2.2,0.9c0.3,0,0.8-0.5,1.2-1.4l2-5.2h0.6l-1.1,5.2
	c-0.1,0.8-0.2,1.3-0.2,1.4c0,0.4,0.1,0.6,0.5,1.3c0.2,0.4,0.3,0.7,0.3,0.9c0,0.5-0.5,0.8-1.4,0.8c-2.8,0-6.6-2.4-9.7-6.2
	c-2,2.4-4.9,5-5.7,5c-0.2,0-0.3-0.2-0.3-0.4c0-0.2,0.2-0.4,0.6-0.8c2.2-2.1,2.9-2.9,4.4-5.1c-1.5-3.2-2.6-7.6-3.4-13.8H70.4
	c0,1.4,0,2.6,0,3.3c0,8.1-0.8,12.5-3.1,16.5c-1.4,2.5-3.1,4.6-3.6,4.6c-0.1,0-0.3-0.2-0.3-0.4c0-0.1,0.1-0.4,0.5-0.9
	c0.9-1.3,1.9-3.3,2.6-5.2c1.2-2.9,1.6-6.4,1.6-11.4c0-1.8,0-2.6-0.2-8.7L70.9,260.5z M72,283.3c-0.1,2.5-0.4,4.2-1,5.4
	c-0.9,2-2.6,3.5-3.9,3.5c-0.8,0-1.4-0.5-1.4-1.2c0-0.5,0.3-0.9,1-1.4c2.6-1.8,3.7-3.4,4.5-6.3H72z M83.4,263.8l2.6,2
	c0.3,0.2,0.4,0.5,0.4,0.8c0,0.5-0.3,0.8-0.8,0.8h-8.2c-1.2,0-2.3,0-4.6,0.1l-1.2-1.6c2.7,0.2,3.5,0.2,5.8,0.2h3.7L83.4,263.8z
	 M75.7,279.2c0,0.5-0.7,1-1.6,1c-0.2,0-0.3-0.1-0.3-0.4v-10.1l2,1.1h6.4l0.9-1.1l2.4,1.3c0.2,0.1,0.3,0.3,0.3,0.5
	c0,0.2-0.1,0.4-0.3,0.5l-1.1,0.3v5.6c0,0.4,0,0.5-0.8,0.8c-0.6,0.2-0.9,0.3-1,0.3c-0.1,0-0.2-0.1-0.2-0.2v-1.4h-6.6V279.2z
	 M82.3,276.2V272h-6.6v4.2H82.3z M92.4,289.4l-0.1,1c0,0,0.2,0.2,0.5,0.4c0.3,0.2,0.6,0.6,0.6,0.8c0,0.4-0.6,1.1-1.2,1.3
	c-1.4,0.6-5,0.9-10,0.9c-3.9,0-5-0.1-5.6-0.6c-0.5-0.4-0.7-1-0.7-2.2v-8.6l3.1,0.8c0.4,0.1,0.5,0.2,0.5,0.5c0,0.2-0.1,0.4-0.3,0.5
	l-1.2,0.4v5.5c0,1.3,0.1,1.3,2.9,1.3c3.4,0,4.5,0,7.5-0.2c1.5-0.1,2-0.5,2.6-2.4l1.2-3.7l0.6,0L92.4,289.4z M79,279.5
	c2.5,0.3,3.8,0.8,5.2,1.8c1.2,0.9,1.9,2,1.9,3.1c0,0.9-0.5,1.6-1,1.6c-0.4,0-0.7-0.3-1.2-1.3c-0.9-1.8-2.8-3.5-5.2-4.7L79,279.5z
	 M91.3,253.5c3.5,0.3,6.1,2,6.1,4.1c0,0.8-0.6,1.4-1.2,1.4c-0.3,0-0.5-0.3-0.8-0.8c-1.1-2-2.6-3.5-4.4-4.2L91.3,253.5z M92.8,282.4
	c5.1,2.2,9.2,6.1,9.2,8.8c0,0.8-0.6,1.4-1.4,1.4c-0.6,0-0.8-0.3-1.8-2.4c-2.1-3.9-3.3-5.2-6.4-7.3L92.8,282.4z M77.9,304.1
	c0-2.1-0.8-3-2.6-3c-0.5,0-0.6,0-0.6-0.2c0-0.5,1.2-1.1,2.1-1.1c1.7,0,3.8,1.5,3.8,2.7c0,1-0.6,4.5-1.3,6.9c1.9-0.5,2.7-0.6,3.6-0.6
	c3.3,0,4.8,2.2,4.8,7.1c0,4.8-1.2,9.6-3,12.4c-1.1,1.6-3.2,2.9-4.8,2.9c-0.7,0-0.9-0.2-1-1c-0.1-1-0.8-2.2-2.7-4.5
	c-0.2-0.2-0.2-0.3-0.2-0.4c0-0.1,0.2-0.3,0.3-0.3c0,0,0.1,0,0.2,0.2c0.2,0.2,1.7,1.5,2.1,1.8c0.9,0.7,1.6,1,2.2,1
	c1,0,1.9-0.7,2.5-1.9c1.3-2.8,2.3-7.6,2.3-11.5c0-3-1-4.6-2.8-4.6c-1,0-2.3,0.3-3.8,0.9c-1.2,4.2-4.2,12.1-6.1,15.8
	c-2,3.9-2.9,5.1-4,5.1c-0.9,0-1.5-0.6-1.5-1.3c0-0.4,0.1-0.6,0.9-1.7c3.6-4.3,6.8-10.6,8.7-17.2c-3.5,1.3-3.8,1.4-5.2,2.2
	c-1,0.4-1.5,0.7-1.7,0.7c-0.3,0-1-0.4-1.6-0.9c-0.7-0.7-1.2-1.7-1.2-2.4c0-0.6,0.1-1,0.3-1c0.2,0,0.3,0.1,0.4,0.5
	c0.3,0.7,1,1.2,1.9,1.2c0.9,0,5.1-0.9,7.3-1.7C77.6,308.2,77.9,305.7,77.9,304.1z M95.1,303.5c0,0.7-0.6,1.3-1.2,1.3
	c-0.4,0-0.6-0.1-1-0.9c-0.9-1.7-2.2-2.8-4-3.4c-0.1,0-0.2-0.1-0.2-0.2c0-0.2,0.5-0.3,1.2-0.3C92.6,300.2,95.1,301.8,95.1,303.5z
	 M94,318.6c-0.2,0-0.3-0.1-0.3-0.3c0-0.2,0.1-0.3,0.4-0.3c0.3-0.1,1.7-0.4,3-0.7c1.7-0.4,2-0.6,2-1.6c0-1.8-1.4-4.3-3.4-5.7
	c-1.3-0.9-2.6-1.4-4-1.4c-0.4,0-0.5-0.1-0.5-0.3c0-0.3,0.9-0.5,1.9-0.5c1.8,0,4.2,0.9,5.8,2.3c1.9,1.7,3.3,4.5,3.3,6.8
	c0,1.7-0.8,3-1.8,3c-0.3,0-0.4,0-0.7-0.3c-0.7-0.7-1.9-1-4.1-1c-0.7,0-0.8,0-1.2,0H94z M99.5,301.5c0,0.8-0.6,1.4-1.2,1.4
	c-0.4,0-0.7-0.2-1-0.9c-0.8-1.6-2.3-2.8-3.9-3.3c-0.1,0-0.2-0.1-0.2-0.2c0-0.2,0.4-0.3,1.1-0.3C96.9,298.3,99.5,299.9,99.5,301.5z
	 M82.7,362.5c4.3-1,5.6-1.5,8-2.8c4.6-2.6,7.1-6.4,7.1-10.8c0-5.1-3-8.1-8-8.1c-3.2,0-7.9,1.6-11.3,3.8c-1.1,0.7-3.4,2.5-5.6,4.2
	c-0.9,0.7-1.4,1-1.9,1c-1.2,0-3.4-1.2-3.9-2.2c-0.3-0.5-0.7-2.2-0.7-3.2c0-0.2,0.1-0.4,0.3-0.4c0.2,0,0.2,0.1,0.3,0.4
	c0.3,1.2,1.4,2.1,2.6,2.1c1.1,0,2.1-0.4,6.4-2.9c5-2.9,9.9-4.4,14.4-4.4c6,0,10.6,4.2,10.6,9.7c0,5.4-3.2,9.5-9.5,12.1
	c-2.1,0.9-3.8,1.3-6.8,1.9c-1.7,0.3-2.3,0.4-2.7,0.4c-0.5,0-0.8-0.2-0.8-0.4c0-0.2,0.1-0.3,0.6-0.3c0.1,0,0.3,0,0.4-0.1L82.7,362.5z
	 M88.2,372.3c0,0.5-0.2,0.8-0.6,1.2c-1,0.8-2.7,2.6-5.8,6.2c-3.3,3.8-3.6,4.4-3.6,6.4c0,1.4,0.2,1.8,1.6,3.8
	c1.7,2.2,4.6,6.4,5.7,8.2c1.6,2.5,2.3,4.3,2.3,5.7c0,1.5-0.8,2.6-1.7,2.6c-0.8,0-1.3-0.6-1.5-1.9c-0.9-4.3-2.4-7.5-6.6-14.4
	c-1.2-1.8-1.6-2.8-1.6-4.1c0-0.9,0.4-2.2,0.9-3.1c0.6-1.1,0.6-1.1,4.1-5.8c2.6-3.5,3.4-4.8,3.4-5.6c0-1-1.1-1.9-2.2-2
	c-0.2,0-0.3-0.1-0.3-0.3c0-0.3,0.8-0.5,1.6-0.5C85.7,368.7,88.2,370.7,88.2,372.3z M74.8,413.6c0,0,0.1,0.1,0.1,0.2
	c0.1,0.8,0.8,1.3,1.7,1.3c1.4,0,5.5-1.6,7.5-2.9c1-0.7,1.4-0.9,1.9-0.9c1.5,0,4.4,2.1,4.4,3.1c0,0.5-0.3,0.9-1.4,1.6
	c-1.4,0.9-3.1,2.7-7,7.4c-1.6,1.9-1.8,2.2-1.8,2.6c0,0.1,0.3,0.5,0.4,0.5c0,0,0.1,0,0.2-0.1c0,0,0,0,1.5-0.6c1.4-0.6,3.7-1,5.3-1
	c2.5,0,5,1.2,6.5,3.1c1,1.3,1.7,3.5,1.7,5.5c0,3.6-2.1,6.9-5.6,8.6c-1.8,0.9-4.2,1.5-6,1.5c-3.8,0-6.3-1.6-6.3-4c0-2,1.6-3.4,4-3.4
	c2.7,0,4.9,1.6,6,4.5c0,0.1,0,0.1,0.1,0.2c3.4-1.5,5-4.1,5-7.9c0-4.2-2.4-6.8-6.4-6.8c-2.2,0-4.4,0.6-6.5,1.8c-1.4,0.8-4,4-5.3,6.8
	c-1.2,2.4-1.4,2.7-2.1,2.7c-0.4,0-0.8-0.3-1.1-0.7c-0.2-0.4-0.6-1.3-0.6-1.6c0-0.4,0.3-0.9,1.1-1.7c3.7-3.9,6.7-7.6,11.3-14.3
	c0.6-0.8,1.1-1.5,1.4-2c1.2-1.4,1.6-2.2,1.6-2.7c0-0.5-0.6-1-1.2-1c-0.6,0-1.7,0.4-2.5,0.8c-0.8,0.4-1.1,0.7-2.9,2
	c-2.3,1.6-2.3,1.6-2.6,1.6c-0.6,0-1.7-0.8-2.1-1.5c-0.3-0.6-0.6-1.3-0.6-1.8C74.4,414.2,74.5,413.8,74.8,413.6L74.8,413.6z
	 M81.6,437.4c-1.2,0-2.1,0.8-2.1,1.9c0,1.3,1.8,2.4,4.1,2.4c0.6,0,1.2-0.1,1.7-0.2c0.1,0,0.1,0,0.2,0
	C84.8,438.6,83.7,437.4,81.6,437.4z M93,448.3c4.3,0.6,7.8,3.8,7.8,7c0,1.4-0.9,2.5-1.9,2.5c-0.3,0-0.6-0.2-0.9-0.4
	c-0.5-0.5-0.5-0.5-1.3-3.9c-0.8-2.2-1.7-3.2-4-4.6L93,448.3z M22,26.7c0-0.8,0-1.9,0.1-3.3c0-0.9,0-1.5,0-1.8c0-3.1-0.7-4.7-2.2-5.2
	c-0.2,0-0.3-0.1-0.3-0.2c0-0.2,1.5-0.8,2.1-0.8c1.4,0,3.6,1.8,3.6,3c0,0.1,0,0.3-0.1,0.5c-0.5,3-0.6,4.6-1,10.5
	c3.6-1.5,6.8-3.3,9.2-5.4c1.1-0.9,1.6-1.6,1.6-2.3c0-0.4-0.3-0.9-0.9-1.4c-0.2-0.1-0.2-0.2-0.2-0.3c0-0.1,0.1-0.2,0.3-0.2
	c1.7,0,5.2,2.3,5.2,3.4c0,0.5-0.7,1-2.8,2c-3.7,1.8-9.2,4-12.5,5v1l0,2.4l0,1c0,2.1,0.5,3.8,1.4,4.6c0.8,0.8,2.3,1.2,5.1,1.2
	c3.4,0,6.5-0.5,8.2-1.4c0.4-0.2,0.5-0.2,0.6-0.2c0.4,0,2.2,0.6,2.8,0.9c0.3,0.2,0.5,0.4,0.5,0.7c0,1.4-3.6,2.4-9.2,2.4
	c-5.1,0-7.5-0.4-9-1.6c-1.7-1.3-2.4-3.3-2.4-6.5l0-3.5V26.7z M46.9,15.1c0,2.4-1.9,4.3-4.1,4.3c-2.3,0-4.1-2-4.1-4.4
	c0-2.4,1.9-4.3,4.2-4.3C45,10.8,46.9,12.7,46.9,15.1z M39.9,15.1c0,1.7,1.3,3,2.9,3c1.6,0,2.8-1.3,2.8-3c0-1.6-1.3-3-2.9-3
	C41.1,12.1,39.9,13.5,39.9,15.1z M36.1,60.6c0-0.4,0.1-0.9,0.1-0.9c0-0.2,0-0.4,0-0.5c0-0.6-0.5-1.1-1.2-1.1c-1.3,0-4.5,0.9-7.3,2.1
	c-0.7,0.3-0.9,0.4-1.2,0.4c-0.4,0-1.1-0.4-1.7-1c-0.5-0.5-0.7-1.1-0.7-1.9c0-0.7,0-0.9,0.3-0.9c0.1,0,0.1,0,0.1,0.1
	c0.3,0.9,1.1,1.3,2.4,1.3c2.3,0,7.6-1.2,9.1-2.1c0.4-0.2,0.5-0.3,0.8-0.3c0.6,0,3,2,3,2.5c0,0.1-0.1,0.2-0.3,0.5
	c-0.7,0.6-0.9,1.2-2.9,10.3c5.3-0.5,6.6-0.6,8.4-1c0.2,0,0.3,0,0.4,0c0.3,0,0.7,0.2,2,1.2c0.9,0.6,1.2,1,1.2,1.4
	c0,0.4-0.5,0.8-0.9,0.8c-0.2,0-0.5,0-1-0.2c-1.1-0.3-5.4-0.7-7.5-0.7c-3.1,0-7.5,0.4-11.4,1c-1.8,0.3-2.6,0.5-4.2,1.1
	C22.6,73,22.5,73,22.2,73c-0.4,0-1.1-0.4-2.5-1.3c-0.7-0.5-1.1-1-1.1-1.4c0-0.3,0.4-1.2,0.5-1.2c0,0,0,0,0,0.1
	c0,0.6,1.6,1.1,3.3,1.1c0.3,0,0.7,0,1.2-0.1c0.6,0,1.9-0.1,3.8-0.3c2.7-0.2,4.6-0.4,7.3-0.7C35.6,64.9,35.8,63.5,36.1,60.6z
	 M22.8,116.5c-1.4,1.2-3.7,2.7-4.3,2.7c-0.2,0-0.4-0.2-0.4-0.3c0-0.2,0-0.2,1.1-1c3.7-2.6,7.1-7.6,9.2-13.6c1.1-3.2,1.8-6.2,1.8-8
	c0-1-0.3-1.4-1.5-1.8c-0.1,0-0.2-0.1-0.2-0.2c0-0.2,1-0.5,1.7-0.5c0.7,0,2.4,1.3,3.4,2.5c1.7-1,4.7-3.1,5.9-4.2
	c1-0.9,1.3-1.3,1.3-1.8c0-0.7-0.8-1-2.7-1c-2,0-7.4,0.7-10.5,1.3c-3.7,0.8-4.9,1.1-6.6,2c-0.4,0.2-0.6,0.2-0.9,0.2
	c-0.9,0-2.3-0.9-3-1.9c-0.5-0.6-0.8-1.7-0.8-2.7c0-0.3,0.2-0.5,0.4-0.5c0.1,0,0.1,0,0.3,0.3c0.5,1,1.9,1.8,3.3,1.8
	c0.3,0,0.7,0,1.1,0c0.7-0.1,1.2-0.1,1.7-0.2c1-0.1,1.9-0.2,2.9-0.3c10.4-1.1,13.3-1.5,14.3-2c0.6-0.2,0.7-0.3,1-0.3
	c0.6,0,0.7,0,2.7,2c1.9,1.8,1.9,1.8,1.9,2.1c0,0.4-0.3,0.5-0.9,0.7c-0.8,0.2-0.8,0.2-2.8,1.2c-4.4,2.2-6.6,3.2-9,4.3
	C31.4,105.2,27.4,112.6,22.8,116.5z M31.2,129.8c0.4,0,1.2,0.8,1.2,1.3c0,1.1-2.3,2.6-6.3,3.9c-1.1,3.7-2.4,7.1-5.1,13.2
	c-1.7,3.9-2.7,5.2-3.9,5.2c-0.9,0-1.7-0.8-1.7-1.6c0-0.5,0.3-0.9,1-1.8c3.1-3.5,6.1-9.2,7.9-14.9c-1.6,0.4-3.2,0.7-4.2,0.7
	c-1.4,0-2.5-0.6-3.3-2.1c-0.3-0.5-0.8-1.7-0.8-2c0-0.1,0.1-0.2,0.2-0.2c0,0,0.1,0,0.2,0.1c0.6,1.3,2.2,2.2,4.1,2.2
	c1.2,0,2.3-0.2,4.4-0.8c0.5-1.7,1-4.3,1-5c0-1.2-0.7-2.1-1.7-2.1l-0.3,0c0,0-0.1,0-0.1,0l-0.2,0l-0.2-0.2l0-0.1
	c0.2-0.3,1.7-0.8,2.4-0.8c1.1,0,2.6,1,2.6,1.8c0,0.1-0.1,0.4-0.3,0.9c-0.1,0.2-0.1,0.4-0.3,0.9c1.6,1.1,2.4,1.5,2.9,1.5L31.2,129.8z
	 M34.5,151.9c0-2.3,0-3.4,0-4c0-3.8,0.4-5.4,1.9-6.9c1-1,2-1.7,3.5-2.1c1.6-0.4,2-0.7,2-1.1c0-1-2.5-2.2-4.6-2.2
	c-0.5,0-1.3,0.1-1.4,0.2c-0.1,0-0.2,0-0.2,0c-0.1,0-0.2-0.2-0.2-0.3c0-0.5,1.7-1.1,3.1-1.1c3.9,0,7.2,2.2,7.2,4.8
	c0,0.6-0.4,1.1-0.9,1.1c-0.2,0-0.5-0.1-0.9-0.3c-0.6-0.3-1.6-0.4-2.4-0.4c-1.1,0-2.2,0.3-3.1,0.9c-1.2,0.7-1.9,2.4-1.9,4.4
	c0,0.7,0,1.5,0.1,2.6c0.2,2.1,0.3,3.2,0.4,5.5c4.3,1.3,7.8,3.9,7.8,5.8c0,0.7-0.5,1.3-1.2,1.3c-0.6,0-0.9-0.2-1.7-1.1
	c-1-1.2-3.7-3.3-5-3.9c-0.1,2.3-0.4,3.4-1.4,4.4c-1,1.2-2.5,1.7-4.6,1.7c-3.6,0-6.1-1.8-6.1-4.4c0-2.7,2.7-4.5,6.7-4.5
	c1.3,0,2.1,0.1,3.1,0.3V151.9z M34.5,154.3c-1.2-0.5-2.3-0.8-4-0.8c-2.9,0-4.4,1-4.4,3c0,1.6,1.7,2.7,4.2,2.7c1.9,0,3.3-0.8,3.8-2
	c0.3-0.5,0.3-1.3,0.3-2.5v-0.1V154.3z M29.7,130.5c0-0.3-0.5-0.8-1.9-1.8c-0.5,1.7-0.8,2.6-1.2,3.8
	C28.7,131.7,29.7,131.1,29.7,130.5z M15.4,204.6c0,0.5-0.2,0.7-0.8,1.2c-0.4,0.2-0.8,0.4-1,0.4c-0.2,0-0.3-0.1-0.3-0.4v-37.5
	l2.7,2.1h5.2l1.2-1.8l2.6,1.8c0.3,0.2,0.5,0.4,0.5,0.7c0,0.3-0.2,0.5-0.6,0.7l-1.1,0.4v31c0,0.5-0.9,1.1-1.6,1.1
	c-0.3,0-0.5-0.2-0.5-0.4v-2.7h-6.4V204.6z M15.4,180.2h6.4v-8.6h-6.4V180.2z M15.4,189.6h6.4v-8.2h-6.4V189.6z M15.4,200h6.4v-9.2
	h-6.4V200z M29.1,167.5l2.4,1.9h11.1l1-1.6l2.8,1.8c0.3,0.2,0.5,0.4,0.5,0.7c0,0.3-0.2,0.6-0.4,0.7l-1.1,0.7v14.8
	c0,0.5-0.9,1.3-1.7,1.3c-0.3,0-0.4-0.2-0.4-0.4V186h-8c0.8,3.4,2.4,7.3,4,9.6c3.2-2.6,4.9-4.4,7.1-7.5l2.5,2.7
	c0.2,0.2,0.3,0.4,0.3,0.5c0,0.2-0.3,0.4-0.5,0.4h-0.1l-1.3-0.1l-7.4,4.7c3.3,4.4,6.4,6.8,10.7,8.2l-1.1,0.5c-1.5,0.7-1.8,1-2.3,2
	c-3-1.8-5.2-4-7.7-8c-2.3,1.5-5.3,3.3-9.8,5.9l-0.3,1.2c-0.1,0.5-0.3,0.8-0.6,0.8c-0.2,0-0.4-0.1-0.6-0.4l-2.4-3.2
	c1.8-0.5,2-0.6,3.5-1V167.5z M43.3,177v-6.4h-12v6.4H43.3z M31.3,184.7h12v-6.5h-12V184.7z M31.3,201.5c3.4-1.3,3.9-1.5,7.6-3.2
	c-2.1-3.4-3.8-7.9-4.8-12.3h-2.9V201.5z M29.1,224.3h-7.7c-2.3,0-3.3,0-6.2,0.2l-1.2-1.6c3.6,0.2,4.5,0.2,7.4,0.2h7.7v-5.6H19
	c-1.5,0-1.5,0-6.2,0.2l-1.2-1.6c3.9,0.2,5.5,0.2,7.4,0.2h4.6c-0.3-0.4-0.3-0.6-0.5-0.9l-0.3-0.8l-0.2-0.7c-0.4-1.3-1.4-2.8-3.1-4.4
	l0.3-0.3c4.3,2.1,5.8,3.6,5.8,5.7c0,0.5-0.1,0.9-0.4,1.4h8.4c1.4-3.1,1.9-4.3,2.9-7.4l3.2,1.7c0.2,0,0.3,0.3,0.3,0.5
	c0,0.2-0.1,0.4-0.3,0.5l-1.5,0.4c-1,1.4-1.6,2.2-3.2,4.3h7.8l2.1-2.4l2.5,2.3c0.2,0.1,0.3,0.4,0.3,0.6c0,0.4-0.2,0.7-0.4,0.7H31.4
	v5.6h7.7l2.1-2.4l2.6,2.1c0.2,0.2,0.3,0.4,0.3,0.7c0,0.4-0.2,0.8-0.5,0.8H31.4v5.4h12.3l2.5-2.7l2.9,2.5c0.2,0.1,0.3,0.4,0.3,0.7
	c0,0.4-0.3,0.8-0.5,0.8H24.3c-1.2,3.3-1.4,3.8-2.1,5.3c2.9,0.1,4.1,0.2,5.7,0.2h12.4l2.1-2.3l2.6,2.2c0.3,0.2,0.3,0.4,0.3,0.6
	c0,0.4-0.2,0.7-0.4,0.7H33v9.2h10.6l2.4-2.8l2.8,2.4c0.2,0.2,0.3,0.4,0.3,0.8c0,0.4-0.3,0.9-0.6,0.9H24.4c-1.4,0-1.7,0-6.2,0.1
	l-1.2-1.6c4.1,0.2,5.7,0.2,7.4,0.2h6.3v-9.2h-2.9c-1.6,0-2.6,0-5,0.1l-0.9-1.1c-1.7,3.7-4,7-7,9.8c-2,1.8-3.7,3.2-4.2,3.2
	c-0.2,0-0.4-0.1-0.4-0.4c0-0.2,0-0.2,0.7-0.9c5.6-5.2,8.4-9.9,10.5-17.5h-3.8c-1.5,0-2.9,0-6.2,0.2l-1.2-1.6
	c3.7,0.2,5.1,0.2,7.4,0.2h11.3V224.3z M26.5,260.2c0,0.6-0.1,1.2-0.5,2.7c-0.9,3.5-2,12.8-2,16.3c0,2.5,0.7,4.7,1.8,6.1
	c1.2,1.5,3.1,2.2,5.7,2.2c3.1,0,5.7-0.9,8.3-2.8c1.4-1,3.5-3.1,4.3-4c0.5-0.7,0.5-0.7,0.6-0.7c0.1,0,0.2,0.1,0.2,0.3
	c0,0.8-0.5,1.8-1.8,3.4c-3.5,4.3-7.1,6.2-11.8,6.2c-3,0-5.4-1-7-3.1c-1.5-1.9-2.1-4.3-2.1-8c0-2,0.5-10.5,0.9-15.1
	c0.1-1.6,0.2-2.9,0.2-3.7c0-2.5-0.7-3.9-2-3.9c-0.3,0-0.4,0-0.4-0.2c0-0.4,0.7-0.8,1.6-0.8C24.4,255.3,26.5,257.8,26.5,260.2z
	 M47.9,302.6c0,2.9-2.2,5.2-4.9,5.2c-2.7,0-4.9-2.3-4.9-5.2s2.2-5.1,4.9-5.1C45.7,297.5,47.9,299.9,47.9,302.6z M39.5,302.6
	c0,2.1,1.6,3.7,3.5,3.7c2,0,3.5-1.7,3.5-3.7s-1.6-3.7-3.6-3.7C41,299,39.5,300.7,39.5,302.6z M113.7,0H0v467.4h113.7V0z"/>
</svg>
