<?xml version="1.0" encoding="utf-8"?>
<!-- Generator: Adobe Illustrator 24.3.0, SVG Export Plug-In . SVG Version: 6.00 Build 0)  -->
<svg version="1.1" id="レイヤー_1" xmlns="http://www.w3.org/2000/svg" xmlns:xlink="http://www.w3.org/1999/xlink" x="0px"
	 y="0px" width="113.7px" height="428.5px" viewBox="0 0 113.7 428.5" style="enable-background:new 0 0 113.7 428.5;"
	 xml:space="preserve">
<style type="text/css">
	.st0{fill:#FFFFFF;}
</style>
<path class="st0" d="M85.1,17.1c1.1,0,3.2-0.3,4.9-0.7c0.7-0.2,1.3-0.4,2-0.9c0.3-0.3,0.5-0.3,0.7-0.3c0.3,0,0.3,0,1.8,1.2
	c0.9,0.8,1.4,1.3,1.4,1.4c0,0.2-0.1,0.3-0.3,0.4c-0.4,0.2-0.7,0.4-0.9,0.7c-0.3,0.3-0.4,0.5-1.4,2.5C88.8,29.9,82.9,36,75.6,39.9
	c-2.2,1.2-6.4,2.9-7.1,2.9c-0.3,0-0.6-0.3-0.6-0.6c0-0.1,0-0.1,0.8-0.4c4.3-1.6,10.6-6,14.7-10.3c3.4-3.5,5.9-7.2,7.5-11
	c0.5-1.2,0.9-2.2,0.9-2.5s-0.3-0.5-0.7-0.5c-0.4,0-0.9,0.1-2,0.3c-1.5,0.3-3.6,0.7-3.9,0.7c-0.4,0-0.9-0.3-1.8-1
	c-2.6,4.4-6,8.1-9.4,10.6C72.6,29,71,30,70.7,30c-0.2,0-0.4-0.2-0.4-0.4c0-0.1,0.1-0.3,0.5-0.5c2.2-1.5,4.3-3.6,6.7-7
	c2.9-3.8,4.2-6.6,4.2-8.5c0-1.2-0.6-2.2-1.5-2.6c-0.1,0-0.2-0.1-0.2-0.2c0-0.1,0.3-0.2,1-0.2c1,0,1.7,0.3,2.9,1.2
	c1.1,0.8,1.5,1.3,1.5,1.8c0,0.2,0,0.3-0.2,0.5c-0.2,0.2-0.3,0.4-0.3,0.5c-0.2,0.3-0.3,0.6-1.1,2.1C84.2,17,84.4,17.1,85.1,17.1z
	 M79.6,47.7c-0.1,0-0.3-0.2-0.3-0.3c0-0.2,1.7-1,2.2-1c0.5,0,1.7,0.5,2.6,1c1.3,0.8,1.7,1.2,1.7,1.6c0,0.1,0,0.2-0.1,0.4
	c-0.5,1.2-0.5,1.4-0.6,2.2c-0.2,1.4-0.4,5.9-0.4,8.3c0,0.9,0,2.4,0.1,4.1c0.2,4,0.3,6.8,0.3,8.2c0,2.2,0.1,3.7,0.2,4.4
	c0,0.7,0.1,1.3,0.1,1.7c0,0.9-0.5,1.8-1.1,1.8c-0.3,0-1.1-0.4-1.5-0.6c-0.4-0.3-0.7-1-0.7-1.6c0-0.2,0-0.6,0.1-1.1
	c0.4-4.9,0.5-7.9,0.6-17.6l0-3.9c0-3.6-0.1-5.9-0.4-6.5c-0.3-0.8-0.9-1.1-2.1-1.3H80L79.6,47.7z M65.7,114.2c0-0.1,0.1-0.2,0.2-0.3
	c2-1.3,4.9-4.8,6.6-8.1c1.6-2.9,3.1-7.3,3.4-9.9c0.3-2.6,0.3-2.6,0.3-2.8c0-1.1-0.6-2.1-1.7-2.5c-0.1,0-0.1-0.1-0.1-0.2
	c0-0.2,0.3-0.3,0.7-0.3c0.8,0,2,0.5,3,1.2c1,0.7,1.6,1.3,1.6,1.5c0,0.1,0,0.2-0.3,0.4c-0.3,0.3-0.4,0.6-0.6,1.4
	c-2,9.3-6.1,16.1-12.2,19.7c-0.2,0.1-0.3,0.1-0.3,0.1c-0.1,0-0.1,0.1-0.2,0.1C66,114.6,65.8,114.4,65.7,114.2L65.7,114.2z
	 M83.6,92.7c0-2.9-0.1-3.3-1.3-3.8c-0.2,0-0.2-0.1-0.2-0.1c0-0.2,1-0.6,1.3-0.6c0.7,0,1.5,0.4,2.8,1.5c0.8,0.6,0.9,0.7,0.9,0.9
	c0,0.1,0,0.1-0.3,0.5c-0.4,0.7-0.7,1.6-0.8,3.5c-0.2,2.4-0.6,8.7-0.6,10.1c0,0.9,0.3,1.3,0.9,1.3c1.5,0,4.9-2.2,8-5
	c3-2.9,6.4-7.1,8.1-10.4c0.4-0.8,0.4-0.8,0.6-0.8c0.1,0,0.3,0.2,0.3,0.4c0,0.5-1.7,4.1-2.9,6.1c-3.2,5.3-8,9.8-13.2,12.5
	c-0.6,0.3-1.2,0.7-1.4,1c-0.2,0.3-0.2,0.3-0.3,0.3c-0.6,0-2.6-2.2-2.6-2.8c0-0.1,0-0.2,0.2-0.5c0.4-0.9,0.5-1.3,0.5-3.4L83.6,92.7z
	 M84.5,122.2c0.4,0,1.2,0.8,1.2,1.3c0,1.1-2.3,2.6-6.3,3.9c-1.1,3.7-2.4,7.1-5.1,13.2c-1.7,3.9-2.7,5.2-3.9,5.2
	c-0.9,0-1.7-0.8-1.7-1.6c0-0.5,0.3-0.9,1-1.8c3.1-3.5,6.1-9.2,7.9-14.9c-1.6,0.4-3.2,0.7-4.2,0.7c-1.4,0-2.5-0.6-3.3-2.1
	c-0.3-0.5-0.8-1.7-0.8-2c0-0.1,0.1-0.2,0.2-0.2c0,0,0.1,0,0.2,0.1c0.6,1.3,2.2,2.2,4.1,2.2c1.2,0,2.3-0.2,4.4-0.8c0.5-1.7,1-4.3,1-5
	c0-1.2-0.7-2.1-1.7-2.1l-0.3,0c0,0-0.1,0-0.1,0l-0.2,0l-0.2-0.2l0-0.1c0.2-0.3,1.7-0.8,2.4-0.8c1.1,0,2.6,1,2.6,1.8
	c0,0.1-0.1,0.4-0.3,0.9c-0.1,0.2-0.1,0.4-0.3,0.9c1.6,1.1,2.4,1.5,2.9,1.5L84.5,122.2z M87.8,144.4c0-2.3,0-3.4,0-4
	c0-3.8,0.4-5.4,1.9-6.9c1-1,2-1.7,3.5-2.1c1.6-0.4,2-0.7,2-1.1c0-1-2.5-2.2-4.6-2.2c-0.5,0-1.3,0.1-1.4,0.2c-0.1,0-0.2,0-0.2,0
	c-0.1,0-0.2-0.2-0.2-0.3c0-0.5,1.7-1.1,3.1-1.1c3.9,0,7.2,2.2,7.2,4.8c0,0.6-0.4,1.1-0.9,1.1c-0.2,0-0.5-0.1-0.9-0.3
	c-0.6-0.3-1.6-0.4-2.4-0.4c-1.1,0-2.2,0.3-3.1,0.9c-1.2,0.7-1.9,2.4-1.9,4.4c0,0.7,0,1.5,0.1,2.6c0.2,2.1,0.3,3.2,0.4,5.5
	c4.3,1.3,7.8,3.9,7.8,5.8c0,0.7-0.5,1.3-1.2,1.3c-0.6,0-0.9-0.2-1.7-1.1c-1-1.2-3.7-3.3-5-3.9c-0.1,2.3-0.4,3.4-1.4,4.4
	c-1,1.2-2.5,1.7-4.6,1.7c-3.6,0-6.1-1.8-6.1-4.4c0-2.7,2.7-4.5,6.7-4.5c1.3,0,2.1,0.1,3.1,0.3V144.4z M87.8,146.7
	c-1.2-0.5-2.3-0.8-4-0.8c-2.9,0-4.4,1-4.4,3c0,1.6,1.7,2.7,4.2,2.7c1.9,0,3.3-0.8,3.8-2c0.3-0.5,0.3-1.3,0.3-2.5V147V146.7z
	 M82.9,123c0-0.3-0.5-0.8-1.9-1.8c-0.5,1.7-0.8,2.6-1.2,3.8C82,124.1,82.9,123.5,82.9,123z M82.2,171.8H77c-2,0-3.2,0-6.4,0.2
	l-1.2-1.6l4.3,0.1c1.4,0,2.9,0.1,3.2,0.1h5.2V166h-7.3c-1.7,0-3.2,0-7.4,0.2l-1.3-1.7l5,0.2c1.6,0,3.1,0.1,3.7,0.1h7.3v-6.1l3.2,0.4
	c0.4,0,0.7,0.3,0.7,0.6c0,0.2-0.1,0.4-0.4,0.5l-1.3,0.9v3.7h9.8l2.6-2.7l3.1,2.6c0.3,0.3,0.5,0.6,0.5,0.9c0,0.3-0.3,0.5-0.6,0.5
	H84.4v4.6h8.1l2.3-2.5l2.9,2.4c0.4,0.4,0.5,0.4,0.5,0.7c0,0.4-0.3,0.6-0.6,0.6H84.4v5h12.3l2.6-2.7l2.9,2.4c0.3,0.3,0.6,0.6,0.6,0.9
	c0,0.3-0.3,0.6-0.6,0.6H85.1c0.9,3.1,2.3,5.9,4.5,8.3c1.8-1.9,4-5,5.2-7.4l2.5,1.8c0.3,0.2,0.4,0.4,0.4,0.6c0,0.3-0.1,0.4-0.5,0.4
	l-1,0.1c-4.4,3.9-4.6,4.1-6.1,5.1c3.2,3.6,7.1,6.4,12.7,9.2c-1.4,0.1-2.6,0.8-3.6,2c-8.1-5.3-12.8-11.4-15.5-20.2h-0.4
	c-1.5,1.8-2.6,3.1-4.3,4.8v10.4c2.9-0.5,4-0.8,10.1-2.3l0.1,0.7c-4.9,1.9-6.3,2.3-15.9,5.4l-0.7,1.2c-0.2,0.3-0.4,0.5-0.6,0.5
	c-0.2,0-0.5-0.3-0.8-0.6l-2.2-3.2c3.3-0.5,5.1-0.8,7.9-1.3v-8.9c-2.6,2.2-6.1,4.4-8.9,5.7c-1.6,0.8-2.9,1.3-3.2,1.3
	c-0.3,0-0.4-0.1-0.4-0.3c0-0.3,0.3-0.5,1.2-1c5.8-3.2,12.4-8.8,14.3-12.3h-7.6c-1.3,0-1.5,0-7.4,0.3l-1.2-1.7c2.2,0,4.2,0.1,4.9,0.1
	c1.8,0,3.1,0.1,3.7,0.1h9.7V171.8z M67.3,214.5c0.5,1.9,0.7,3.1,0.7,4.3c0,3.3-0.9,5.3-2.4,5.3c-0.7,0-1.2-0.6-1.2-1.4
	c0-0.4,0.1-0.8,0.7-1.7c1.4-2.5,1.6-3.6,1.6-6.5L67.3,214.5z M72.2,242.7c0,0.5-0.9,1.2-1.7,1.2c-0.4,0-0.6-0.2-0.6-0.6v-39.8
	l3.2,0.6c0.5,0.1,0.8,0.3,0.8,0.6c0,0.3-0.2,0.4-0.5,0.6l-1.2,0.7v6.1c3.8,1,5.4,2.2,5.4,3.9c0,0.8-0.6,1.6-1.3,1.6
	c-0.4,0-0.7-0.3-0.9-1c-0.7-2-1.7-3.2-3.2-3.8V242.7z M87.4,215.1h-3.3c-1.5,0-2.6,0-4.9,0.1l-0.8-1.5c1.3,0,2.4,0.1,2.9,0.1
	c1.4,0,2.4,0.1,2.9,0.1h3.3v-3.6h-5.5c-1.7,0-2.7,0-4.7,0.1l-1-1.5c0.6,0,1.7,0,5.7,0.2h5.5v-6l3,0.5c0.5,0.1,0.8,0.3,0.8,0.7
	c0,0.3-0.2,0.5-0.6,0.6l-0.9,0.3v3.8h7.3l2.3-2.5l2.5,1.9c0.4,0.4,0.7,0.7,0.7,1c0,0.4-0.4,0.7-1,0.7H89.6v3.6h5.8l1.7-1.9l2.6,2
	c0.3,0.2,0.4,0.4,0.4,0.7c0,0.3-0.2,0.4-0.5,0.4H89.6v3.9h7.8l2.2-2.3l2.9,2.3c0.3,0.3,0.5,0.5,0.5,0.7c0,0.3-0.3,0.5-0.7,0.5H82.5
	c-0.8,0-1.9,0-6.5,0.2l-0.9-1.6c5.4,0.2,5.8,0.2,7.4,0.2h4.9V215.1z M82.8,242.9c0,0.6-0.2,0.8-0.9,1.1c-0.6,0.3-0.9,0.4-1,0.4
	c-0.2,0-0.3-0.1-0.3-0.4v-21.4l2.3,1.3h11.9l0.9-1l2.5,1.6c0.3,0.2,0.4,0.4,0.4,0.7c0,0.3-0.2,0.4-0.4,0.6l-0.9,0.4V240
	c0,1.6-0.4,2.4-1.4,3.1c-0.6,0.4-1.2,0.7-1.6,0.7c-0.3,0-0.5-0.2-0.7-0.7c-0.1-0.4-0.3-0.7-0.4-0.8c0,0-0.3-0.1-0.7-0.3l-2.5-0.9
	l0.2-0.6l2.7,0.1l0.5,0c1.4,0,1.8-0.4,1.8-1.7v-4.4H82.8V242.9z M82.8,228.7h12.3v-3.6H82.8V228.7z M95.1,233.4v-3.5H82.8v3.5H95.1z
	 M83.9,271.1c0.2,2.2,0.3,3.3,0.3,4.4c0,1.7-0.5,2.3-1.9,2.3c-0.5,0-0.7-0.1-0.7-0.5c0,0,0-0.2,0-0.3c0.1-0.8,0.2-2.5,0.2-4.8
	c-3.9,2.6-5.3,4.2-5.3,6.3c0,1.2,0.9,2.2,2.3,2.7c1.1,0.4,2.4,0.5,4.4,0.5c2.3,0,3.6-0.2,6.2-0.9c0.4-0.1,0.7-0.1,1-0.1
	c0.9,0,1.8,0.8,1.8,1.4c0,0.8-0.9,1.4-2,1.6c-1.6,0.3-4.8,0.5-6.1,0.5c-5.8,0-9.3-2-9.3-5.3c0-1.8,0.9-3.5,2.7-4.9
	c1.1-0.9,1.8-1.3,4.3-2.8v-0.3c0-1-0.2-2.8-0.3-4c-0.3-1.9-1.1-2.9-2.3-2.9c-1.8,0-4.4,2.5-6.7,6.4c-0.5,0.8-0.7,1-1.2,1
	c-0.3,0-0.6-0.2-0.9-0.8c-0.4-0.7-0.6-1.3-0.6-1.6c0-0.4,0.1-0.7,0.6-1.1c4.6-4.1,7.6-8.7,8.4-13c-1.2,0.4-3,0.8-3.8,0.8
	c-0.8,0-1.7-0.7-2.2-1.7c-0.3-0.4-0.6-1.2-0.6-1.4c0,0,0.1-0.1,0.1-0.1c0.1,0,0.2,0.1,0.3,0.3c0.5,0.8,1.2,1,2.6,1
	c1.2,0,2.5-0.3,3.8-0.7c0.1-0.7,0.1-0.9,0.1-1.3c0-1.3-0.9-2.4-2-2.4c-0.1,0-0.1,0-0.1-0.1c0-0.4,1.1-1,1.9-1c1.4,0,2.8,1.3,2.8,2.6
	c0,0.5-0.1,1-0.3,1.7c1.3-0.4,2.3-1,2.9-1.5c0.4,0.3,0.6,0.4,0.8,0.4c0.7,0.4,0.9,0.5,0.9,0.8c0,0.4-0.5,0.6-1.7,1.1
	c-0.1,0-0.6,0.2-1.2,0.4c-0.7,0.2-1.1,0.4-1.9,0.6c-1.1,3.1-3.1,7-4.8,9.5c1.8-0.8,2.3-0.9,3.1-0.9c1.2,0,2.5,0.8,3.2,1.9
	c0.5,0.6,0.6,1.2,0.8,2.4c2.6-6,6.2-9.4,10.2-9.4c2.8,0,5.2,1.8,5.2,4c0,0.9-0.4,1.7-1,2.2c-0.5,0.4-0.5,0.4-3.4,1.8
	c-3.4,1.5-5.3,2.4-5.7,2.6c-0.8,0.4-1.2,0.6-3.5,1.8L83.9,271.1z M84.5,269.2c10.5-5.9,11.2-6.4,11.2-7.6c0-1.2-1.4-2.2-2.9-2.2
	c-2.1,0-4.7,1.9-6.5,4.8c-0.9,1.4-2.1,4-2.5,5.2c0,0.2-0.1,0.3-0.1,0.3L84.5,269.2z M82.4,315.2c4.3-1,5.6-1.5,8-2.8
	c4.6-2.6,7.1-6.4,7.1-10.8c0-5.1-3-8.1-8-8.1c-3.2,0-7.9,1.6-11.3,3.8c-1.1,0.7-3.4,2.5-5.6,4.2c-0.9,0.7-1.4,1-1.9,1
	c-1.2,0-3.4-1.2-3.9-2.2c-0.3-0.5-0.7-2.2-0.7-3.2c0-0.2,0.1-0.4,0.3-0.4c0.2,0,0.2,0.1,0.3,0.4c0.3,1.2,1.4,2.1,2.6,2.1
	c1.1,0,2.1-0.4,6.4-2.9c5-2.9,9.9-4.4,14.4-4.4c6,0,10.6,4.2,10.6,9.7c0,5.4-3.2,9.5-9.5,12.1c-2.1,0.9-3.8,1.3-6.8,1.9
	c-1.7,0.3-2.3,0.4-2.7,0.4c-0.5,0-0.8-0.2-0.8-0.4c0-0.2,0.1-0.3,0.6-0.3c0.1,0,0.3,0,0.4-0.1L82.4,315.2z M87.9,325.7
	c0,0.5-0.2,0.8-0.6,1.2c-1,0.8-2.7,2.6-5.8,6.2c-3.3,3.8-3.6,4.4-3.6,6.4c0,1.4,0.2,1.8,1.6,3.8c1.7,2.2,4.6,6.4,5.7,8.2
	c1.6,2.5,2.3,4.3,2.3,5.7c0,1.5-0.8,2.6-1.7,2.6c-0.8,0-1.3-0.6-1.5-1.9c-0.9-4.3-2.4-7.5-6.6-14.4c-1.2-1.8-1.6-2.8-1.6-4.1
	c0-0.9,0.4-2.2,0.9-3.1c0.6-1.1,0.6-1.1,4.1-5.8c2.6-3.5,3.4-4.8,3.4-5.6c0-1-1.1-1.9-2.2-2c-0.2,0-0.3-0.1-0.3-0.3
	c0-0.3,0.8-0.5,1.6-0.5C85.5,322.1,87.9,324,87.9,325.7z M74.6,367.2c0,0,0.1,0.1,0.1,0.2c0.1,0.8,0.8,1.3,1.7,1.3
	c1.4,0,5.5-1.6,7.5-2.9c1-0.7,1.4-0.9,1.9-0.9c1.5,0,4.4,2.1,4.4,3.1c0,0.5-0.3,0.9-1.4,1.6c-1.4,0.9-3.1,2.7-7,7.4
	c-1.6,1.9-1.8,2.2-1.8,2.6c0,0.1,0.3,0.5,0.4,0.5c0,0,0.1,0,0.2-0.1c0,0,0,0,1.5-0.6c1.4-0.6,3.7-1,5.3-1c2.5,0,5,1.2,6.5,3.1
	c1,1.3,1.7,3.5,1.7,5.5c0,3.6-2.1,6.9-5.6,8.6c-1.8,0.9-4.2,1.5-6,1.5c-3.8,0-6.3-1.6-6.3-4c0-2,1.6-3.4,4-3.4c2.7,0,4.9,1.6,6,4.5
	c0,0.1,0,0.1,0.1,0.2c3.4-1.5,5-4.1,5-7.9c0-4.2-2.4-6.8-6.4-6.8c-2.2,0-4.4,0.6-6.5,1.8c-1.4,0.8-4,4-5.3,6.8
	c-1.2,2.4-1.4,2.7-2.1,2.7c-0.4,0-0.8-0.3-1.1-0.7c-0.2-0.4-0.6-1.3-0.6-1.6c0-0.4,0.3-0.9,1.1-1.7c3.7-3.9,6.7-7.6,11.3-14.3
	c0.6-0.8,1.1-1.5,1.4-2c1.2-1.4,1.6-2.2,1.6-2.7c0-0.5-0.6-1-1.2-1c-0.6,0-1.7,0.4-2.5,0.8c-0.8,0.4-1.1,0.7-2.9,2
	c-2.3,1.6-2.3,1.6-2.6,1.6c-0.6,0-1.7-0.8-2.1-1.5c-0.3-0.6-0.6-1.3-0.6-1.8C74.1,367.7,74.3,367.3,74.6,367.2L74.6,367.2z
	 M81.4,390.9c-1.2,0-2.1,0.8-2.1,1.9c0,1.3,1.8,2.4,4.1,2.4c0.6,0,1.2-0.1,1.7-0.2c0.1,0,0.1,0,0.2,0
	C84.6,392.2,83.4,390.9,81.4,390.9z M92.8,402.5c4.3,0.6,7.8,3.8,7.8,7c0,1.4-0.9,2.5-1.9,2.5c-0.3,0-0.6-0.2-0.9-0.4
	c-0.5-0.5-0.5-0.5-1.3-3.9c-0.8-2.2-1.7-3.2-4-4.6L92.8,402.5z M17.7,29.3l2.2,1.7c0.4,0.3,0.6,0.5,0.6,0.7c0,0.2-0.1,0.3-0.5,0.4
	l-1,0.4v12.9c3.2,3.6,8,5,17.4,5c4.7,0,7.2-0.2,13.6-0.9c-1.2,0.9-2.1,1.9-2.6,3c-2.5,0.1-4.4,0.2-7.5,0.2c-12.8,0-17.8-1.6-22-6.8
	l-4,3.9l-0.3,0.9c-0.2,0.4-0.4,0.7-0.6,0.7c-0.2,0-0.4-0.2-0.9-0.9l-1.4-2.2c2.5-0.9,3.8-1.6,6-3V31.6h-0.7c-1.6,0-2.3,0-4.5,0.1
	l-1.2-1.5l3.7,0.1c0.9,0,1.7,0,2,0h0.7L17.7,29.3z M12.4,14.7c2.3,0.4,3.1,0.6,4.1,1.2c1.7,0.9,2.6,2.1,2.6,3.5c0,1-0.5,1.7-1.3,1.7
	c-0.6,0-0.6,0-1.6-1.9c-0.9-1.6-2-2.6-4.2-3.9L12.4,14.7z M33.4,17.4c-5.2,0.8-9.6,1.3-10.7,1.3c-0.5,0-0.6-0.1-0.6-0.4
	c0-0.4,0-0.4,2.8-0.7c6.6-1,12.7-2.6,17.3-4.6l2.2,1.8c0.6,0.4,0.6,0.5,0.6,0.7c0,0.3-0.2,0.4-0.7,0.4h-0.1l-1.5-0.1
	c-4.7,1-5,1-7,1.3v5.2h9.1l2.3-2.1l2.6,2c0.4,0.3,0.6,0.5,0.6,0.8c0,0.3-0.3,0.5-0.7,0.5H36.2c3.9,4,7.4,5.9,14.5,7.7
	c-1.3,0.6-1.5,0.7-1.8,0.9c-0.3,0.3-0.5,0.4-1.1,1.3c-5.2-2.2-8.1-4.4-12.3-9.4v6.1c0,0.5-1.1,1.3-1.7,1.3c-0.2,0-0.3-0.1-0.3-0.3
	V24c-2.7,3.4-5.2,5.7-8.9,8.3c2.9,0.1,4.1,0.2,5.7,0.2h9l0.8-1.3l2,1.4c0.4,0.3,0.6,0.5,0.6,0.8c0,0.2-0.1,0.3-0.6,0.4l-0.9,0.3
	c-0.6,1.5-0.8,2-1.2,3h4.6l0.7-1.2l2.1,1.6c0.3,0.2,0.5,0.6,0.5,0.9c0,0.2-0.2,0.3-0.5,0.4l-0.9,0.2c-1.4,6.7-3.3,9.4-6.6,9.4
	c-0.6,0-0.7-0.1-0.7-0.8c0-0.1,0-0.4,0-0.6c0-0.1,0-0.3,0-0.4c0-0.1,0-0.1-0.6-0.6l-1.8-1.3l0.2-0.7c2.2,1,3.2,1.4,4,1.4
	c1.4,0,2.6-2.5,3.5-7.2h-5.1c-0.9,2.6-1.2,3-2,3c-0.6,0-0.9-0.2-0.9-0.6c0-0.2,0-0.2,0.9-2.3l0.9-2.4c0.2-0.6,0.4-1.1,0.6-1.7
	c0-0.1,0.1-0.3,0.2-0.6h-5.5c-1.3,5.5-2.2,7.6-4.3,9.9c-1.5,1.6-4.9,3.9-5.8,3.9c-0.2,0-0.3-0.1-0.3-0.3c0-0.1,0.1-0.2,0.3-0.4
	c4.6-2.8,6.7-6.3,7.8-13.1h-1.2c-0.8,0-0.9,0-4.5,0.1l-1.4-1.3c-0.3,0.2-0.4,0.3-0.5,0.3c-1.7,1-2.6,1.5-3,1.5
	c-0.2,0-0.3-0.2-0.3-0.4c0-0.2,0-0.3,1-0.9c4-2.6,7.5-6,9.8-9.6h-3.5c-0.4,0-1.6,0-3.4,0.1c-0.6,0-2.1,0.1-3.8,0.1L19.4,22
	c2,0,4.4,0.1,8.4,0.2h5.6V17.4z M16.2,88c0,0.5-1.1,1.3-1.7,1.3c-0.3,0-0.4-0.1-0.4-0.3V59.8l2.6,1.2H24l1-1.2l2.5,1.6
	c0.2,0.1,0.4,0.4,0.4,0.8c0,0.2-0.2,0.4-0.4,0.5l-1,0.3V84c0,0.7-0.8,1.3-1.7,1.3c-0.3,0-0.5-0.1-0.5-0.4v-2.2h-8.1V88z M24.3,70.9
	v-8.7h-8.1v8.7H24.3z M16.2,81.5h8.1v-9.4h-8.1V81.5z M33.1,79.6c-0.9,5.4-1.4,7.1-3.3,9.7c-1.6,2.2-4.7,4.8-7.8,6.6
	c-1.1,0.6-2.3,1.1-2.6,1.1c-0.2,0-0.4-0.2-0.4-0.4c0-0.3,0.2-0.4,1.1-0.9c3-1.7,6.1-4.4,7.9-6.8c1.5-2.1,2.3-4,2.8-7.4
	c0.5-3,0.6-5.9,0.6-9.8c0-2,0-2-0.2-10.4l0-2.9l2.6,1.4h10.1l0.8-1.4l2.7,1.8c0.3,0.2,0.6,0.4,0.6,0.6c0,0.2-0.2,0.4-0.4,0.5
	l-1.1,0.5v32c0,0.9-0.5,1.6-1.8,2.5C43.9,96.8,43.4,97,43,97c-0.5,0-0.6-0.1-0.9-1c-0.1-0.4-0.2-0.4-0.9-0.6l-2.9-0.9l0.1-0.8l3.7,0
	c1.6,0,1.9-0.3,1.9-1.7V79.6H33.1z M33.5,70c0,3.6,0,5.3-0.3,8.4h11V70H33.5z M33.5,68.7h10.7V61H33.5V68.7z M31.7,107.4
	c0.4,0,1.2,0.8,1.2,1.3c0,1.1-2.3,2.6-6.3,3.9c-1.1,3.7-2.4,7.1-5.1,13.2c-1.7,3.9-2.7,5.2-3.9,5.2c-0.9,0-1.7-0.8-1.7-1.6
	c0-0.5,0.3-0.9,1-1.8c3.1-3.5,6.1-9.2,7.9-14.9c-1.6,0.4-3.2,0.7-4.2,0.7c-1.4,0-2.5-0.6-3.3-2.1c-0.3-0.5-0.8-1.7-0.8-2
	c0-0.1,0.1-0.2,0.2-0.2c0,0,0.1,0,0.2,0.1c0.6,1.3,2.2,2.2,4.1,2.2c1.2,0,2.3-0.2,4.4-0.8c0.5-1.7,1-4.3,1-5c0-1.2-0.7-2.1-1.7-2.1
	l-0.3,0c0,0-0.1,0-0.1,0l-0.2,0l-0.2-0.2l0-0.1c0.2-0.3,1.7-0.8,2.4-0.8c1.1,0,2.6,1,2.6,1.8c0,0.1-0.1,0.4-0.3,0.9
	c-0.1,0.2-0.1,0.4-0.3,0.9c1.6,1.1,2.4,1.5,2.9,1.5L31.7,107.4z M35,129.6c0-2.3,0-3.4,0-4c0-3.8,0.4-5.4,1.9-6.9c1-1,2-1.7,3.5-2.1
	c1.6-0.4,2-0.7,2-1.1c0-1-2.5-2.2-4.6-2.2c-0.5,0-1.3,0.1-1.4,0.2c-0.1,0-0.2,0-0.2,0c-0.1,0-0.2-0.2-0.2-0.3c0-0.5,1.7-1.1,3.1-1.1
	c3.9,0,7.2,2.2,7.2,4.8c0,0.6-0.4,1.1-0.9,1.1c-0.2,0-0.5-0.1-0.9-0.3c-0.6-0.3-1.6-0.4-2.4-0.4c-1.1,0-2.2,0.3-3.1,0.9
	c-1.2,0.7-1.9,2.4-1.9,4.4c0,0.7,0,1.5,0.1,2.6c0.2,2.1,0.3,3.2,0.4,5.5c4.3,1.3,7.8,3.9,7.8,5.8c0,0.7-0.5,1.3-1.2,1.3
	c-0.6,0-0.9-0.2-1.7-1.1c-1-1.2-3.7-3.3-5-3.9c-0.1,2.3-0.4,3.4-1.4,4.4c-1,1.2-2.5,1.7-4.6,1.7c-3.6,0-6.1-1.8-6.1-4.4
	c0-2.7,2.7-4.5,6.7-4.5c1.3,0,2.1,0.1,3.1,0.3V129.6z M35,131.9c-1.2-0.5-2.3-0.8-4-0.8c-2.9,0-4.4,1-4.4,3c0,1.6,1.7,2.7,4.2,2.7
	c1.9,0,3.3-0.8,3.8-2c0.3-0.5,0.3-1.3,0.3-2.5v-0.1V131.9z M30.1,108.2c0-0.3-0.5-0.8-1.9-1.8c-0.5,1.7-0.8,2.6-1.2,3.8
	C29.2,109.3,30.1,108.7,30.1,108.2z M26.8,162.8c-0.4,7.4-0.9,9.9-2.4,13.3c-1.6,3.5-4.6,6.2-8.7,8c-1.7,0.8-3.4,1.3-3.9,1.3
	c-0.2,0-0.4-0.2-0.4-0.4c0-0.3,0.1-0.4,1.7-1.1c8.5-4.3,11.1-9,11.5-21.1h-4.9c-1.2,0-2.1,0-7.2,0.2l-1.2-1.7
	c4.6,0.2,6.4,0.3,8.4,0.3h9v-16.3l3.1,0.4c0.6,0.1,0.9,0.4,0.9,0.7c0,0.3-0.2,0.5-0.6,0.7l-1.1,0.5v14h11.9l2.4-2.7l3.3,2.7
	c0.3,0.2,0.4,0.4,0.4,0.7c0,0.4-0.3,0.5-0.8,0.5H34.8v16.2c0,1.7,0.3,1.9,2.9,1.9c3.8,0,5.9-0.1,6.7-0.3c0.9-0.3,1.3-1,1.8-3.2
	l1.2-5.4h0.7l-0.1,5.5v0.9v0.6c0,0.8,0,0.9,0.8,1.5c0.3,0.3,0.5,0.6,0.5,0.9c0,0.3-0.3,0.7-0.6,0.9c-0.6,0.5-3.1,0.9-5.5,0.9h-3.7
	c-6.6,0-6.9-0.2-7-3.6v-16.6H26.8z M15.7,149.3c0.3,0.2,0.6,0.4,0.9,0.5c3.3,1.8,4.3,2.6,5.6,4.4c0.9,1.2,1.3,2.6,1.3,3.7
	c0,1.2-0.6,2.1-1.2,2.1c-0.7,0-1-0.4-1.5-2.6c-0.4-2.1-2.4-4.9-5.4-7.6L15.7,149.3z M34.2,160.3c2.3-3.2,5.1-8.5,6.5-12.2l3.2,2.5
	c0.3,0.2,0.5,0.4,0.5,0.7c0,0.4-0.2,0.5-0.9,0.5l-1.4,0.1c-2.5,3.1-4.1,5-7.5,8.8L34.2,160.3z M48.3,197.7c0,2.9-2.2,5.2-4.9,5.2
	c-2.7,0-4.9-2.3-4.9-5.2s2.2-5.1,4.9-5.1C46.2,192.6,48.3,194.9,48.3,197.7z M40,197.7c0,2.1,1.6,3.7,3.5,3.7c2,0,3.5-1.7,3.5-3.7
	s-1.6-3.7-3.6-3.7C41.5,194,40,195.7,40,197.7z M113.7,0H0v428.5h113.7V0z"/>
</svg>
