<?xml version="1.0" encoding="utf-8"?>
<!-- Generator: Adobe Illustrator 24.3.0, SVG Export Plug-In . SVG Version: 6.00 Build 0)  -->
<svg version="1.1" id="レイヤー_1" xmlns="http://www.w3.org/2000/svg" xmlns:xlink="http://www.w3.org/1999/xlink" x="0px"
	 y="0px" width="113.7px" height="320.1px" viewBox="0 0 113.7 320.1" style="enable-background:new 0 0 113.7 320.1;"
	 xml:space="preserve">
<style type="text/css">
	.st0{fill:#FFFFFF;}
</style>
<path class="st0" d="M62.8,23.6c2.6,0.9,3.7,1.5,4.5,2.6c0.6,0.8,1,1.8,1,2.5c0,0.8-0.5,1.4-1.1,1.4c-0.7,0-0.7-0.1-2-3.1
	c-0.3-0.7-1.2-1.7-2.7-3L62.8,23.6z M70.4,34.9c-1.7,6-1.8,6.4-1.8,8.2c0,0.7,0.4,4,0.8,6.5c0.1,0.5,0.1,1,0.1,1.3
	c0,1.3-0.9,2.3-1.9,2.3c-1,0-1.4-0.7-1.4-2.1c0-0.4,0-0.4,0.3-2.6c0.1-0.8,0.1-1.5,0.1-2.3c0-2.1-0.3-4-0.8-4.7
	c-0.5-0.7-1.2-1-3.1-1.5l0.1-0.8l4,0.1l6.9-19.1l0.8,0.2L70.4,34.9z M66,14.4c2.8,0.8,3.1,0.9,4.1,1.7c1.1,0.8,1.7,1.6,1.7,2.5
	c0,0.9-0.6,1.7-1.3,1.7c-0.6,0-0.6,0-1.7-2.1c-1-1.7-1.6-2.3-2.9-3.1L66,14.4z M77.3,51.6c0,0.6-0.1,0.8-0.8,1.2
	c-0.5,0.3-0.7,0.4-0.9,0.4c-0.3,0-0.4-0.2-0.4-0.7V13.7l2.2,1.3H84l0.9-1l2.2,1.6c0.1,0.1,0.3,0.3,0.3,0.4c0,0.1-0.1,0.3-0.4,0.4
	l-0.8,0.4v11.5c0,0.5-0.1,0.7-0.5,1c-0.3,0.3-0.8,0.4-1,0.4c-0.3,0-0.4-0.2-0.4-0.7v-1.8h-6.9V51.6z M84.3,20.4v-4.2h-6.9v4.2H84.3z
	 M77.3,26.2h6.9v-4.6h-6.9V26.2z M96.2,44c0.5,0.4,0.7,0.7,0.7,1c0,0.4-0.3,0.6-0.9,0.6H84.4c-1.7,0-2.5,0-4.4,0.1l-1.2-1.5
	c3.2,0.1,4.4,0.2,5.7,0.2h2.2v-5.3h-1.1c-1.5,0-2.5,0-4.5,0.1l-1.2-1.5c3.2,0.1,4.4,0.2,5.7,0.2h1.1v-5h-1.4c-1.6,0-2.5,0-4.4,0.1
	l-1.3-1.5c3.1,0.1,4.3,0.2,5.7,0.2h6.2l1.8-2.1l1.9,1.6c0.6,0.4,0.8,0.8,0.8,1.2c0,0.4-0.3,0.6-0.8,0.6h-6.5v5h2.8l1.4-1.9l2.1,1.8
	c0.3,0.3,0.5,0.6,0.5,0.8c0,0.3-0.3,0.5-0.8,0.5h-6v5.3H92l1.9-2.3L96.2,44z M91.4,28.5c0,0.7-0.7,1.4-1.4,1.4
	c-0.4,0-0.6-0.1-0.6-0.7V13.6l2.5,1.4h5.8l0.9-1.2l2.2,1.5c0.4,0.3,0.5,0.4,0.5,0.6c0,0.2-0.2,0.4-0.4,0.6l-0.8,0.4v33
	c0,1.4-0.3,2.2-1,2.6c-0.6,0.4-1.8,0.8-2.3,0.8c-0.4,0-0.4,0-0.9-1.1c-0.2-0.5-0.4-0.6-1.3-0.8L92.7,51v-0.9l2.7,0.1h0.9
	c1.4,0,1.7-0.3,1.7-1.3V27.4h-6.7V28.5z M98.1,20.4v-4.2h-6.7v4.2H98.1z M91.4,26.2h6.7v-4.6h-6.7V26.2z M99.9,81.9
	c0,0.9-0.8,3.4-1.5,4.8c-1.6,3.1-4.7,4.9-8.2,4.9c-3.2,0-5-2.1-5-5.7c0-1.4,0.2-3.2,0.8-7.2c0.1-0.8,0.2-1.6,0.2-2.1
	c0-1.8-1.2-3-3.2-3c-2,0-4.3,1.3-6.9,3.7c-2,1.8-3.1,3.5-3.8,5.6c-0.7,2.2-1.4,5.4-1.6,7.3c-0.1,1.3-0.4,1.8-1.1,1.8
	c-0.9,0-1.7-0.8-1.7-1.7c0-1.7,1.3-6.2,2.7-9.5c2-4.8,6.9-13.7,10-18.4c0.9-1.3,1.2-2,1.2-2.6c0-0.9-1-2.1-1.9-2.2
	c-0.4-0.1-0.5-0.1-0.5-0.3c0-0.3,0.7-0.5,1.6-0.5c2,0,4.1,1.8,4.1,3.6c0,0.7-0.2,1-1.2,2c-1.4,1.4-6,7.8-7.7,10.6
	c-1.7,3-2,3.6-2,3.9c0,0.2,0.2,0.4,0.5,0.4c0.2,0,0.4-0.1,0.7-0.5c2.6-2.9,6-4.8,8.4-4.8c2.6,0,4.9,2.4,4.9,5.2
	c0,0.5-0.2,2.2-0.6,4.4c-0.5,3.1-0.6,3.5-0.6,4.6c0,2.4,0.9,3.4,2.9,3.4c2.6,0,4.9-1.3,6.8-3.8c0.8-1,1.7-2.9,2-3.8
	c0.1-0.3,0.2-0.4,0.3-0.4S99.9,81.7,99.9,81.9z M84.7,103.1c0.4,0.1,0.6,0.3,0.6,0.7c0,1.3-2.1,2.6-6.6,4.4
	c-0.8,4-3.1,13.1-4.4,17.4c-1.1,3.5-1.1,3.5-1.4,4.3c-0.5,1.3-1.1,1.9-1.9,1.9c-0.8,0-1.7-1.1-1.7-2c0-0.3,0.1-0.6,0.6-1.6
	c2.4-4.1,5-11.8,6.6-19.3c-2.7,1.1-4.5,1.7-5.6,1.7c-1.7,0-3-0.9-3.7-2.5c-0.3-0.6-0.5-1.4-0.5-1.8c0-0.2,0.1-0.3,0.2-0.3
	c0,0,0.1,0,0.2,0.2c0.5,1.3,1.8,2,3.5,2c1.5,0,3.9-0.5,6.4-1.4c0.3-1.7,0.7-5.1,0.7-5.9c0-1.9-0.3-2.5-1.7-2.6l-0.7,0
	c-0.3,0-0.4,0.1-0.5,0.1l-0.2,0.1c-0.1,0-0.2-0.1-0.2-0.1c0-0.4,2-1.6,2.9-1.6c0.5,0,1.5,0.3,2.2,0.7c0.6,0.3,1,0.7,1,1
	c0,0.1,0,0.2-0.1,0.3c-0.1,0.3-0.1,0.4-0.2,0.9c0,0-0.1,0.5-0.3,1.5c2.2,1.4,3.6,2.1,4.3,2.1C84.4,103.1,84.5,103.1,84.7,103.1
	L84.7,103.1z M82.4,104c0-0.3-0.3-0.6-1.1-1.2c-0.5-0.4-1-0.8-1.5-1.2c-0.1,0.4-0.2,0.8-0.2,0.9c0,0.1-0.1,0.7-0.3,1.5
	c0,0.4-0.1,0.8-0.5,2.4C81.7,104.8,82.4,104.3,82.4,104z M98.9,128.2c0,1.3-1.7,2-5.1,2c-6.8,0-10.1-2.2-10.1-6.6
	c0-2,0.8-4.9,1.4-4.9c0.1,0,0.2,0.1,0.2,0.3c0,0,0,0.1,0,0.2c-0.2,0.5-0.4,2.2-0.4,2.9c0,3.8,2,5.3,7.4,5.3c1.7,0,3.3-0.1,4.4-0.4
	c0.7-0.2,0.7-0.2,0.8-0.2C98.3,126.8,98.9,127.4,98.9,128.2z M90.7,112.9c0.4-0.2,1.1-0.6,1.5-0.8c1.4-0.8,1.6-0.9,1.6-1.3
	c0-0.5-1.8-1.1-3.5-1.1c-1.3,0-2.9,0.4-3.6,1c-0.1,0.1-0.2,0.1-0.2,0.1c-0.1,0-0.2-0.1-0.2-0.2c0-0.1,0.4-0.5,0.6-0.7
	c1.2-1,3.1-1.6,5-1.6c3.4,0,6.2,1.8,6.2,3.9c0,0.7-0.3,1.1-0.7,1.1c-0.2,0-0.3,0-0.8-0.2c-0.6-0.3-1.4-0.4-2.1-0.4
	c-1.1,0-3,0.5-4.1,1.1l-0.2,0c-0.1,0-0.3-0.1-0.3-0.2c0-0.1,0-0.1,0.4-0.4L90.7,112.9z M95.1,103.3c0,0.7-0.6,1.3-1.2,1.3
	c-0.4,0-0.6-0.2-0.9-0.7c-0.7-1.6-2.4-3.1-4.1-3.5c-0.3-0.1-0.3-0.1-0.3-0.2c0-0.1,0.7-0.3,1.3-0.3C92.4,100,95.1,101.6,95.1,103.3z
	 M99.6,101.3c0,0.8-0.6,1.4-1.2,1.4c-0.5,0-0.6-0.1-1.1-1c-0.8-1.6-2.4-2.9-4.2-3.4c-0.1,0-0.1,0-0.1-0.1c0-0.1,0.5-0.3,1.1-0.3
	C97,97.9,99.6,99.5,99.6,101.3z M84.1,146.4c0.3,0,0.6,0,0.6,0c2.2,0,5.4-0.9,6.8-1.9c0.2,0.1,0.4,0.2,0.6,0.4l0.4,0.3
	c1.2,0.7,1.5,1,1.5,1.6c0,0.9-1.6,1.3-5.4,1.3c-1.8,0-2.9-0.1-4.6-0.5l0,0.7c0.3,5.9,0.3,6.4,1.2,13.2c5.5,1.8,9.4,4.4,9.4,6.4
	c0,0.9-0.7,1.5-1.5,1.5c-0.6,0-1.1-0.3-1.9-1.3c-2-2.4-3.7-3.8-5.7-4.4c-0.2,1.8-0.6,2.9-1.3,3.9c-1,1.4-3.4,2.4-6,2.4
	c-4.6,0-8.3-2.3-8.3-5.1c0-2.6,3.2-4.4,7.6-4.4c1.3,0,4,0.4,5.5,0.7c-0.8-4.7-1.3-11.3-1.3-16.4c0-0.9,0-1.5,0-2.6v-0.8
	c0-1.7-0.3-2.7-1.2-3.3c-0.3-0.3-1.2-0.6-1.6-0.6l-0.7,0c-0.1,0-0.2-0.1-0.2-0.2c0-0.4,2.2-1.5,3.1-1.5c1.3,0,3.8,1.8,3.8,2.7
	c0,0.2-0.1,0.6-0.2,1c-0.5,1.2-0.8,3.9-0.8,5.8V146.4z M83.3,162.9c-2.8-0.8-4-1-5.9-1c-3.4,0-5.4,1.1-5.4,3c0,1.8,2.5,3.2,6,3.2
	c3.6,0,5.3-1.5,5.3-4.9V162.9z M74,187.4c0,0.4,0.2,1.1,0.3,1.6c0.4,0.7,0.9,1,1.7,1c0.7,0,1.2-0.2,3.2-1.3c3.3-1.9,5.2-2.6,7.1-2.6
	c3.4,0,6.1,3.6,6.1,8.2c0,5.3-2.1,10.1-5.8,13.2c-2.5,2.1-5.7,3.7-9.3,4.8l-0.6,0.1c-0.2,0-0.3,0.1-0.4,0.1c-0.2,0-0.4-0.2-0.4-0.4
	c0-0.2,0.1-0.3,0.4-0.4c1.7-0.4,4.3-1.8,6.4-3.3c2.4-1.8,4.2-3.8,5.4-6.2c1-2.1,1.7-5.3,1.7-7.7c0-4.1-1.7-7.1-4-7.1
	c-2.2,0-5,1.8-8,4.9c-0.5,0.5-1.1,0.9-1.7,0.9c-1.4,0-3-2-3-3.8c0-1,0.5-2.5,0.9-2.5c0.1,0,0.2,0,0.2,0.2c0,0,0,0.1,0,0.2V187.4z
	 M81.9,179.8c-2,0-3.9-2.2-3.9-4.4c0-1,0.1-1.3,0.3-1.3c0.1,0,0.1,0,0.1,0.3c0,0.7,0.4,1.5,1.1,2.1c1,1,2.4,1.5,4.6,1.5
	c0.5,0,1.3,0,1.8-0.1c0.2,0,0.4,0,0.5,0c1,0,2,1.2,2,2.3c0,0.5-0.5,0.9-1.1,0.9c-0.1,0-0.3,0-0.4,0c-0.7-0.1-1.5-0.2-2.1-0.2
	c-2,0-4,0.4-5.3,1.2c-0.1,0.1-0.1,0.1-0.2,0.1c-0.1,0-0.2-0.1-0.2-0.2c0-0.2,1-0.9,2.7-2l0.2-0.1c0,0,0.1,0,0.2-0.1H81.9z M84,220.3
	c0.4,0,1.2,0.8,1.2,1.3c0,1.1-2.3,2.6-6.3,3.9c-1.1,3.7-2.4,7.1-5.1,13.2c-1.7,3.9-2.7,5.2-3.9,5.2c-0.9,0-1.7-0.8-1.7-1.6
	c0-0.5,0.3-0.9,1-1.8c3.1-3.5,6.1-9.2,7.9-14.9c-1.6,0.4-3.2,0.7-4.2,0.7c-1.4,0-2.5-0.6-3.3-2.1c-0.3-0.5-0.8-1.7-0.8-2
	c0-0.1,0.1-0.2,0.2-0.2c0,0,0.1,0,0.2,0.1c0.6,1.3,2.2,2.2,4.1,2.2c1.2,0,2.3-0.2,4.4-0.8c0.5-1.7,1-4.3,1-5c0-1.2-0.7-2.1-1.7-2.1
	l-0.3,0c0,0-0.1,0-0.1,0l-0.2,0l-0.2-0.2l0-0.1c0.2-0.3,1.7-0.8,2.4-0.8c1.1,0,2.6,1,2.6,1.8c0,0.1-0.1,0.4-0.3,0.9
	c-0.1,0.2-0.1,0.4-0.3,0.9c1.6,1.1,2.4,1.5,2.9,1.5L84,220.3z M87.3,242.5c0-2.3,0-3.4,0-4c0-3.8,0.4-5.4,1.9-6.9c1-1,2-1.7,3.5-2.1
	c1.6-0.4,2-0.7,2-1.1c0-1-2.5-2.2-4.6-2.2c-0.5,0-1.3,0.1-1.4,0.2c-0.1,0-0.2,0-0.2,0c-0.1,0-0.2-0.2-0.2-0.3c0-0.5,1.7-1.1,3.1-1.1
	c3.9,0,7.2,2.2,7.2,4.8c0,0.6-0.4,1.1-0.9,1.1c-0.2,0-0.5-0.1-0.9-0.3c-0.6-0.3-1.6-0.4-2.4-0.4c-1.1,0-2.2,0.3-3.1,0.9
	c-1.2,0.7-1.9,2.4-1.9,4.4c0,0.7,0,1.5,0.1,2.6c0.2,2.1,0.3,3.2,0.4,5.5c4.3,1.3,7.8,3.9,7.8,5.8c0,0.7-0.5,1.3-1.2,1.3
	c-0.6,0-0.9-0.2-1.7-1.1c-1-1.2-3.7-3.3-5-3.9c-0.1,2.3-0.4,3.4-1.4,4.4c-1,1.2-2.5,1.7-4.6,1.7c-3.6,0-6.1-1.8-6.1-4.4
	c0-2.7,2.7-4.5,6.7-4.5c1.3,0,2.1,0.1,3.1,0.3V242.5z M87.3,244.8c-1.2-0.5-2.3-0.8-4-0.8c-2.9,0-4.4,1-4.4,3c0,1.6,1.7,2.7,4.2,2.7
	c1.9,0,3.3-0.8,3.8-2c0.3-0.5,0.3-1.3,0.3-2.5v-0.1V244.8z M82.5,221.1c0-0.3-0.5-0.8-1.9-1.8c-0.5,1.7-0.8,2.6-1.2,3.8
	C81.5,222.3,82.5,221.6,82.5,221.1z M92.3,260.1c4.3,0.6,7.8,3.8,7.8,7c0,1.4-0.9,2.5-1.9,2.5c-0.3,0-0.6-0.2-0.9-0.4
	c-0.5-0.5-0.5-0.5-1.3-3.9c-0.8-2.2-1.7-3.2-4-4.6L92.3,260.1z M22.7,44.7c-1.4,1.2-3.7,2.6-4.2,2.6c-0.2,0-0.4-0.2-0.4-0.3
	c0-0.2,0-0.2,1.1-0.9c3.6-2.6,6.9-7.5,9-13.3c1.1-3.1,1.8-6.1,1.8-7.8c0-0.9-0.3-1.4-1.5-1.7c-0.1,0-0.2-0.1-0.2-0.2
	c0-0.2,1-0.5,1.6-0.5c0.7,0,2.3,1.3,3.4,2.5c1.7-1,4.6-3.1,5.8-4.1c1-0.9,1.3-1.3,1.3-1.7c0-0.7-0.8-1-2.6-1
	c-1.9,0-7.2,0.7-10.3,1.3c-3.7,0.8-4.8,1.1-6.4,1.9c-0.4,0.2-0.6,0.2-0.9,0.2c-0.9,0-2.2-0.9-2.9-1.9c-0.5-0.6-0.8-1.7-0.8-2.6
	c0-0.3,0.2-0.5,0.4-0.5c0.1,0,0.1,0,0.3,0.3c0.5,1,1.9,1.8,3.2,1.8c0.3,0,0.6,0,1.1,0c0.6-0.1,1.2-0.1,1.7-0.2
	c0.9-0.1,1.9-0.2,2.9-0.3c10.2-1,13-1.4,14-2c0.6-0.2,0.7-0.3,1-0.3c0.6,0,0.6,0,2.6,1.9c1.8,1.8,1.8,1.8,1.8,2.1
	c0,0.4-0.3,0.5-0.9,0.7c-0.8,0.2-0.8,0.2-2.8,1.2c-4.3,2.1-6.4,3.1-8.8,4.2C31.1,33.6,27.1,40.9,22.7,44.7z M26.5,61.9
	c0,0.7-0.6,1.4-1.4,1.4c-0.4,0-0.8-0.4-1.2-1.1c-1-2.2-4-4.8-6.4-5.3C17,56.7,17,56.7,17,56.6c0-0.2,0.7-0.4,1.4-0.4
	C22.1,56.2,26.5,59.3,26.5,61.9z M19.1,75.4c0.3,1.2,1.5,2.2,2.6,2.2c1.9,0,7.9-3.9,13.5-8.8c4.1-3.6,8.9-8.8,10.9-11.7
	c0.1-0.2,0.2-0.3,0.4-0.3c0.2,0,0.3,0.1,0.3,0.3c0,0.7-1.4,3.2-3.3,5.7c-4.4,6.1-11.1,12.1-17.9,16.3c-1.4,0.9-1.6,0.9-2.1,1.4
	c-0.5,0.4-0.7,0.5-0.9,0.5c-0.9,0-2.6-1.3-3.6-2.7c-0.4-0.6-0.5-1.1-0.5-2.2c0-0.7,0.1-1,0.4-1C18.9,75,19,75.1,19.1,75.4z
	 M18.8,113.8c-0.8,0.2-1.1,0.3-1.6,0.3c-0.9,0-1.8-0.5-2.7-1.6c-0.5-0.6-1-1.9-1-2.6c0-0.1,0.1-0.2,0.1-0.2c0.1,0,0.2,0,0.3,0.2
	c1,1,1.8,1.2,4,1.2c5.5,0,21.1-1.7,23.6-2.6c0.7-0.3,0.8-0.3,1-0.3c0.6,0,1.9,0.5,3.5,1.4c0.8,0.4,1.2,0.9,1.2,1.5c0,0.6-0.5,1-1,1
	c-0.2,0-0.5,0-0.8-0.1c-1.7-0.4-5.5-0.7-7.5-0.7C32.2,111.4,23.2,112.5,18.8,113.8z M28.4,98.7c-2.1,0.4-2.7,0.5-3.5,0.5
	c-1.4,0-2.2-0.6-3.3-2.2C21.2,96.5,21,96,21,95.9c0-0.1,0.1-0.2,0.1-0.2c0,0,0.1,0,0.2,0.1c0.7,0.8,1.7,1.1,3.6,1.1
	c3.1,0,6.9-0.8,8.9-1.9c0.6-0.3,0.9-0.4,1.2-0.4c0.2,0,0.2,0,2.3,0.8c0.6,0.2,1.2,0.8,1.2,1.2c0,0.4-0.3,0.6-0.9,0.7
	c-0.7,0.1-1.2,0.2-1.2,0.2c-0.9,0.1-1.7,0.3-2.6,0.4c-1.2,0.2-2.3,0.4-3.4,0.6L28.4,98.7z M35.8,134.6c0-0.4,0.1-0.9,0.1-0.9
	c0-0.2,0-0.4,0-0.4c0-0.6-0.5-1.1-1.2-1.1c-1.3,0-4.4,0.9-7.2,2.1c-0.6,0.3-0.9,0.4-1.2,0.4c-0.4,0-1.1-0.4-1.7-1
	c-0.5-0.4-0.7-1-0.7-1.9c0-0.7,0-0.9,0.3-0.9c0.1,0,0.1,0,0.1,0.1c0.3,0.9,1.1,1.3,2.4,1.3c2.3,0,7.5-1.2,8.9-2
	c0.4-0.2,0.5-0.3,0.8-0.3c0.6,0,2.9,1.9,2.9,2.4c0,0.1-0.1,0.2-0.3,0.4c-0.7,0.6-0.9,1.2-2.8,10.1c5.2-0.4,6.4-0.6,8.2-1
	c0.2,0,0.3,0,0.4,0c0.3,0,0.7,0.2,2,1.2c0.9,0.6,1.2,0.9,1.2,1.3c0,0.4-0.5,0.8-0.9,0.8c-0.2,0-0.5,0-0.9-0.2
	c-1.1-0.3-5.3-0.7-7.4-0.7c-3,0-7.3,0.4-11.2,1c-1.7,0.3-2.5,0.4-4.1,1c-1.1,0.4-1.3,0.5-1.5,0.5c-0.4,0-1.1-0.4-2.4-1.3
	c-0.7-0.5-1.1-1-1.1-1.3c0-0.3,0.4-1.2,0.5-1.2c0,0,0,0,0,0.1c0,0.6,1.5,1.1,3.3,1.1c0.3,0,0.6,0,1.2-0.1c0.6,0,1.8-0.1,3.7-0.3
	c2.7-0.2,4.5-0.4,7.2-0.7C35.2,138.8,35.4,137.5,35.8,134.6z M33.2,190.8c0,1-0.3,1.6-0.9,1.6c-0.4,0-1.2-0.2-1.7-0.4
	c-0.6-0.3-0.8-0.6-0.8-1.1c0-0.2,0-0.2,0.2-1.4c0.6-4.4,1-10.8,1-15.2c0-1.4-0.1-1.8-0.8-2.7c-4.1,4.4-7.9,7.5-11.5,9.5
	c-1.4,0.8-3.8,1.8-4.1,1.8c-0.1,0-0.3-0.1-0.3-0.2c0-0.1,0.1-0.2,0.3-0.3c6.8-3.1,19.8-17.2,19.8-21.4c0-0.5-0.8-1.3-1.7-1.4
	c-0.1,0-0.2-0.1-0.2-0.2c0-0.2,1-0.6,1.5-0.6c1.6,0,4.6,2.2,4.6,3.4c0,0.3-0.1,0.4-0.5,0.5c-0.6,0.4-0.7,0.4-1.5,1.5
	c-1.9,2.4-4.2,5.2-5.7,6.8c2,1,2.8,1.4,2.8,1.8c0,0.1,0,0.2-0.2,0.5c-0.3,0.6-0.4,1.8-0.4,3.7c0,6.4,0,11.2,0.2,12.5L33.2,190.8z
	 M31.2,203.3c0.4,0,1.2,0.8,1.2,1.3c0,1.1-2.3,2.6-6.3,3.9c-1.1,3.7-2.4,7.1-5.1,13.2c-1.7,3.9-2.7,5.2-3.9,5.2
	c-0.9,0-1.7-0.8-1.7-1.6c0-0.5,0.3-0.9,1-1.8c3.1-3.5,6.1-9.2,7.9-14.9c-1.6,0.4-3.2,0.7-4.2,0.7c-1.4,0-2.5-0.6-3.3-2.1
	c-0.3-0.5-0.8-1.7-0.8-2c0-0.1,0.1-0.2,0.2-0.2c0,0,0.1,0,0.2,0.1c0.6,1.3,2.2,2.2,4.1,2.2c1.2,0,2.3-0.2,4.4-0.8c0.5-1.7,1-4.3,1-5
	c0-1.2-0.7-2.1-1.7-2.1l-0.3,0c0,0-0.1,0-0.1,0l-0.2,0l-0.2-0.2l0-0.1c0.2-0.3,1.7-0.8,2.4-0.8c1.1,0,2.6,1,2.6,1.8
	c0,0.1-0.1,0.4-0.3,0.9c-0.1,0.2-0.1,0.4-0.3,0.9c1.6,1.1,2.4,1.5,2.9,1.5L31.2,203.3z M34.5,225.4c0-2.3,0-3.4,0-4
	c0-3.8,0.4-5.4,1.9-6.9c1-1,2-1.7,3.5-2.1c1.6-0.4,2-0.7,2-1.1c0-1-2.5-2.2-4.6-2.2c-0.5,0-1.3,0.1-1.4,0.2c-0.1,0-0.2,0-0.2,0
	c-0.1,0-0.2-0.2-0.2-0.3c0-0.5,1.7-1.1,3.1-1.1c3.9,0,7.2,2.2,7.2,4.8c0,0.6-0.4,1.1-0.9,1.1c-0.2,0-0.5-0.1-0.9-0.3
	c-0.6-0.3-1.6-0.4-2.4-0.4c-1.1,0-2.2,0.3-3.1,0.9c-1.2,0.7-1.9,2.4-1.9,4.4c0,0.7,0,1.5,0.1,2.6c0.2,2.1,0.3,3.2,0.4,5.5
	c4.3,1.3,7.8,3.9,7.8,5.8c0,0.7-0.5,1.3-1.2,1.3c-0.6,0-0.9-0.2-1.7-1.1c-1-1.2-3.7-3.3-5-3.9c-0.1,2.3-0.4,3.4-1.4,4.4
	c-1,1.2-2.5,1.7-4.6,1.7c-3.6,0-6.1-1.8-6.1-4.4c0-2.7,2.7-4.5,6.7-4.5c1.3,0,2.1,0.1,3.1,0.3V225.4z M34.5,227.8
	c-1.2-0.5-2.3-0.8-4-0.8c-2.9,0-4.4,1-4.4,3c0,1.6,1.7,2.7,4.2,2.7c1.9,0,3.3-0.8,3.8-2c0.3-0.5,0.3-1.3,0.3-2.5v-0.1V227.8z
	 M29.7,204c0-0.3-0.5-0.8-1.9-1.8c-0.5,1.7-0.8,2.6-1.2,3.8C28.7,205.2,29.7,204.6,29.7,204z M14.8,244.6h4.6l1.1-1.3l2.3,1.7
	c0.2,0.2,0.4,0.4,0.4,0.6c0,0.2-0.1,0.3-0.4,0.4l-0.8,0.4v28c0,0.5-0.9,1.2-1.7,1.2c-0.3,0-0.3-0.1-0.3-0.5v-2.1h-5.4v4
	c0,0.3-0.1,0.4-0.5,0.6c-0.6,0.4-0.9,0.5-1.2,0.5c-0.3,0-0.3-0.2-0.3-0.6v-34.6L14.8,244.6z M14.5,262.2h5.4v-7.3h-5.4V262.2z
	 M14.5,263.4v8.5h5.4v-8.5H14.5z M19.8,245.8h-5.3v7.9h5.3V245.8z M34.6,274h-4.8c-1.4,0-2.4,0-4.8,0.1l-1-1.5
	c2.9,0.1,4.1,0.2,5.7,0.2h4.9v-3.9h-7.1v1.2c0,0.6-0.6,1.2-1.3,1.2c-0.3,0-0.4-0.1-0.4-0.4v-13.8l2,1H43l0.6-1.1l2.3,1.5
	c0.3,0.2,0.4,0.4,0.4,0.5c0,0.1-0.1,0.3-0.4,0.4l-0.7,0.4v9.2c0,0.5-0.9,1.1-1.7,1.1c-0.2,0-0.3-0.1-0.3-0.3v-1h-6.9v3.9h6.1
	l1.9-1.9l2.5,1.8c0.3,0.3,0.5,0.5,0.5,0.8c0,0.3-0.3,0.5-0.7,0.5H36.4v4.4h8.3l2.3-2.2l2.6,2.1c0.4,0.4,0.6,0.6,0.6,0.9
	c0,0.3-0.3,0.4-0.7,0.4H28.1c-0.5,0-1.6,0-2.8,0l-2.9,0.1l-1.6-1.6c3.8,0.1,5.3,0.2,7.3,0.2h6.5V274z M22.8,254c2,0,3.8,0.1,4.4,0.1
	c1.3,0,2.3,0.1,2.7,0.1h0.6c-0.1-0.4-0.2-0.7-0.2-0.8c-0.1-0.6-0.2-1.3-0.3-1.9c-0.6-1.8-1.2-3.1-2-4c-0.9,0-1.3,0-2.8,0.1l-1-1.5
	c3.3,0.1,4.4,0.2,5.6,0.2h4.8v-6.3l2.9,0.5c0.4,0,0.6,0.2,0.6,0.4c0,0.2-0.1,0.3-0.4,0.4l-1.1,0.5v4.4h6.3l2.1-2.4l2.6,2.3
	c0.3,0.2,0.4,0.5,0.4,0.7c0,0.4-0.3,0.6-0.8,0.6h-6.8l1.2,0.7c0.3,0.2,0.4,0.4,0.4,0.5c0,0.3-0.1,0.4-0.6,0.6l-0.9,0.4
	c-1.1,2.4-1.4,3-2.2,4.5H45l2.1-2.3l2.7,2.2c0.3,0.2,0.4,0.5,0.4,0.8c0,0.4-0.2,0.6-0.6,0.6H30c-0.3,0-1.3,0-2.6,0
	c-0.5,0-1.8,0-3.4,0.1L22.8,254z M34.6,262.9v-3.6h-7.1v3.6H34.6z M27.6,267.7h7.1v-3.6h-7.1V267.7z M37.5,254.1
	c0.7-1.9,1.2-3.9,1.6-6.7h-10l1.4,1.5c1.4,1.4,2,2.6,2,3.7c0,0.6-0.1,0.9-0.6,1.5H37.5z M43.3,262.9v-3.6h-6.9v3.6H43.3z
	 M36.4,267.7h6.9v-3.6h-6.9V267.7z M47.9,292.2c0,2.9-2.2,5.2-4.9,5.2c-2.7,0-4.9-2.3-4.9-5.2s2.2-5.1,4.9-5.1
	C45.7,287.1,47.9,289.5,47.9,292.2z M39.5,292.2c0,2.1,1.6,3.7,3.5,3.7c2,0,3.5-1.7,3.5-3.7s-1.6-3.7-3.6-3.7
	C41,288.6,39.5,290.3,39.5,292.2z M113.7,0H0v320.1h113.7V0z"/>
</svg>
