<svg xmlns="http://www.w3.org/2000/svg" width="276" height="30.538" viewBox="0 0 276 30.538"><defs><style>.a{fill:#070203;}.b{stroke:#000;stroke-width:0.5px;}.c{fill:none;}</style></defs><g transform="translate(7620 -2113)"><g transform="translate(-8437 -3243)"><path class="a" d="M90.97,543.259H80.332V548.8H90.446v5.582H80.332v6.355H90.97v5.582H72.986V537.677H90.97Z" transform="translate(744.014 4819.467)"/><path class="a" d="M328.317,543.259v23.057H320.97V543.259h-6.917v-5.582h21.181v5.582Z" transform="translate(593.212 4819.467)"/><path class="a" d="M385.814,537.677v28.638h-7.346V537.677Z" transform="translate(553.985 4819.467)"/><path class="a" d="M500.08,566.315V537.677h6.393l17.269,18.463V537.677h7.346v28.638H524.7l-17.269-18.549v18.549Z" transform="translate(477.928 4819.467)"/><path class="a" d="M147.28,556.592l-8.65-18.644-.052-.113h-8.633v28.773h6.715V548.617l8.3,17.878.052.113h4.545l8.39-18.134v18.134H164.7V537.835h-8.872Z" transform="translate(709.327 4819.371)"/><path class="b" d="M193.251,271.664a15.505,15.505,0,0,1,0,21.454,14.514,14.514,0,0,1-10.69,4.188,14.963,14.963,0,0,1-10.773-4.188,14.783,14.783,0,0,1-4.309-10.6,16.176,16.176,0,0,1,4.268-10.812,15.956,15.956,0,0,1,21.5-.043Zm-16.781,4.359a8.872,8.872,0,0,0-2.445,6.453,8.642,8.642,0,0,0,2.528,6.41,7.99,7.99,0,0,0,5.925,2.351,8.235,8.235,0,0,0,6.132-2.436,8.67,8.67,0,0,0,2.4-6.367,9.134,9.134,0,0,0-2.4-6.41,8.72,8.72,0,0,0-6.091-2.436A8.345,8.345,0,0,0,176.469,276.023Z" transform="translate(709.832 5088.982)"/><path class="b" d="M193.251,271.664a15.505,15.505,0,0,1,0,21.454,14.514,14.514,0,0,1-10.69,4.188,14.963,14.963,0,0,1-10.773-4.188,14.783,14.783,0,0,1-4.309-10.6,16.176,16.176,0,0,1,4.268-10.812,15.956,15.956,0,0,1,21.5-.043Zm-16.781,4.359a8.872,8.872,0,0,0-2.445,6.453,8.642,8.642,0,0,0,2.528,6.41,7.99,7.99,0,0,0,5.925,2.351,8.235,8.235,0,0,0,6.132-2.436,8.67,8.67,0,0,0,2.4-6.367,9.134,9.134,0,0,0-2.4-6.41,8.72,8.72,0,0,0-6.091-2.436A8.345,8.345,0,0,0,176.469,276.023Z" transform="translate(776.832 5088.982)"/></g><rect class="c" width="276" height="30" transform="translate(-7620 2113)"/></g></svg>