<svg xmlns="http://www.w3.org/2000/svg" width="276" height="30" viewBox="0 0 276 30"><defs><style>.a{fill:none;}</style></defs><g transform="translate(7620 -2052)"><g transform="translate(-7692.986 1644.573)"><path d="M84.29,407.427c4.106,0,6.666,1.217,8.212,2.522a8.325,8.325,0,0,1,2.8,6.478,7.5,7.5,0,0,1-2.512,5.913,10.5,10.5,0,0,1-4.492,2.217l9.9,11.87H89.12l-8.7-11.435v11.435H72.986v-29ZM80.425,420.6h1.691a6.588,6.588,0,0,0,4.444-1.261,3.715,3.715,0,0,0,1.208-2.826,3.41,3.41,0,0,0-1.5-2.957,7.923,7.923,0,0,0-4.106-.913H80.425Z" transform="translate(0 0)"/><path d="M159.976,413.079H149.2v5.609h10.241v5.652H149.2v6.435h10.772v5.652H141.765v-29h18.211Z" transform="translate(-41.545 0)"/><path d="M216.319,430.949H204.145l-2.464,5.478h-7.729l12.994-29h6.811l12.7,29h-7.729Zm-2.029-5.131-3.961-9.739-4.009,9.739Z" transform="translate(-73.068 0)"/><path d="M289.417,407.427v23.348h10v5.652H281.978v-29Z" transform="translate(-126.238 0)"/><path d="M343.678,407.427v23.348h10v5.652H336.239v-29Z" transform="translate(-159.013 0)"/><path d="M382.253,422.905l-11.545-15.478H379.5l6.473,9,6.473-9h8.792l-11.546,15.478v13.522h-7.439Z" transform="translate(-179.833 0)"/></g><rect class="a" width="276" height="30" transform="translate(-7620 2052)"/></g></svg>