<svg xmlns="http://www.w3.org/2000/svg" width="276" height="30" viewBox="0 0 276 30"><defs><style>.a{fill:#070203;}.b{fill:none;}</style></defs><g transform="translate(7620 -2165)"><g transform="translate(-7692.986 1487.286)"><path class="a" d="M100.306,694.935c0,2.79-.388,6.235-3.585,9.2-3.1,2.878-6.685,3.314-10.075,3.314s-6.975-.436-10.075-3.314c-3.2-2.964-3.585-6.409-3.585-9.2V677.714h7.46v17.047a6.228,6.228,0,1,0,12.4,0V677.714h7.46Z" transform="translate(0)"/><path class="a" d="M153.936,706.794v-29.08h6.491l17.535,18.747V677.714h7.46v29.08h-6.491L161.4,687.96v18.834Z" transform="translate(-48.808)"/><path class="a" d="M354.5,677.714v29.08h-7.46v-29.08Z" transform="translate(-165.235)"/><path class="a" d="M388.184,691.36l-10.027-13.646h8.962L392.446,686l5.329-8.284h8.961L396.709,691.36l11.867,15.434h-8.961l-7.169-10.071-7.169,10.071h-8.962Z" transform="translate(-182.889)"/><path class="a" d="M262.946,696.918l-8.784-18.931-.053-.115h-8.766v29.216h6.818V688.82l8.426,18.154.053.115h4.615l8.519-18.414v18.414h6.859V677.872h-9.009Z" transform="translate(-103.921 -0.095)"/></g><rect class="b" width="276" height="30" transform="translate(-7620 2165)"/></g></svg>