<svg xmlns="http://www.w3.org/2000/svg" width="276" height="30.538" viewBox="0 0 276 30.538"><defs><style>.a{stroke:#000;stroke-width:0.5px;}.b{fill:none;}</style></defs><g transform="translate(7620 -2005)"><g transform="translate(-8430 -685)"><path class="a" d="M193.251,271.664a15.505,15.505,0,0,1,0,21.454,14.514,14.514,0,0,1-10.69,4.188,14.963,14.963,0,0,1-10.773-4.188,14.783,14.783,0,0,1-4.309-10.6,16.176,16.176,0,0,1,4.268-10.812,15.956,15.956,0,0,1,21.5-.043Zm-16.781,4.359a8.872,8.872,0,0,0-2.445,6.453,8.642,8.642,0,0,0,2.528,6.41,7.99,7.99,0,0,0,5.925,2.351,8.235,8.235,0,0,0,6.132-2.436,8.67,8.67,0,0,0,2.4-6.367,9.134,9.134,0,0,0-2.4-6.41,8.72,8.72,0,0,0-6.091-2.436A8.345,8.345,0,0,0,176.469,276.023Z" transform="translate(679.973 2422.982)"/><path d="M382.851,274.7H372.306v5.49h10.024v5.532H372.306v6.3h10.544v5.532H365.025V269.165h17.826Z" transform="translate(555.178 2421.835)"/><path d="M423.039,297.551V269.165h6.336l17.117,18.3v-18.3h7.282v28.386h-6.336l-17.117-18.385v18.385Z" transform="translate(518.648 2421.927)"/><path d="M525.964,274.7v22.854h-7.282V274.7h-6.856v-5.532H532.82V274.7Z" transform="translate(464.274 2421.927)"/><path d="M79.61,280.009l8.224,17.72.052.112h4.505l8.316-17.974v17.974H107.4V269.323H98.608l-8.47,18.592-8.574-18.48-.052-.112H72.955v28.519H79.61Z" transform="translate(737.045 2421.677)"/><path d="M289.354,269.323l-8.471,18.592-8.574-18.48-.052-.112H263.7v28.519h6.655V280.009l8.224,17.72.052.112h4.505l8.316-17.974v17.974h6.694V269.323Z" transform="translate(617.229 2421.677)"/></g><rect class="b" width="276" height="30" transform="translate(-7620 2005)"/></g></svg>