<svg xmlns="http://www.w3.org/2000/svg" width="276" height="30" viewBox="0 0 276 30"><defs><style>.a{fill:none;}</style></defs><g transform="translate(7620 -2207)"><g transform="translate(-8379.395 991.531)"><path d="M777.334,1221.117h-10.61v5.6h10.087v5.648H766.724v6.43h10.61v5.648H759.4v-28.977h17.939Z" transform="translate(0 0)"/><path d="M780.9,1244.446v-28.977h6.376l17.226,18.681v-18.681h7.328v28.977h-6.376l-17.226-18.768v18.768Z" transform="translate(2.378 0)"/><path d="M813.393,1244.446v-28.977h6.376L837,1234.15v-18.681h7.327v28.977h-6.376l-17.226-18.768v18.768Z" transform="translate(5.971 0)"/><path d="M874.334,1232.666c0,2.786-.38,6.226-3.521,9.186-3.045,2.873-6.567,3.308-9.9,3.308s-6.852-.435-9.9-3.308c-3.141-2.961-3.522-6.4-3.522-9.186v-17.2h7.328v17.023a6.454,6.454,0,0,0,1.666,4.875,7.186,7.186,0,0,0,8.85,0,6.454,6.454,0,0,0,1.666-4.875v-17.023h7.328Z" transform="translate(9.742 0)"/><path d="M885.374,1215.469v28.977h-7.329v-28.977Z" transform="translate(13.12 0)"/></g><rect class="a" width="276" height="30" transform="translate(-7620 2207)"/></g></svg>