<svg xmlns="http://www.w3.org/2000/svg" width="276" height="30.23" viewBox="0 0 276 30.23"><defs><style>.a{fill:#070203;}.b{fill:none;}</style></defs><g transform="translate(7620 -2253)"><g transform="translate(-7692.955 1321.961)"><path class="a" d="M90.466,951.79l-8.738-18.833-.053-.115h-8.72v29.065h6.783V943.734l8.381,18.06.053.114h4.592l8.475-18.318v18.318h6.823V932.843H99.1Z" transform="translate(0 -1.091)"/><path class="a" d="M176.891,948.126l-11.517-15.44h8.77l6.457,8.978,6.457-8.978h8.77l-11.517,15.44v13.489h-7.421Z" transform="translate(-55.913 -0.996)"/><path class="a" d="M254.287,938.759a8.328,8.328,0,0,0-5.4-2.082,4.3,4.3,0,0,0-3.132,1,2.463,2.463,0,0,0-.819,1.821,1.935,1.935,0,0,0,.722,1.6c.771.651,1.879.911,4.048,1.648l2.41.824a13.351,13.351,0,0,1,4.385,2.212,6.837,6.837,0,0,1,2.361,5.378,9.784,9.784,0,0,1-2.843,7.156c-2.844,2.689-6.988,2.949-9.108,2.949a14.9,14.9,0,0,1-6.361-1.215,20.412,20.412,0,0,1-4.723-3.166l3.855-4.771a19.364,19.364,0,0,0,2.988,2.212,8.088,8.088,0,0,0,4.048,1.041,5.526,5.526,0,0,0,3.373-1,2.88,2.88,0,0,0,1.157-2.342,2.47,2.47,0,0,0-1.108-2.082,16.522,16.522,0,0,0-3.759-1.6l-2.65-.824a11.173,11.173,0,0,1-4.481-2.3,6.668,6.668,0,0,1-1.928-5.031,8.429,8.429,0,0,1,2.795-6.506c2.265-2.082,4.963-2.645,7.951-2.645a16.75,16.75,0,0,1,9.541,2.862Z" transform="translate(-98.539 0)"/><path class="a" d="M311.332,938.324v23.291h-7.421V938.324h-6.987v-5.638h21.4v5.638Z" transform="translate(-135.501 -0.996)"/><path class="a" d="M368.76,932.686v28.929h-7.421V932.686Z" transform="translate(-174.471 -0.996)"/><path class="a" d="M413.575,959.708a16.307,16.307,0,0,1-7.084,1.561c-5.927,0-9.927-1.822-12.625-4.207a14.424,14.424,0,0,1,0-21.859,18.132,18.132,0,0,1,12-4.164,20.933,20.933,0,0,1,7.711,1.6v7.72a10.679,10.679,0,0,0-7.517-3.079,9.589,9.589,0,0,0-6.554,2.255,8.829,8.829,0,0,0-3.036,6.679,8.287,8.287,0,0,0,2.8,6.375,10.3,10.3,0,0,0,6.939,2.429,10.714,10.714,0,0,0,7.373-2.993Z" transform="translate(-191.118 0)"/><path class="a" d="M480.1,956.15H467.951l-2.458,5.465h-7.71l12.962-28.929h6.794l12.673,28.929H482.5Zm-2.024-5.118-3.952-9.716-4,9.716Z" transform="translate(-232.82 -0.996)"/><path class="a" d="M556.457,932.686v23.291h9.975v5.639h-17.4V932.686Z" transform="translate(-288.027 -0.996)"/></g><rect class="b" width="276" height="30" transform="translate(-7620 2253)"/></g></svg>